<svg width="110" height="24" viewBox="0 0 110 24" fill="none" xmlns="http://www.w3.org/2000/svg">
<g clip-path="url(#clip0_5778_48)">
<path fill-rule="evenodd" clip-rule="evenodd" d="M27.6169 9.01052C25.9264 9.01052 25.284 9.81894 25.0811 10.7789L23.8809 16.5558C23.8302 16.8421 23.5428 17.061 23.2554 17.061H22.0552C21.7678 17.061 21.5818 16.8421 21.6325 16.5558L23.4583 7.46105C23.509 7.17473 23.7964 6.95578 24.0838 6.95578H25.2671C25.5545 6.95578 25.7404 7.17473 25.6728 7.46105L25.6052 7.79789C25.5376 8.06736 25.6559 8.13473 25.8419 7.91579C25.8419 7.91579 27.0083 6.83789 28.4621 6.83789C28.7495 6.83789 28.6312 7.07368 28.6312 7.07368L28.0733 8.75789C28.0733 8.75789 27.9888 9.01052 27.6169 9.01052Z" fill="#053E6E"/>
<path d="M32.063 17.2463C28.0565 17.2463 28.1579 13.2042 28.496 11.6884C28.7665 10.4926 29.8991 6.75366 33.4661 6.75366C38.0473 6.75366 36.6273 12.16 36.6273 12.16C36.5428 12.4295 36.4075 12.6484 36.0018 12.6484H30.6937C30.4232 12.6484 30.3894 12.8 30.3725 12.901C30.3217 13.3052 30.271 14.1473 30.7782 14.8547C31.2684 15.5452 32.5194 16.0842 34.9368 14.7031C35.1228 14.6021 35.2242 14.6358 35.2918 14.7873C35.3256 14.8884 35.5285 15.5452 35.5285 15.5452C35.613 15.8147 35.4947 16.1684 35.258 16.32C35.258 16.32 34.7678 16.6568 34.1423 16.8758C33.5506 17.1452 32.8406 17.2463 32.063 17.2463ZM33.1787 8.58945C32.7053 8.58945 32.2658 8.8084 31.877 9.26314C31.5051 9.66735 31.2346 10.2231 31.0487 10.8463C31.0318 10.8968 30.9979 11.0147 31.167 11.0147C31.3191 11.0147 34.3789 11.0147 34.3789 11.0147C34.548 11.0147 34.5649 10.8968 34.5818 10.8295C34.5987 10.7621 34.5987 10.5431 34.6156 10.2568C34.6156 10.2568 34.6325 9.58314 34.4127 9.17892C34.1761 8.79156 33.7704 8.58945 33.1787 8.58945Z" fill="#053E6E"/>
<path fill-rule="evenodd" clip-rule="evenodd" d="M41.3775 15.4274C41.8509 15.4274 42.2904 15.2589 42.6961 14.9389C43.0511 14.6526 43.2202 14.3663 43.3554 13.9621C43.4399 13.7095 43.6766 13.7263 43.6766 13.7263C43.6766 13.7263 45.0966 13.7263 45.1812 13.7263C45.3333 13.7263 45.4178 13.861 45.3671 14.0126C45.3502 14.0968 45.3164 14.181 45.2826 14.2652C45.2826 14.2652 44.8262 15.5958 43.9809 16.2526C43.1357 16.9095 42.1721 17.2463 41.0902 17.2463C39.7378 17.2463 38.7573 16.7579 38.1318 15.7979C36.9484 13.9452 37.3372 10.3579 39.3151 8.1684C40.1773 7.2084 41.2761 6.77051 42.7637 6.77051C43.9133 6.77051 44.7247 7.12419 45.3502 7.83156C45.925 8.4884 46.1447 9.31367 46.0095 10.2737C45.9926 10.3579 45.9588 10.56 45.6714 10.56H44.2852C44.0654 10.56 43.8964 10.4926 43.8964 10.2063C43.8964 10.2063 43.8964 9.49893 43.6428 9.1284C43.3892 8.75788 42.9835 8.57261 42.4595 8.57261C41.7156 8.57261 41.1578 8.89261 40.7013 9.51577C39.873 10.6779 39.3997 13.221 39.8561 14.5179C40.1097 15.141 40.5999 15.4274 41.3775 15.4274Z" fill="#053E6E"/>
<path d="M52.0784 17.0442C51.791 17.0442 51.6051 16.8252 51.6558 16.5558L51.7234 16.0673C51.7234 16.0673 51.7065 15.8652 51.5374 16.0168C51.2839 16.2358 50.8105 16.64 50.4217 16.8421C49.9146 17.1116 49.3905 17.2463 48.8664 17.2463C47.9705 17.2463 47.2943 16.96 46.8547 16.4042C46.3983 15.8484 46.2631 15.1073 46.449 14.1979C46.6519 13.1537 47.159 12.3789 47.9705 11.8737C48.7819 11.3684 49.8469 11.0989 51.1824 11.0989H52.146C52.6024 11.0989 52.6701 11.0147 52.7546 10.661C52.8053 10.4252 52.856 9.98735 52.8729 9.70103C52.8729 9.70103 52.9067 9.22945 52.687 8.94314C52.4672 8.65682 52.0953 8.52208 51.5712 8.52208C50.2188 8.52208 50.016 9.29682 49.83 9.61682C49.7286 9.80208 49.661 9.85261 49.3905 9.85261C49.2045 9.85261 49.3398 9.85261 48.1226 9.85261C47.8352 9.85261 47.7169 9.59998 47.8352 9.26314C47.8352 9.26314 48.2241 8.23577 49.0524 7.64629C49.8807 7.05682 50.8781 6.75366 52.0615 6.75366C53.0927 6.75366 53.921 7.05682 54.5127 7.66314C55.1044 8.26945 55.3072 9.1284 55.0875 10.2231L53.9379 16.4716C53.8872 16.7579 53.6167 17.0105 53.3294 17.0273H52.0784V17.0442ZM49.7286 15.4273C50.1343 15.4273 50.5569 15.3095 50.9965 15.0905C51.4191 14.8716 51.8248 14.7537 52.0108 14.0968L52.2643 13.0189C52.332 12.6821 52.4165 12.5137 52.1291 12.5137H51.3684C51.081 12.5137 50.6246 12.5473 50.3372 12.5979C50.3372 12.5979 49.8469 12.6821 49.4412 13.0021C49.0355 13.3389 48.7819 13.7095 48.6974 14.1473C48.6129 14.5516 48.6467 14.8716 48.8157 15.0905C49.0017 15.3263 49.2891 15.4273 49.7286 15.4273Z" fill="#053E6E"/>
<path d="M63.8104 8.06735C64.5542 7.19156 65.5516 6.75366 66.7519 6.75366C67.2759 6.75366 67.7324 6.87156 68.155 7.10735C68.4931 7.29261 68.7636 7.56208 69.0172 7.88208C69.1862 8.08419 69.2369 7.8484 69.2369 7.8484L69.3215 7.44419C69.3891 7.17471 69.6765 6.93892 69.9469 6.93892H70.9612C71.2486 6.93892 71.4346 7.17471 71.3839 7.44419L69.6088 16.32C68.6283 20.5979 66.194 21.2379 64.2669 21.12C63.8442 21.0863 63.354 21.0526 62.8299 20.9179C62.3904 20.8 62.1537 20.7326 61.8156 20.5473C61.748 20.5137 61.4775 20.3621 61.6804 19.9242C61.7987 19.6884 62.103 19.0484 62.103 19.0484C62.2214 18.7958 62.5087 18.6947 62.7623 18.8295C62.7623 18.8295 63.0497 18.9473 63.4554 19.0652C63.8611 19.1663 64.1992 19.2 64.6388 19.2C65.315 19.2 65.8897 18.981 66.3462 18.56C66.8026 18.1389 67.1069 17.5494 67.259 16.8252L67.2759 16.7747C67.3267 16.5052 67.1914 16.4042 66.9717 16.5895C66.9717 16.5895 66.6505 16.8252 66.2617 16.9937C65.8559 17.1621 65.4333 17.2463 64.9938 17.2463C63.9119 17.2463 63.0835 16.7579 62.5256 15.7642C61.9678 14.7873 61.8664 13.3726 62.1537 11.941C62.1537 11.9579 62.6271 9.4484 63.8104 8.06735ZM64.3852 11.9579C64.3683 12.0589 64.3176 12.3789 64.3007 12.6652C64.3007 12.6652 64.1823 13.9284 64.419 14.5179C64.6557 15.1073 65.1459 15.3937 65.8559 15.3937C66.2447 15.3937 66.6336 15.2926 66.9548 15.0737C67.276 14.8547 67.6648 14.5852 67.8507 13.861L68.5945 10.1389C68.7298 9.43156 68.341 9.04419 68.0705 8.85893C67.7831 8.67366 67.445 8.58945 67.0224 8.58945C66.3631 8.58945 65.8221 8.89261 65.3657 9.49892C64.9262 10.1389 64.5881 10.9473 64.3852 11.9579Z" fill="#053E6E"/>
<path d="M88.8298 16.0674C88.1198 16.8758 87.1394 17.2463 85.9729 17.2463C85.4658 17.2463 85.0093 17.1452 84.6036 16.96C84.2993 16.8084 84.0288 16.6231 83.8091 16.3874C83.7414 16.3031 83.5555 16.32 83.5217 16.5389C83.471 16.7579 82.7441 20.4463 82.7441 20.4463C82.6933 20.7326 82.406 20.9516 82.1186 20.9516H80.9183C80.6309 20.9516 80.445 20.7158 80.4957 20.4463L83.0991 7.47788C83.1498 7.19156 83.4372 6.97262 83.7245 6.97262H84.7896C85.0769 6.97262 85.2629 7.19156 85.2291 7.46104C85.1784 7.73051 85.3136 7.79788 85.5334 7.61262C85.5334 7.61262 85.9053 7.29262 86.3279 7.09051C86.7674 6.88841 87.2239 6.78735 87.7141 6.78735C88.8129 6.78735 89.6244 7.3263 90.1484 8.38735C90.6725 9.46525 90.7401 10.981 90.4358 12.5474C90.4189 12.5305 89.9963 14.7368 88.8298 16.0674ZM88.1875 12.5305C88.2044 12.4295 88.2551 12.1095 88.272 11.8231C88.272 11.8231 88.4241 10.3579 88.1875 9.66735C87.9508 8.97683 87.4774 8.63999 86.7505 8.63999C85.6855 8.63999 84.9586 9.41472 84.7896 10.0884L84.0288 13.8779C83.9105 14.6695 84.2317 15.0568 84.5191 15.2084C84.8065 15.3768 85.1615 15.4442 85.6179 15.4442C86.2772 15.4442 86.8182 15.1916 87.2577 14.6695C87.6972 14.1305 88.0015 13.4231 88.1875 12.5305Z" fill="#053E6E"/>
<path fill-rule="evenodd" clip-rule="evenodd" d="M104.416 12.8505C104.45 13.1369 104.568 13.1537 104.703 12.9011L107.493 7.41055C107.628 7.15792 107.966 6.95581 108.253 6.95581H109.673C109.961 6.95581 110.079 7.15792 109.944 7.41055L104.213 18.139C104.078 18.3916 103.841 18.7958 103.689 19.0316C103.689 19.0316 103.114 19.9074 102.54 20.3958C101.559 21.2548 100.342 21.1874 99.6488 21.0527C99.26 20.9684 99.4121 20.6484 99.4121 20.6484L99.7333 19.6884C99.8179 19.419 100.139 19.2169 100.41 19.2505C100.41 19.2505 100.443 19.2505 100.528 19.2505C100.866 19.2505 101.204 19.099 101.508 18.7958C101.813 18.4927 102.066 18.1727 102.235 17.8527L102.506 17.3979C102.759 16.859 102.726 16.7242 102.692 16.4379L101.424 7.47792C101.39 7.1916 101.593 6.97265 101.863 6.97265H103.266C103.554 6.97265 103.807 7.20844 103.841 7.47792L104.416 12.8505Z" fill="#053E6E"/>
<path fill-rule="evenodd" clip-rule="evenodd" d="M61.6804 9.01052C59.9899 9.01052 59.3475 9.81894 59.1447 10.7789L57.9444 16.5558C57.8937 16.8421 57.6063 17.061 57.3189 17.061H56.1187C55.8313 17.061 55.6454 16.8421 55.6961 16.5558L57.5218 7.46105C57.5725 7.17473 57.8599 6.95578 58.1473 6.95578H59.3306C59.618 6.95578 59.804 7.17473 59.7364 7.46105L59.6687 7.79789C59.6011 8.06736 59.7195 8.13473 59.9054 7.91579C59.9054 7.91579 61.0719 6.83789 62.5257 6.83789C62.8131 6.83789 62.6947 7.07368 62.6947 7.07368L62.1369 8.75789C62.1369 8.75789 62.0692 9.01052 61.6804 9.01052Z" fill="#053E6E"/>
<path d="M77.2837 17.0442C76.9963 17.0442 76.8104 16.8252 76.8442 16.5558L76.9118 16.0673C76.9118 16.0673 76.8949 15.8652 76.7258 16.0168C76.4723 16.2358 75.9989 16.64 75.6101 16.8421C75.103 17.1116 74.5789 17.2463 74.0549 17.2463C73.1589 17.2463 72.4827 16.96 72.0432 16.4042C71.5867 15.8484 71.4515 15.1073 71.6374 14.1979C71.8403 13.1537 72.3475 12.3789 73.1589 11.8737C73.9703 11.3684 75.0353 11.0989 76.3708 11.0989H77.3344C77.7909 11.0989 77.8585 11.0147 77.943 10.661C77.9937 10.4252 78.0444 9.98735 78.0613 9.70103C78.0613 9.70103 78.0951 9.22945 77.8754 8.94314C77.6556 8.65682 77.2837 8.52208 76.7597 8.52208C75.4073 8.52208 75.2044 9.29682 75.0184 9.61682C74.917 9.80208 74.8494 9.85261 74.5789 9.85261C74.393 9.85261 74.5282 9.85261 73.311 9.85261C73.0237 9.85261 72.9053 9.59998 73.0237 9.26314C73.0237 9.26314 73.4125 8.23577 74.2408 7.64629C75.0692 7.05682 76.0666 6.75366 77.2499 6.75366C78.2811 6.75366 79.1095 7.05682 79.7011 7.66314C80.2928 8.26945 80.4957 9.1284 80.2759 10.2231L79.1264 16.4716C79.0756 16.7579 78.8052 17.0105 78.5178 17.0273H77.2837V17.0442ZM74.9339 15.4273C75.3396 15.4273 75.7623 15.3095 76.2018 15.0905C76.6244 14.8716 77.0301 14.7537 77.2161 14.0968L77.4697 13.0189C77.5373 12.6821 77.6218 12.5137 77.3344 12.5137H76.5737C76.2863 12.5137 75.8299 12.5473 75.5425 12.5979C75.5425 12.5979 75.0523 12.6821 74.6465 13.0021C74.2408 13.3389 73.9872 13.7095 73.9027 14.1473C73.8182 14.5516 73.852 14.8716 74.021 15.0905C74.207 15.3263 74.4944 15.4273 74.9339 15.4273Z" fill="#053E6E"/>
<path d="M96.9611 17.0442C96.6737 17.0442 96.4877 16.8252 96.5385 16.5558L96.6061 16.0673C96.6061 16.0673 96.5892 15.8652 96.4201 16.0168C96.1665 16.2358 95.6932 16.64 95.3044 16.8421C94.7972 17.1116 94.2732 17.2463 93.7491 17.2463C92.8532 17.2463 92.177 16.96 91.7374 16.4042C91.281 15.8484 91.1458 15.1073 91.3317 14.1979C91.5346 13.1537 92.0417 12.3789 92.8532 11.8737C93.6646 11.3684 94.7296 11.0989 96.0651 11.0989H97.0287C97.4851 11.0989 97.5528 11.0147 97.6373 10.661C97.688 10.4252 97.7387 9.98735 97.7556 9.70103C97.7556 9.70103 97.7894 9.22945 97.5697 8.94314C97.3499 8.65682 96.978 8.52208 96.4539 8.52208C95.1015 8.52208 94.8987 9.29682 94.7127 9.61682C94.6113 9.80208 94.5437 9.85261 94.2732 9.85261C94.0872 9.85261 94.2225 9.85261 93.0053 9.85261C92.7179 9.85261 92.5996 9.59998 92.7179 9.26314C92.7179 9.26314 93.1067 8.23577 93.9351 7.64629C94.7634 7.05682 95.7608 6.75366 96.9442 6.75366C97.9754 6.75366 98.8037 7.05682 99.3954 7.66314C99.9871 8.26945 100.19 9.1284 99.9702 10.2231L98.8206 16.4716C98.7699 16.7579 98.4994 17.0105 98.212 17.0273H96.9611V17.0442ZM94.6113 15.4273C95.017 15.4273 95.4396 15.3095 95.8792 15.0905C96.3187 14.8716 96.7075 14.7537 96.8935 14.0968L97.147 13.0189C97.2146 12.6821 97.2992 12.5137 97.0118 12.5137H96.2511C95.9637 12.5137 95.5073 12.5473 95.2199 12.5979C95.2199 12.5979 94.7296 12.6821 94.3239 13.0021C93.9182 13.3389 93.6646 13.7095 93.5801 14.1473C93.4956 14.5516 93.5294 14.8716 93.7153 15.0905C93.8675 15.3263 94.1718 15.4273 94.6113 15.4273Z" fill="#053E6E"/>
<path fill-rule="evenodd" clip-rule="evenodd" d="M13.197 7.71367C12.8081 7.3263 12.3348 7.07367 11.76 6.92209C11.6586 6.87157 11.591 6.78736 11.6248 6.63578L11.7093 6.1642C11.76 5.87788 11.5741 5.65894 11.2867 5.65894H10.6443C10.3569 5.65894 10.0864 5.89473 10.0357 6.1642L9.9512 6.58525C9.91739 6.77051 9.79905 6.83788 9.64691 6.88841C8.97071 7.0063 8.36213 7.27578 7.85498 7.66315C7.09425 8.23578 6.65472 8.95999 6.51948 9.83578C6.38424 10.6274 6.5702 11.2674 7.07735 11.7389C7.5845 12.2105 8.37903 12.5642 9.46095 12.8168C10.171 12.9853 10.6443 13.1874 10.8641 13.4063C11.0838 13.6253 11.1684 13.9284 11.1176 14.2653C11.05 14.6358 10.8641 14.9389 10.5429 15.1579C10.2217 15.3768 9.79905 15.4947 9.30881 15.4947C8.80166 15.4947 8.39594 15.36 8.07474 15.0905C7.85498 14.9053 7.73664 14.6358 7.70283 14.2989C7.66902 14.181 7.61831 13.8442 7.2633 13.8442C6.89139 13.8442 6.40115 13.8442 6.01233 13.8442C5.62352 13.8442 5.5559 14.1642 5.5559 14.2989C5.52209 14.9895 5.75876 15.6126 6.28281 16.1853C6.62091 16.5558 7.04354 16.8252 7.55069 16.9937H7.51688C7.78736 17.0779 8.02403 17.1116 7.95641 17.381L7.87188 17.8526C7.82117 18.1389 8.00712 18.3579 8.29451 18.3579H8.9369C9.22428 18.3579 9.49476 18.1221 9.54548 17.8526L9.63 17.4316C9.66381 17.2295 9.79905 17.1621 9.9681 17.1284C10.695 17.0105 11.3374 16.7747 11.8784 16.3874C12.656 15.8484 13.1293 15.1074 13.2646 14.1642C13.3998 13.3558 13.2139 12.6989 12.7236 12.2274C12.2334 11.7558 11.405 11.3853 10.2555 11.1326C9.52857 10.9642 9.07214 10.7958 8.86928 10.5937C8.66642 10.3916 8.58189 10.1053 8.64951 9.75157C8.70023 9.39788 8.88618 9.11157 9.19047 8.85894C9.49476 8.6063 9.86667 8.48841 10.34 8.48841C10.8303 8.48841 11.1853 8.63999 11.4219 8.9263C11.5741 9.11157 11.6248 9.29683 11.6586 9.48209C11.7431 9.85262 11.9629 10.0042 12.1996 10.0042H13.3322C13.7886 10.0042 13.8732 9.71788 13.8562 9.43157C13.8732 8.80841 13.6196 8.13472 13.197 7.71367Z" fill="#053E6E"/>
<path fill-rule="evenodd" clip-rule="evenodd" d="M19.3335 3.2C19.6039 2.93053 19.8575 3.14947 19.7899 3.40211L17.7951 13.3726C17.7275 13.7432 17.5922 14.3495 17.5246 14.72C17.5246 14.72 17.2059 16.3153 16.8735 18.0013L16.8288 18.2282L16.799 18.3797C16.66 19.0864 16.5225 19.7895 16.4089 20.3789C16.1215 21.8105 15.4622 22.8211 14.3465 23.4611C13.7379 23.8147 12.9772 24 12.2503 24H1.43108C1.05917 24 0.974645 23.7305 1.24513 23.4611L4.16969 20.5642C4.44017 20.2947 4.98113 20.0758 5.35304 20.0758H7.34782C7.73664 20.0758 7.82116 20.2947 7.55068 20.5642L6.87448 21.2379C6.4327 21.6938 6.40325 21.7241 6.52498 21.7262L6.54338 21.7263L6.55329 21.7263H11.5064C11.8784 21.7263 12.4869 21.6253 12.8419 21.4905C12.8419 21.4905 13.9915 21.0695 14.1943 20.0084C14.4648 18.6274 17.0344 6.02947 17.0344 6.02947C17.102 5.65895 17.3894 5.13684 17.6599 4.86737L19.3335 3.2ZM18.3699 0C18.7418 0 18.8263 0.269474 18.5558 0.538947L15.6313 3.41895C15.3608 3.68842 14.8198 3.90737 14.4479 3.90737H12.4531C12.0643 3.90737 11.9798 3.68842 12.2503 3.41895L12.9265 2.74526C13.3683 2.2894 13.3977 2.25901 13.276 2.25699L13.2576 2.25685L13.2477 2.25684H8.31141C7.9395 2.25684 7.33092 2.35789 6.97591 2.49263C6.97591 2.49263 5.82638 2.91368 5.62352 3.97474C5.35304 5.35579 2.78348 17.9537 2.78348 17.9537C2.71586 18.3242 2.42847 18.8463 2.15799 19.1158L0.467496 20.7832C0.197016 21.0526 -0.0565586 20.8337 0.0110613 20.5811L2.00585 10.6274C2.07347 10.2568 2.20871 9.65053 2.27633 9.28C2.27633 9.28 2.60464 7.63678 2.94233 5.92315L2.97214 5.77181L3.00195 5.62034L3.04656 5.39342C3.17018 4.76421 3.29063 4.14737 3.39206 3.62105C3.67944 2.18947 4.33874 1.17895 5.45447 0.538947C6.06305 0.185263 6.82377 0 7.55068 0H18.3699Z" fill="#053E6E"/>
</g>
<defs>
<clipPath id="clip0_5778_48">
<rect width="110" height="24" fill="white"/>
</clipPath>
</defs>
</svg>
