<?xml version="1.0" encoding="UTF-8"?>
<!DOCTYPE svg PUBLIC "-//W3C//DTD SVG 1.1//EN" "http://www.w3.org/Graphics/SVG/1.1/DTD/svg11.dtd">

<svg xmlns="http://www.w3.org/2000/svg"  width="283.01mm" height="62.2373mm" version="1.1" 
viewBox="0 0 6565.31 1443.79"
 
 >
 <defs>
  <style type="text/css">
   <![CDATA[
    .fil6 {fill:#001D3A;fill-rule:nonzero}
    .fil0 {fill:#0075B1;fill-rule:nonzero}
    .fil4 {fill:#009CDB;fill-rule:nonzero}
    .fil1 {fill:#7BC224;fill-rule:nonzero}
    .fil2 {fill:#D3DA00;fill-rule:nonzero}
    .fil3 {fill:#FF4D11;fill-rule:nonzero}
    .fil5 {fill:#FF7A00;fill-rule:nonzero}
   ]]>
  </style>
 </defs>
 <g id="Camada_x0020_1">
  
  <path class="fil0" d="M6036.68 735.85c54.31,-66.5 126.2,-87.1 194.09,-73.86 28.23,-23.27 61.68,-49.87 102.62,-82.18 2.82,-2.2 5.52,-4.44 8.32,-6.65l-0.18 -0.08c-134.83,-62.57 -276.17,-28.76 -357.09,57.78 -3.59,4.07 -7.29,8.08 -10.75,12.34 -4.01,4.74 -8.3,9.81 -12.76,14.48 4.83,5.66 34.74,39.67 74.5,79.74 0.39,-0.52 0.89,-1.1 1.23,-1.56z"/>
  <path class="fil1" d="M5961.38 657.39c-0.61,0.66 0.39,-0.44 -0.09,0.22 -104.15,-130.02 -217.99,-341.75 -48.33,-526.21 -127.23,106.81 -233.57,284.76 -267.33,444.75 -76.57,362.16 111,570.69 277.2,672.79 -167.77,-139.75 -118.98,-400.43 38.56,-591.56z"/>
  <path class="fil2" d="M5961.29 657.6l-1.52 1.8c0.52,-0.71 1,-1.36 1.61,-2.02 168.34,-199.02 465.97,-427.81 374.47,-558.7 -58.6,-83.57 -188.88,-87.68 -265.75,-63.29 -2.84,1.15 -5.82,2.36 -8.71,3.68 -54.77,24.18 -104.73,54.33 -148.44,92.32 -169.66,184.46 -55.82,396.19 48.33,526.21z"/>
  <path class="fil3" d="M6341.72 573.16c-2.8,2.22 -5.51,4.45 -8.32,6.64 -40.94,32.32 -74.39,58.92 -102.62,82.19 369.56,71.14 324.09,630.11 -83.01,649.2 -53.24,2.6 -106.97,-8.56 -140.25,-19.9 4.72,1.84 11.69,4.29 15.84,5.74 245.6,82.02 469.5,-41.88 525.56,-251.59 52.56,-196.58 -22.54,-386.36 -207.2,-472.27z"/>
  <path class="fil4" d="M6070.1 35.39c76.87,-24.39 207.14,-20.28 265.76,63.29 87.46,124.97 -180.62,339.5 -351.41,532.17 80.92,-86.54 222.26,-120.35 357,-57.78 0,0 0.09,0 0.27,0.07 488.61,-390.12 58.75,-676.19 -271.62,-537.77z"/>
  <path class="fil4" d="M5962.15 960.73c-0.18,-0.29 -0.39,-0.57 -0.39,-0.57 -65.76,-116.63 -54.2,-224.68 0.26,-301.97 0.36,0.45 0.88,1.02 1.49,1.74 -1.16,-1.44 -1.97,-2.31 -2.13,-2.39l-0.09 0.08c0,0 0.09,-0.08 0.09,-0.22l-0.09 0.14 -0.12 0.08c-157.22,190.91 -206.01,451.11 -38.74,590.97 2.3,1.46 4.67,3 6.95,4.57 12.5,7.43 38.75,22.43 65.67,33.23l0.09 0.08c-137.1,-56.1 -95.67,-215.79 -32.99,-325.73zm-0.97 -303.2l0 0.08 0.2 -0.22 -0.2 0.14z"/>
  <path class="fil3" d="M6274.43 935.28c6.28,-19.26 10.25,-47.43 9.43,-64.02 1.5,20.07 -17.21,108.08 -94.03,131.48 -82.1,25.07 -167.32,-35.08 -184.34,-110.49 -16.24,25.23 -32.65,50.49 -43.34,68.47 79.97,107.93 260.15,125.16 312.28,-25.45z"/>
  <path class="fil0" d="M6005.44 892.32c-13.21,-52.7 -4,-112.27 30.02,-154.89 -38.38,-38.59 -67.15,-71.62 -73.49,-79.01 -54.41,77.21 -65.95,185.26 -0.27,301.6 0,0 0.27,0.42 0.45,0.71 10.69,-17.98 27.1,-43.17 43.29,-68.41z"/>
  <path class="fil5" d="M6266.56 670.66c-2.66,-0.65 -5.39,-1.45 -8.14,-2.22 -2.06,-0.53 -4.2,-1.17 -6.36,-1.69 -2.35,-0.74 -4.78,-1.24 -7.05,-1.76 -4.7,-1.02 -9.36,-2.13 -14.23,-3l-1.96 0.74c0,0 -65.61,52.84 -124.04,112.81 26.58,-20.89 62.16,-29.58 97.22,-20.12 30.62,8.15 54.57,28.28 68.57,53.89 0.91,1.61 1.69,3.26 2.43,4.79 0.45,0.99 1.05,1.87 1.43,2.81 1.02,2.29 1.84,4.55 2.82,6.85 5.25,14.45 7.75,30.05 6.75,46 0,1.79 0,3.66 -0.14,5.49 0.14,16.9 -3.71,42.22 -9.43,60.01 -52.13,150.61 -232.31,133.38 -312.28,25.45 -62.68,109.94 -104.1,269.64 33.18,325.85 2.81,1.23 7.52,2.85 13.39,5 33.38,11.2 86.45,22.14 139.06,19.62 393.5,-18.44 449.09,-541.1 118.79,-640.52z"/>
  <path class="fil3" d="M6105.09 775.25c33.4,-34.05 69.1,-66.6 125.69,-113.26 -67.89,-13.24 -139.79,7.36 -194.09,73.86 -0.34,0.47 -0.84,1.04 -1.23,1.56 16.61,16.71 35.12,34.58 54.54,52 4.64,-5.16 9.71,-9.96 15.1,-14.17z"/>
  <path class="fil3" d="M6090.16 789.42c-19.76,-17.53 -38.38,-35.58 -55.04,-52.44l0.25 0.38c-34.4,42.25 -43.13,102.26 -29.92,154.97 21.05,-29.29 57.09,-73.78 79.11,-96.02 1.71,-2.53 3.59,-4.7 5.6,-6.88z"/>
  <path class="fil5" d="M6284.11 861.68c0.14,9.73 -1.09,19.62 -3.59,29.42l-0.13 0 0 0.22c-15.8,58.94 -76.42,94.05 -135.46,78.26l-0.1 0 -0.11 0c-59.14,-15.84 -94.26,-76.69 -78.48,-135.71 3.67,-14.05 10.04,-26.53 18.2,-37.51 -21.96,22.24 -57.95,66.68 -79.01,95.95l0 -0.06 -0.12 0.06 0.12 0.07 0.06 -0.14c17.02,75.41 102.23,135.57 184.34,110.5 72.84,-22.24 93.32,-102.27 94.02,-127.71 0.14,5.82 -0.31,12.66 -1.22,20.13 2.27,-15.34 2.05,-27.31 1.47,-33.49z"/>
  <path class="fil6" d="M391.94 1194.69l-3.27 0c-6,27.55 -22.18,50.36 -48.59,68.45 -26.41,18.09 -61.38,27.14 -104.93,27.14 -33.76,0 -65.05,-6.41 -93.9,-19.19 -28.87,-12.78 -53.77,-31.56 -74.72,-56.34 -20.96,-24.76 -37.29,-55.53 -48.99,-92.27 -11.71,-36.74 -17.55,-79.06 -17.55,-126.97 0,-47.36 5.98,-89.41 17.96,-126.15 11.97,-36.75 28.85,-67.64 50.63,-92.68 21.76,-25.03 47.89,-43.95 78.38,-56.74 30.48,-12.78 64.5,-19.19 102.07,-19.19 51.17,0 94.44,11.28 129.84,33.81 35.38,22.53 62.87,53.89 82.47,94.07l-75.12 43.98c-10.9,-26.79 -27.77,-48.51 -50.63,-65.18 -22.86,-16.68 -51.72,-25.02 -86.55,-25.02 -45.19,0 -81.53,14.48 -109.01,43.44 -27.5,28.96 -41.24,69.95 -41.24,122.95l0 93.44c0,53.01 13.74,93.99 41.24,122.95 27.48,28.96 63.82,43.45 109.01,43.45 17.96,0 35.12,-2.32 51.44,-6.98 16.34,-4.65 30.62,-11.48 42.87,-20.52 12.25,-9.03 22.05,-20.25 29.39,-33.66 7.35,-13.41 11.02,-29.14 11.02,-47.21l0 -44.34 -117.58 0 0 -79.2 206.58 0 0 303.76 -80.84 0 0 -85.79z"/>
  <path class="fil6" d="M578.1 1280.48l0 -424.6 89 0 0 81.65 4.09 0c5.97,-21.76 18.49,-40.83 37.56,-57.16 19.05,-16.33 45.44,-24.49 79.2,-24.49l23.69 0 0 85.73 -35.11 0c-35.4,0 -62.47,5.72 -81.25,17.15 -18.78,11.43 -28.18,28.31 -28.18,50.63l0 271.09 -89 0z"/>
  <path class="fil6" d="M1131.71 1210.26l-3.27 0c-3.81,10.34 -8.85,20.41 -15.11,30.21 -6.26,9.8 -14.17,18.38 -23.69,25.72 -9.53,7.35 -20.96,13.21 -34.29,17.55 -13.35,4.35 -28.72,6.54 -46.13,6.54 -44.1,0 -78.26,-14.15 -102.48,-42.46 -24.23,-28.29 -36.34,-68.85 -36.34,-121.66l0 -270.28 89 0 0 258.84c0,65.87 27.21,98.8 81.66,98.8 11.43,0 22.59,-1.5 33.48,-4.49 10.88,-2.99 20.54,-7.47 28.99,-13.47 8.43,-5.98 15.23,-13.6 20.41,-22.87 5.17,-9.25 7.76,-20.13 7.76,-32.66l0 -284.16 89 0 0 424.61 -89 0 0 -70.23z"/>
  <path class="fil6" d="M1517.11 1213.52c31.03,0 55.79,-9.93 74.31,-29.8 18.49,-19.86 27.76,-46.13 27.76,-78.79l0 -73.49c0,-32.66 -9.27,-58.92 -27.76,-78.79 -18.52,-19.87 -43.28,-29.8 -74.31,-29.8 -27.23,0 -50.09,6.67 -68.59,20 -18.51,13.35 -27.76,30.9 -27.76,52.67l0 145.35c0,21.78 9.25,39.33 27.76,52.67 18.5,13.34 41.36,20 68.59,20zm-185.35 -357.65l89.01 0 0 70.23 4.08 0c9.24,-25.58 24.36,-45.32 45.32,-59.2 20.95,-13.88 45.58,-20.82 73.89,-20.82 53.9,0 95.54,19.47 124.94,58.38 29.39,38.92 44.09,93.49 44.09,163.72 0,70.23 -14.7,124.8 -44.09,163.72 -29.41,38.92 -71.04,58.38 -124.94,58.38 -28.31,0 -52.94,-7.08 -73.89,-21.23 -20.96,-14.15 -36.08,-33.75 -45.32,-58.79l-4.08 0 0 233.53 -89.01 0 0 -587.91z"/>
  <path class="fil6" d="M1965.39 1215.97c30.48,0 54.98,-9.34 73.49,-28.01 18.5,-18.68 27.76,-46.69 27.76,-84.05l0 -71.47c0,-37.34 -9.26,-65.36 -27.76,-84.04 -18.51,-18.68 -43.01,-28.02 -73.49,-28.02 -30.49,0 -54.99,9.34 -73.48,28.02 -18.52,18.68 -27.77,46.7 -27.77,84.04l0 71.47c0,37.36 9.25,65.37 27.77,84.05 18.5,18.67 42.99,28.01 73.48,28.01zm0 74.31c-29.4,0 -56.21,-5.18 -80.43,-15.51 -24.23,-10.34 -44.78,-25.17 -61.65,-44.5 -16.87,-19.31 -29.94,-42.73 -39.19,-70.22 -9.27,-27.49 -13.88,-58.1 -13.88,-91.87 0,-33.74 4.61,-64.37 13.88,-91.85 9.25,-27.48 22.32,-50.9 39.19,-70.23 16.87,-19.31 37.42,-34.16 61.65,-44.5 24.22,-10.33 51.03,-15.51 80.43,-15.51 29.4,0 56.21,5.18 80.43,15.51 24.22,10.34 44.77,25.19 61.65,44.5 16.87,19.33 29.93,42.74 39.19,70.23 9.26,27.49 13.89,58.11 13.89,91.85 0,33.77 -4.63,64.38 -13.89,91.87 -9.26,27.49 -22.32,50.9 -39.19,70.22 -16.88,19.33 -37.43,34.17 -61.65,44.5 -24.22,10.33 -51.03,15.51 -80.43,15.51z"/>
  <path class="fil6" d="M2341.81 1201.28l158.41 0c23.95,0 42.74,-6.25 56.34,-18.78 13.6,-12.51 20.41,-30.48 20.41,-53.89l0 -27.76c0,-23.41 -6.81,-41.37 -20.41,-53.9 -13.61,-12.51 -32.39,-18.77 -56.34,-18.77l-158.41 0 0 173.1zm0 -249.86l142.9 0c22.86,0 40.54,-5.85 53.07,-17.56 12.52,-11.69 18.78,-28.44 18.78,-50.21l0 -26.13c0,-21.77 -6.26,-38.5 -18.78,-50.22 -12.53,-11.7 -30.22,-17.55 -53.07,-17.55l-142.9 0 0 161.68zm-92.27 -240.88l252.31 0c47.36,0 84.51,13.35 111.46,40.01 26.95,26.68 40.42,62.34 40.42,106.96 0,21.23 -3,39.34 -8.98,54.3 -6,14.97 -13.61,27.23 -22.87,36.74 -9.26,9.53 -19.88,16.61 -31.84,21.23 -11.98,4.63 -23.68,7.49 -35.11,8.58l0 4.9c11.43,0.55 24.09,3.26 37.97,8.16 13.88,4.9 26.81,12.66 38.78,23.27 11.97,10.61 22.05,24.23 30.21,40.83 8.17,16.61 12.25,36.89 12.25,60.83 0,22.86 -3.67,44.37 -11.02,64.5 -7.35,20.15 -17.55,37.56 -30.62,52.26 -13.06,14.7 -28.58,26.27 -46.54,34.71 -17.96,8.45 -37.56,12.65 -58.79,12.65l-277.63 0 0 -569.94z"/>
  <path class="fil6" d="M2931.36 1215.97c30.48,0 54.98,-9.34 73.49,-28.01 18.5,-18.68 27.76,-46.69 27.76,-84.05l0 -71.47c0,-37.34 -9.26,-65.36 -27.76,-84.04 -18.51,-18.68 -43.01,-28.02 -73.49,-28.02 -30.49,0 -54.99,9.34 -73.48,28.02 -18.52,18.68 -27.77,46.7 -27.77,84.04l0 71.47c0,37.36 9.25,65.37 27.77,84.05 18.49,18.67 42.99,28.01 73.48,28.01zm0 74.31c-29.4,0 -56.22,-5.18 -80.43,-15.51 -24.23,-10.34 -44.78,-25.17 -61.65,-44.5 -16.88,-19.31 -29.94,-42.73 -39.19,-70.22 -9.26,-27.49 -13.88,-58.1 -13.88,-91.87 0,-33.74 4.62,-64.37 13.88,-91.85 9.25,-27.48 22.32,-50.9 39.19,-70.23 16.87,-19.31 37.42,-34.16 61.65,-44.5 24.21,-10.33 51.03,-15.51 80.43,-15.51 29.39,0 56.2,5.18 80.43,15.51 24.21,10.34 44.76,25.19 61.65,44.5 16.87,19.33 29.94,42.74 39.19,70.23 9.26,27.49 13.89,58.11 13.89,91.85 0,33.77 -4.63,64.38 -13.89,91.87 -9.26,27.49 -22.33,50.9 -39.19,70.22 -16.88,19.33 -37.43,34.17 -61.65,44.5 -24.23,10.33 -51.04,15.51 -80.43,15.51z"/>
  <path class="fil6" d="M3324.12 1280.48c-31.03,0 -54.44,-8.02 -70.23,-24.08 -15.8,-16.06 -23.68,-38.79 -23.68,-68.19l0 -259.65 -66.14 0 0 -72.67 35.93 0c14.7,0 24.9,-3.27 30.62,-9.8 5.71,-6.53 8.57,-17.15 8.57,-31.84l0 -74.31 80.02 0 0 115.96 89.01 0 0 72.67 -89.01 0 0 279.25 82.48 0 0 72.67 -77.57 0z"/>
  <path class="fil6" d="M3488.24 855.88l89 0 0 424.6 -89 0 0 -424.6zm44.9 -75.95c-18.51,0 -31.98,-4.35 -40.42,-13.06 -8.45,-8.7 -12.65,-19.87 -12.65,-33.48l0 -13.88c0,-13.6 4.21,-24.76 12.65,-33.48 8.44,-8.7 21.91,-13.07 40.42,-13.07 18.51,0 31.84,4.37 40.01,13.07 8.17,8.72 12.25,19.88 12.25,33.48l0 13.88c0,13.61 -4.09,24.78 -12.25,33.48 -8.17,8.71 -21.51,13.06 -40.01,13.06z"/>
  <path class="fil6" d="M3852.41 1290.28c-30.49,0 -57.7,-5.18 -81.66,-15.52 -23.95,-10.33 -44.09,-25.17 -60.42,-44.49 -16.33,-19.32 -28.86,-42.74 -37.56,-70.23 -8.72,-27.48 -13.06,-58.1 -13.06,-91.86 0,-33.75 4.35,-64.37 13.06,-91.86 8.71,-27.48 21.24,-50.89 37.56,-70.22 16.34,-19.32 36.47,-34.16 60.42,-44.5 23.95,-10.34 51.16,-15.52 81.66,-15.52 42.46,0 77.29,9.53 104.51,28.58 27.22,19.06 47.08,44.37 59.61,75.94l-73.49 34.3c-6,-19.6 -16.47,-35.24 -31.43,-46.95 -14.98,-11.7 -34.71,-17.56 -59.2,-17.56 -32.66,0 -57.29,10.17 -73.9,30.54 -16.61,20.36 -24.9,46.82 -24.9,79.38l0 75.73c0,32.57 8.29,59.04 24.9,79.4 16.61,20.36 41.24,30.53 73.9,30.53 26.13,0 46.95,-6.39 62.47,-19.18 15.51,-12.78 27.89,-29.81 37.15,-51.04l67.77 35.93c-14.16,34.98 -35.39,61.83 -63.7,80.53 -28.31,18.71 -62.87,28.07 -103.7,28.07z"/>
  <path class="fil6" d="M4245.98 805.25l-55.53 -26.94 74.31 -146.98 77.57 37.56 -96.36 136.37zm-26.12 417.26c27.76,0 50.63,-6.13 68.58,-18.37 17.97,-12.25 26.95,-28.71 26.95,-49.41l0 -61.24 -75.12 0c-61.53,0 -92.27,19.06 -92.27,57.16l0 14.69c0,19.07 6.39,33.36 19.19,42.87 12.78,9.53 30.34,14.29 52.67,14.29zm179.63 57.97c-23.41,0 -41.38,-6.66 -53.89,-20.01 -12.53,-13.33 -20.15,-30.34 -22.87,-51.03l-4.08 0c-8.17,26.68 -23.14,46.83 -44.9,60.43 -21.79,13.6 -48.18,20.41 -79.21,20.41 -44.09,0 -77.98,-11.43 -101.66,-34.29 -23.68,-22.86 -35.52,-53.62 -35.52,-92.27 0,-42.46 15.38,-74.31 46.13,-95.54 30.76,-21.23 75.81,-31.84 135.14,-31.84l76.76 0 0 -35.93c0,-26.13 -7.08,-46.26 -21.23,-60.43 -14.16,-14.15 -36.21,-21.23 -66.14,-21.23 -25.04,0 -45.46,5.45 -61.24,16.33 -15.8,10.89 -29.13,24.77 -40.01,41.64l-53.08 -48.18c14.15,-23.95 34.02,-43.68 59.61,-59.19 25.58,-15.52 59.06,-23.27 100.43,-23.27 54.98,0 97.17,12.8 126.57,38.38 29.4,25.59 44.1,62.34 44.1,110.23l0 213.12 44.9 0 0 72.67 -49.81 0z"/>
  <path class="fil6" d="M4520.34 1280.48l0 -424.6 89 0 0 81.65 4.09 0c5.98,-21.76 18.5,-40.83 37.56,-57.16 19.05,-16.33 45.45,-24.49 79.2,-24.49l23.68 0 0 85.73 -35.11 0c-35.39,0 -62.47,5.72 -81.25,17.15 -18.78,11.43 -28.18,28.31 -28.18,50.63l0 271.09 -89 0z"/>
  <path class="fil6" d="M4816.75 855.88l89 0 0 424.6 -89 0 0 -424.6zm44.9 -75.95c-18.5,0 -31.98,-4.35 -40.42,-13.06 -8.44,-8.7 -12.65,-19.87 -12.65,-33.48l0 -13.88c0,-13.6 4.22,-24.76 12.65,-33.48 8.44,-8.7 21.92,-13.07 40.42,-13.07 18.51,0 31.85,4.37 40.02,13.07 8.17,8.72 12.24,19.88 12.24,33.48l0 13.88c0,13.61 -4.08,24.78 -12.24,33.48 -8.17,8.71 -21.51,13.06 -40.02,13.06z"/>
  <path class="fil6" d="M5183.37 1215.97c30.48,0 54.98,-9.34 73.49,-28.01 18.5,-18.68 27.76,-46.69 27.76,-84.05l0 -71.47c0,-37.34 -9.26,-65.36 -27.76,-84.04 -18.51,-18.68 -43.01,-28.02 -73.49,-28.02 -30.49,0 -54.99,9.34 -73.48,28.02 -18.52,18.68 -27.77,46.7 -27.77,84.04l0 71.47c0,37.36 9.25,65.37 27.77,84.05 18.5,18.67 42.99,28.01 73.48,28.01zm0 74.31c-29.4,0 -56.21,-5.18 -80.43,-15.51 -24.23,-10.34 -44.78,-25.17 -61.65,-44.5 -16.87,-19.31 -29.94,-42.73 -39.19,-70.22 -9.27,-27.49 -13.88,-58.1 -13.88,-91.87 0,-33.74 4.61,-64.37 13.88,-91.85 9.25,-27.48 22.32,-50.9 39.19,-70.23 16.87,-19.31 37.42,-34.16 61.65,-44.5 24.22,-10.33 51.03,-15.51 80.43,-15.51 29.4,0 56.21,5.18 80.43,15.51 24.22,10.34 44.77,25.19 61.65,44.5 16.87,19.33 29.93,42.74 39.19,70.23 9.26,27.49 13.89,58.11 13.89,91.85 0,33.77 -4.63,64.38 -13.89,91.87 -9.26,27.49 -22.32,50.9 -39.19,70.22 -16.88,19.33 -37.43,34.17 -61.65,44.5 -24.22,10.33 -51.03,15.51 -80.43,15.51z"/>
 </g>
</svg>