<svg class="logo-desk logo-sicredi gtag-click-trigger" data-gtag-action="logo" data-gtag-label="logo" viewBox="0 0 145 34" width="145" xmlns="http://www.w3.org/2000/svg">
<path d="M25.1965 15.2486C24.2035 16.0664 23.4636 16.2027 23.1326 15.8717C22.9185 15.6575 22.8795 15.2292 23.0353 14.684C23.561 12.9511 23.9698 11.1988 24.3008 9.42702C26.2868 8.55086 28.2728 7.73311 30.4729 7.51894C29.441 10.3421 27.5524 13.2821 25.1965 15.2486ZM24.184 21.0702C22.9379 20.8171 22.3538 20.272 22.3928 19.7852C22.4122 19.4737 22.7043 19.1622 23.2105 18.948C24.7681 18.286 26.3063 17.5656 27.7665 16.6894C29.6941 17.624 31.5438 18.8117 33.0235 20.3109C30.3172 21.3234 26.9877 21.6544 24.184 21.0702ZM19.0439 24.1465C18.4403 22.9004 18.4987 22.0438 18.8881 21.7517C19.1607 21.557 19.589 21.5959 20.0758 21.8685C21.5945 22.7252 23.1326 23.504 24.7681 24.1465C24.7681 24.1465 24.7681 24.1465 24.7681 24.166C25.3522 26.5024 25.7027 28.9557 25.5469 31.37C22.8406 29.6566 20.3873 26.9308 19.0439 24.1465ZM13.2223 21.9075C13.9037 20.5445 14.6241 20.0188 15.1109 20.1746C15.4419 20.272 15.6755 20.6419 15.7534 21.2455C16.026 23.1536 16.4349 25.0227 16.9216 26.8724C15.2277 29.1504 13.417 31.3505 11.1389 33.1418C10.8858 29.4619 11.5868 25.2369 13.2223 21.9075ZM11.4699 15.6186C13.0081 15.307 13.8453 15.5602 14.04 16.0469C14.1568 16.3584 14.0011 16.7868 13.5727 17.2541C12.1319 18.7533 10.8079 20.3304 9.54238 21.9659H9.52291C6.42714 22.18 3.19508 22.0632 0.157715 21.3428C3.25349 18.7338 7.43959 16.4168 11.4699 15.6186ZM15.4029 10.5174C16.5517 11.5103 16.8632 12.2892 16.6101 12.7175C16.4349 12.9901 16.026 13.1264 15.4029 13.068C13.3391 12.8343 11.2752 12.737 9.19192 12.737C7.22542 10.4784 5.43416 7.96676 4.28541 5.26039C8.19893 6.13655 12.4045 7.96676 15.4029 10.5174ZM21.5166 10.5952C21.5166 11.9971 21.1272 12.698 20.6599 12.737C20.3484 12.7759 19.9979 12.5228 19.6669 12.0166C18.6155 10.3811 17.4668 8.80398 16.2402 7.26583C16.7074 4.81257 17.4668 2.32038 18.7713 0.15918C20.4068 3.29389 21.5361 7.11006 21.5166 10.5952Z"></path>
<path clip-rule="evenodd" d="M16.239 7.24661C16.7063 4.81283 17.4656 2.32064 18.7701 0.159439C15.9859 -0.229966 13.1237 0.101028 10.5147 1.07454C12.1113 2.63216 13.6884 4.20925 15.1097 5.90317C15.2757 6.10406 15.4534 6.31279 15.6288 6.51881C15.8444 6.77204 16.0565 7.02116 16.239 7.24661ZM25.0594 2.36028C24.9426 4.22942 24.8063 6.0791 24.5337 7.9093C24.5013 8.11212 24.4688 8.33183 24.4364 8.55155C24.3909 8.85915 24.3455 9.16676 24.3001 9.42798C26.286 8.55182 28.272 7.73407 30.4721 7.5199C29.0898 5.43658 27.2401 3.66479 25.0594 2.36028ZM32.9049 13.1462C31.6393 14.1392 30.3348 15.1127 28.9524 15.9499C28.7762 16.0556 28.5921 16.1733 28.4089 16.2903L28.4088 16.2904C28.1873 16.4319 27.9673 16.5725 27.7647 16.6898C29.6923 17.6243 31.542 18.812 33.0217 20.3112C33.3722 17.8385 33.3527 15.6189 32.9049 13.1462ZM26.1083 24.6527C27.627 25.2174 29.2041 25.6457 30.7811 26.0351C29.4766 28.1379 27.6854 29.9876 25.5631 31.37C25.7189 28.9557 25.3684 26.5024 24.7843 24.166V24.1465C25.1076 24.292 25.5115 24.4375 25.8845 24.5719L25.8847 24.572L25.8848 24.572C25.9609 24.5994 26.0357 24.6263 26.1083 24.6527ZM19.3922 33.7646C18.6524 31.9928 17.9514 30.2015 17.3868 28.4103C17.3464 28.2789 17.3034 28.1424 17.2597 28.0039L17.2597 28.0036L17.2596 28.0035L17.2596 28.0034L17.2596 28.0034C17.1351 27.6085 17.006 27.1986 16.9195 26.8527C15.2256 29.1307 13.4149 31.3308 11.1563 33.1221C13.8822 33.9204 16.5496 34.2708 19.3922 33.7646ZM8.47152 23.4658C7.14754 25.3154 5.94039 27.3014 4.79164 29.2874C2.53309 27.0872 0.936531 24.3224 0.157721 21.3435C3.19508 22.0639 6.42714 22.1807 9.52292 21.9665H9.54239C9.34379 22.2352 9.12416 22.546 8.90454 22.8567L8.90438 22.857L8.90419 22.8572C8.75789 23.0642 8.6116 23.2712 8.47152 23.4658ZM0 13.3987C2.43378 13.1066 4.88704 12.8535 7.30135 12.7756C7.50564 12.7693 7.72039 12.7608 7.93601 12.7523L7.93616 12.7523C8.37808 12.7348 8.82359 12.7172 9.18996 12.7172C7.204 10.4782 5.4322 7.96649 4.28346 5.26013C2.12226 7.53815 0.642519 10.3808 0 13.3987Z" fill-rule="evenodd"></path>
<path clip-rule="evenodd" d="M42.5429 11.2948C42.0951 14.6048 43.3023 16.5713 46.6122 17.8563L50.9735 19.5113C52.3559 19.998 52.6675 20.2317 52.4922 21.5557C52.2196 23.2496 51.5382 23.6974 48.4813 23.6974H41.0826L40.4207 28.1171H48.6955C55.1402 28.1171 57.3209 26.6763 57.9634 21.9061C58.3722 18.9077 57.8271 16.7465 53.8551 15.2862L49.7274 13.7675C48.1309 13.2029 47.8388 12.9693 48.053 11.6453C48.2866 10.1655 48.8708 9.83455 50.0584 9.75667H58.8979L59.5599 5.33691H51.6745C46.3007 5.33691 43.2633 6.29096 42.5429 11.2948ZM67.6595 9.75667L68.3021 5.33691H62.9477L62.2857 9.75667H67.6595ZM64.9533 28.0976H59.5989L61.9548 12.0151H67.3286L64.9533 28.0976ZM78.1552 11.5683C75.1178 11.5683 73.015 12.1718 71.5937 13.4764C70.1724 14.7614 69.3546 16.7084 68.8873 19.8237C68.42 22.9194 68.8095 25.1001 70.0945 26.4825C71.3211 27.826 73.385 28.4685 76.4418 28.4685C77.941 28.4685 80.1411 28.3322 82.1076 27.7091L82.2439 27.6702L82.8086 23.8735L82.4581 23.9319C81.0757 24.1266 79.3429 24.2045 77.2985 24.2045C75.8966 24.2045 75.1762 24.0487 74.7868 23.6204C74.3001 23.0947 74.2027 22.0627 74.4753 20.0768C74.9426 16.3969 76.1497 15.8128 78.8366 15.8128C79.927 15.8128 83.9963 15.8712 83.9963 15.8712L84.522 12.2692C84.5193 12.2718 84.4759 12.2611 84.3928 12.2405C83.8578 12.108 81.6775 11.5683 78.1552 11.5683ZM98.131 12.0151H99.1629L98.9682 12.3656C97.469 14.7994 96.9822 16.8632 96.9822 16.8827L96.9433 17.0579H95.7945C94.3927 17.0579 92.5041 18.0315 91.8226 18.8492L90.5181 28.0976H85.1248L87.4807 12.0151H91.7447V15.1109C94.2369 12.9497 96.1645 12.0151 98.131 12.0151ZM115.537 17.2147C115.79 15.5207 115.517 14.2552 114.699 13.3595C113.609 12.1524 111.506 11.5683 108.294 11.5683C101.791 11.5683 99.3373 13.6126 98.5585 19.6874C98.1691 22.8026 98.6169 25.0028 99.9409 26.4046C101.226 27.787 103.368 28.4685 106.463 28.4685C108.644 28.4685 111.974 28.0791 114.076 27.2418L114.271 27.164L114.213 26.9693C114.213 26.9681 114.211 26.9621 114.208 26.9515C114.204 26.9375 114.198 26.9155 114.189 26.8862C114.093 26.5547 113.724 25.2896 113.59 24.1266L113.551 23.8735L113.298 23.9319C112.655 24.0877 108.683 24.2824 107.048 24.2824C105.139 24.2824 104.127 23.9319 104.01 22.0822L108.644 21.7512C112.499 21.4981 115.011 20.6414 115.537 17.2147ZM104.322 18.8696C104.808 16.2606 105.432 15.4429 107.963 15.4429H108.469C109.326 15.4429 109.91 15.5013 110.143 15.7544C110.299 15.9296 110.358 16.2217 110.319 16.7279C110.143 18.1492 109.403 18.4413 107.826 18.5581L104.322 18.8696ZM129.574 11.9372L130.547 5.35628L135.921 5.37575L132.553 28.117H128.25V25.5664C126.108 27.494 123.908 28.487 121.669 28.487C120.111 28.487 118.943 28.0586 118.125 27.163C116.859 25.8001 116.49 23.3663 116.996 19.7448C117.989 12.9497 120.637 11.5868 124.609 11.5868C126.186 11.5868 127.977 11.7036 129.574 11.9372ZM123.479 24.0867C125.115 24.0478 126.419 23.23 128.094 21.8087L129.028 15.3251H126.673C123.674 15.3251 123.032 15.695 122.447 19.8616C122.155 22.0034 122.058 23.3274 122.506 23.8141C122.701 24.0283 123.012 24.1062 123.479 24.0867ZM143.905 9.75667L144.548 5.33691H139.193L138.551 9.75667H143.905ZM141.199 28.0976H135.845L138.2 12.0151H143.574L141.199 28.0976Z" fill-rule="evenodd"></path>
</svg>