<svg width="394" height="394" viewBox="0 0 394 394" fill="none" xmlns="http://www.w3.org/2000/svg">
<g clip-path="url(#clip0_98_815)">
<path d="M220.339 182.656C200.015 147.454 155.003 135.393 119.801 155.717C84.5987 176.041 72.5376 221.053 92.8615 256.255L126.128 313.875C146.452 349.077 191.465 361.138 226.667 340.814C261.869 320.49 273.93 275.478 253.606 240.276L220.339 182.656Z" fill="#D80073"/>
<path d="M172.861 268.419C158.073 241.049 123.9 230.858 96.53 245.646L89.3855 249.507C90.4099 251.792 91.5656 254.025 92.8264 256.258L126.106 313.887C133.172 326.153 143.258 335.583 154.868 341.834C178.587 325.838 186.756 294.134 172.861 268.419Z" fill="#FF59C1"/>
<path d="M206.797 228.599L247.59 204.985C260.119 197.735 276.036 200.31 285.624 211.131C290.772 216.936 289.38 225.998 282.734 230.017L241.522 254.76" fill="white"/>
<path d="M206.797 228.599L247.59 204.985C260.119 197.735 276.036 200.31 285.624 211.131C290.772 216.936 289.38 225.998 282.734 230.017L241.522 254.76" stroke="#D80073" stroke-width="0.75" stroke-linecap="round" stroke-linejoin="round"/>
<path d="M334.795 171.574C303.643 181.608 270.126 164.403 260.119 133.251C250.085 102.099 267.29 68.5823 298.442 58.5747C329.594 48.5408 363.084 65.7455 373.118 96.8977C383.152 128.05 365.947 161.54 334.795 171.574ZM304.01 75.9369C282.419 82.8713 270.52 106.091 277.455 127.682C284.389 149.273 307.609 161.172 329.2 154.238C350.791 147.303 362.69 124.084 355.756 102.493C348.821 80.9013 325.602 69.0025 304.01 75.9369Z" fill="#FF59C1"/>
<path d="M263.218 237.661C260.25 238.606 256.94 238.449 253.946 236.899C247.957 233.826 245.62 226.497 248.666 220.535L282.971 153.66C286.044 147.697 293.372 145.333 299.335 148.38C305.324 151.454 307.661 158.782 304.614 164.745L270.31 231.619C268.787 234.614 266.186 236.689 263.218 237.635V237.661Z" fill="#FF59C1"/>
<path d="M316.618 161.855C342.455 161.855 363.399 140.911 363.399 115.074C363.399 89.2379 342.455 68.2933 316.618 68.2933C290.782 68.2933 269.837 89.2379 269.837 115.074C269.837 140.911 290.782 161.855 316.618 161.855Z" fill="white"/>
<path d="M342.491 106.721C343.41 109.585 343.831 112.5 343.778 115.363" stroke="#FFACE0" stroke-width="0.75" stroke-linecap="round" stroke-linejoin="round"/>
<path d="M315.489 88.3085C325.181 87.7044 334.532 92.4849 339.681 100.733" stroke="#FFACE0" stroke-width="0.75" stroke-linecap="round" stroke-linejoin="round"/>
<path d="M219.799 184.76L161.067 216.49C137.348 229.308 128.523 258.91 141.341 282.603C154.159 306.322 183.762 315.147 207.454 302.329L236.426 286.674C237.477 289.432 239.211 291.98 241.601 294.029C249.507 300.78 261.458 299.519 267.789 291.271L272.228 285.466C281.631 273.2 281.92 256.205 272.911 243.65C270.625 240.445 267.867 237.766 264.847 235.559C262.929 229.019 260.329 222.085 256.678 215.334C255.391 212.97 253.5 210.396 251.241 207.769" fill="white"/>
<path d="M219.799 184.76L161.067 216.49C137.348 229.308 128.523 258.91 141.341 282.603C154.159 306.322 183.762 315.147 207.454 302.329L236.426 286.674C237.477 289.432 239.211 291.98 241.601 294.029C249.507 300.78 261.458 299.519 267.789 291.271L272.228 285.466C281.631 273.2 281.92 256.205 272.911 243.65C270.625 240.445 267.867 237.766 264.847 235.559C262.929 229.019 260.329 222.085 256.678 215.334C255.391 212.97 253.5 210.396 251.241 207.769" stroke="#D80073" stroke-width="0.75" stroke-linecap="round" stroke-linejoin="round"/>
<path d="M252.213 207.06C263.586 202.91 274.644 204.512 278.059 209.634C283.365 217.593 294.108 219.721 302.04 214.415C309.999 209.109 312.179 198.313 306.821 190.433C292.506 168.947 260.381 163.641 232.145 178.088C231.83 178.246 213.39 188.227 212.944 188.49" fill="white"/>
<path d="M252.213 207.06C263.586 202.91 274.644 204.512 278.059 209.634C283.365 217.593 294.108 219.721 302.04 214.415C309.999 209.109 312.179 198.313 306.821 190.433C292.506 168.947 260.381 163.641 232.145 178.088C231.83 178.246 213.39 188.227 212.944 188.49" stroke="#D80073" stroke-width="0.75" stroke-linecap="round" stroke-linejoin="round"/>
<path d="M244.963 204.092C255.864 204.171 266.528 209.319 273.305 218.775C282.314 231.357 282.025 248.325 272.622 260.592L268.183 266.397" fill="white"/>
<path d="M244.963 204.092C255.864 204.171 266.528 209.319 273.305 218.775C282.314 231.357 282.025 248.325 272.622 260.592L268.183 266.397" stroke="#D80073" stroke-width="0.75" stroke-linecap="round" stroke-linejoin="round"/>
<path d="M244.569 228.993C255.47 229.072 266.134 234.22 272.911 243.676C281.92 256.258 281.631 273.226 272.228 285.492L267.789 291.297" fill="white"/>
<path d="M244.569 228.993C255.47 229.072 266.134 234.22 272.911 243.676C281.92 256.258 281.631 273.226 272.228 285.492L267.789 291.297" stroke="#D80073" stroke-width="0.75" stroke-linecap="round" stroke-linejoin="round"/>
<path d="M236.426 286.701L253.395 277.534" stroke="#D80073" stroke-width="0.75" stroke-linecap="round" stroke-linejoin="round"/>
</g>
<defs>
<clipPath id="clip0_98_815">
<rect width="394" height="394" fill="white"/>
</clipPath>
</defs>
</svg>
