<svg width="500" height="129" version="1.1" viewBox="0 0 500 129" xmlns="http://www.w3.org/2000/svg">
 <path d="m0 127.59c6.5077-25.293 29.461-44.015 56.806-44.015 22.024 0 35.808 12.182 35.808 12.182s-8.8158-10.675-22.088-17.119l-13.592-52.061-13.304 50.779c-13.464 1.8273-25.197 7.6617-32.602 13.817l24.107-79.022c1.9555-6.3794 7.822-10.739 14.49-10.739h14.298c6.668 0 12.567 4.3598 14.49 10.739l33.5 110.02c0.6412 1.7632 1.2182 3.5904 1.6991 5.4498h-30.326l-0.064-0.2244c-5.1933-9.2325-15.099-15.452-26.415-15.452s-20.998 6.0909-26.255 15.131l-0.1282 0.54497h-30.423zm463.1 0h-46.772v-26.351h45.522c6.5077 0 11.797-4.0392 11.797-10.515 0-6.0909-9.6493-9.9058-21.863-13.592-9.3928-2.821-34.334-10.322-34.334-37.571 0-21.03 15.42-38.148 38.148-38.148h39.302l-6.8924 26.351h-32.41c-6.5076 0-11.797 4.0392-11.797 10.515 0 6.0909 3.366 9.9058 15.58 13.592 9.3928 2.821 40.617 10.322 40.617 37.571 0 22.697-15.836 38.148-36.866 38.148m-312.66 0c-7.1489 0-13.047-1.09-17.696-3.2378-4.6483-2.1478-8.1105-5.5459-10.387-10.194-2.276-4.6483-3.3981-10.643-3.3981-18.016v-94.73h29.429v89.793c0 2.3722 0.3526 4.2957 1.0899 5.7703 0.7374 1.4746 1.8594 2.5646 3.3981 3.2378 1.5388 0.6732 3.3019 1.0258 5.3536 1.0258h38.277v26.351h-46.099zm242.32-108.42c-25.037-25.037-65.622-25.037-90.658 0-25.037 25.037-25.037 65.622 0 90.658 25.037 25.037 65.622 25.037 90.658 0s25.037-65.622 0-90.658m-18.914 71.777c-14.586 14.586-38.277 14.586-52.863 0-14.586-14.586-14.586-38.277 0-52.863 14.586-14.586 38.277-14.586 52.863 0s14.586 38.277 0 52.863m-136.37 36.642c-7.1488 0-13.047-1.09-17.696-3.2378s-8.1105-5.5459-10.387-10.194c-2.2761-4.6483-3.3981-10.643-3.3981-18.016v-94.73h29.429v89.793c0 2.3722 0.3527 4.2957 1.09 5.7703 0.7373 1.4746 1.8593 2.5646 3.3981 3.2378 1.5387 0.6732 3.3019 1.0258 5.3536 1.0258h38.277v26.351h-46.099z" fill="#006877"/>
</svg>
