<svg width="250" height="207" viewBox="0 0 250 207" fill="none" xmlns="http://www.w3.org/2000/svg">
<path d="M198.058 85.5006C192.662 52.4497 160.201 38.9417 136.16 48.4829C133.651 49.5677 130.88 48.3005 130.064 45.695C121.598 21.2853 91.3229 7.8841 61.5635 23.0696C30.9114 38.7398 40.6936 77.8152 41.6095 80.6897C41.7095 80.9587 41.7095 80.9588 41.7095 80.9588L74.0723 169.205C74.9727 171.626 77.5586 172.809 79.9827 171.908L166.937 138.236C167.122 138.321 205.008 126.852 198.058 85.5006Z" fill="#F1F1F1"/>
<path d="M102.979 66.3612C102.418 63.2561 100.987 60.374 98.8531 58.0499C96.7192 55.7258 93.9697 54.0551 90.9241 53.2319C87.8785 52.4087 84.6619 52.4668 81.6481 53.3995C78.6342 54.3322 75.9468 56.1012 73.8982 58.5009C73.5983 57.1816 72.9535 55.9656 72.0295 54.9774C71.1056 53.9892 69.9359 53.2642 68.6399 52.8765C67.3439 52.4888 65.9683 52.4524 64.6536 52.7711C63.339 53.0897 62.1325 53.7518 61.1577 54.6898C60.8524 54.0357 60.3659 53.483 59.7559 53.0973C59.1458 52.7115 58.4379 52.509 57.7162 52.5138C56.9945 52.5185 56.2894 52.7303 55.6845 53.124C55.0796 53.5177 54.6003 54.0768 54.3037 54.7349C54.0071 55.393 53.9055 56.1224 54.011 56.8365C54.1165 57.5506 54.4247 58.2194 54.899 58.7635C55.3733 59.3076 55.9937 59.7041 56.6866 59.906C57.3795 60.1078 58.1158 60.1065 58.808 59.9023C58.7491 61.2561 59.0512 62.6012 59.6832 63.7998C60.3153 64.9984 61.2546 66.0073 62.4049 66.7231C63.5552 67.439 64.8751 67.8361 66.2294 67.8736C67.5837 67.9112 68.9236 67.5879 70.1118 66.9369C69.6819 69.9652 70.0931 73.0534 71.3004 75.8636C72.5077 78.6738 74.4646 81.0977 76.957 82.87C79.4493 84.6424 82.381 85.6948 85.4313 85.9122C88.4816 86.1296 91.5329 85.5035 94.2513 84.1026C94.0291 92.344 99.1055 99.3588 107.968 103.36C119.84 108.72 129.131 113.805 138.065 94.0114C146.4 75.5793 138.145 68.1636 126.273 62.8003C117.962 59.0567 109.286 60.8789 102.979 66.3612Z" fill="#FF9598"/>
<path d="M241.641 70.3309C242.395 69.4833 243.092 68.5854 243.724 67.6433C245.003 65.3249 244.121 63.8163 242.701 62.8398C240.363 61.2518 237.124 61.5178 235.239 63.3161C234.417 64.1101 233.552 64.9636 232.679 65.8688C232.913 64.812 233.06 63.7379 233.119 62.6571C233.167 58.0124 227.317 55.5114 223.864 60.6722C223.07 61.8632 218.18 71.3591 208.638 73.4631L208.543 73.3996C207.987 66.3094 202.776 61.1486 202.776 61.1486C200.728 59.0684 198.323 60.5491 198.132 61.8552L195.322 74.539C194.89 76.5156 194.853 78.5585 195.215 80.5493C196.307 86.6471 196.501 88.0167 192.858 93.0187C189.706 97.3458 177.406 110.704 178.402 112.165C180.831 115.738 195.727 154.643 208.194 156.179L220.418 112.928C223.354 106.804 227.116 101.112 231.599 96.012C237.156 89.6602 244.824 80.7796 249.222 75.0114C251.924 71.4702 247.15 68.2944 241.641 70.3309Z" fill="#C07A9E"/>
<path d="M208.63 73.4854C208.988 76.2643 209.881 78.1817 212.353 80.0555C218.958 85.0575 218.605 90.0595 218.605 90.0595" fill="#C07A9E"/>
<path d="M218.609 90.4031H218.585C218.494 90.397 218.409 90.3551 218.349 90.2867C218.288 90.2183 218.258 90.1289 218.263 90.0379C218.263 89.9902 218.505 85.147 212.147 80.3315C209.766 78.5292 208.686 76.6197 208.293 73.5312C208.288 73.4861 208.291 73.4403 208.303 73.3966C208.315 73.3528 208.336 73.3119 208.364 73.2761C208.392 73.2404 208.427 73.2105 208.466 73.1882C208.506 73.1658 208.55 73.1515 208.595 73.1461C208.64 73.1406 208.686 73.1441 208.729 73.1563C208.773 73.1685 208.814 73.1892 208.85 73.2172C208.885 73.2452 208.915 73.28 208.938 73.3195C208.96 73.3591 208.974 73.4027 208.98 73.4478C209.349 76.3656 210.321 78.0806 212.552 79.7797C219.232 84.8373 218.958 89.8711 218.942 90.1014C218.932 90.1832 218.892 90.2586 218.831 90.314C218.77 90.3693 218.691 90.4009 218.609 90.4031Z" fill="#6A1857"/>
<path d="M241.549 70.2793C241.549 70.2793 234.27 74.7097 230.19 80.204L241.549 70.2793Z" fill="#AC709B"/>
<path d="M230.19 80.5301C230.116 80.531 230.043 80.5072 229.984 80.4626C229.947 80.4355 229.916 80.4015 229.893 80.3625C229.87 80.3235 229.854 80.2803 229.847 80.2353C229.841 80.1903 229.843 80.1444 229.854 80.1003C229.865 80.0562 229.885 80.0147 229.912 79.9783C233.989 74.5157 241.295 70.0536 241.367 70.002C241.445 69.9541 241.54 69.9393 241.629 69.9609C241.718 69.9825 241.795 70.0387 241.843 70.1171C241.891 70.1955 241.906 70.2898 241.884 70.3791C241.863 70.4685 241.806 70.5456 241.728 70.5935C241.653 70.6371 234.461 75.0358 230.468 80.3911C230.436 80.4342 230.394 80.4691 230.345 80.4932C230.297 80.5173 230.244 80.5299 230.19 80.5301Z" fill="#6A1857"/>
<path d="M232.515 65.9521C232.515 65.9521 227.57 71.248 223.355 75.0829L232.515 65.9521Z" fill="#AC709B"/>
<path d="M223.355 75.4406C223.307 75.4404 223.26 75.4304 223.217 75.4113C223.173 75.3922 223.134 75.3643 223.101 75.3294C223.07 75.2961 223.046 75.2568 223.03 75.2141C223.015 75.1713 223.008 75.1258 223.01 75.0803C223.012 75.0348 223.024 74.9902 223.043 74.9491C223.063 74.908 223.091 74.8713 223.125 74.8411C227.281 71.0618 232.218 65.7859 232.254 65.7343C232.316 65.6674 232.403 65.6282 232.495 65.6252C232.586 65.6222 232.675 65.6557 232.742 65.7184C232.809 65.781 232.848 65.8677 232.851 65.9592C232.854 66.0508 232.82 66.1398 232.758 66.2067C232.71 66.2583 227.753 71.5541 223.577 75.3374C223.519 75.3984 223.44 75.4353 223.355 75.4406Z" fill="#6A1857"/>
<path d="M217.148 71.2842C222.925 73.7442 228.084 77.4583 232.25 82.1577L217.148 71.2842Z" fill="#C07A9E"/>
<path d="M232.25 82.5034C232.201 82.5035 232.152 82.4929 232.108 82.4724C232.063 82.4518 232.024 82.4218 231.992 82.3843C227.854 77.738 222.744 74.0596 217.025 71.6101C216.939 71.5775 216.87 71.5121 216.832 71.4283C216.795 71.3446 216.792 71.2493 216.824 71.1635C216.857 71.0777 216.922 71.0084 217.006 70.9708C217.09 70.9332 217.185 70.9304 217.271 70.963C223.094 73.4565 228.298 77.2013 232.512 81.9318C232.571 82.001 232.6 82.0906 232.594 82.1813C232.587 82.2719 232.545 82.3563 232.476 82.4161C232.415 82.4729 232.334 82.5041 232.25 82.5034Z" fill="#6A1857"/>
<path d="M201.633 137.799C199.43 133.063 197.351 128.915 196.239 127.335C191.056 120.237 191.334 116.588 178.815 110.364C149.167 93.7616 132.378 111.245 103.924 115.624C93.4348 117.233 83.4925 121.363 74.9501 127.66C67.012 133.516 59.3637 140.281 58.2246 144.104C59.5265 149.006 57.2879 160.535 57.7841 166.228C59.5979 187.022 107.051 171.972 118.855 170.348C140.455 167.395 184.872 185.315 206.213 159.598C211.635 153.056 206.178 147.533 201.633 137.799Z" fill="#FF0D13"/>
<path d="M139.828 97.9883L141.268 112.677C141.443 123.737 110.481 125.583 110.489 122.669L110.624 94.8799L139.828 97.9883Z" fill="#C07A9E"/>
<path d="M146.134 89.9019C148.23 87.1667 148.349 85.1659 147.936 81.9622C147.416 77.9526 143.126 75.7613 140.296 80.0289L137.914 84.7649C134.418 89.3223 140.498 95.0548 144.821 91.2715C145.301 90.8582 145.741 90.3996 146.134 89.9019Z" fill="#C07A9E"/>
<path d="M129.25 71.5358C125.527 70.718 115.514 79.7971 110.433 76.6966C104.944 83.5525 108.774 92.6872 108.774 92.6872C108.881 93.4613 109.012 94.2037 109.171 94.9064H109.131C109.066 94.9187 109.003 94.944 108.948 94.9807C108.892 95.0175 108.845 95.065 108.808 95.1205C108.771 95.176 108.745 95.2383 108.733 95.3038C108.72 95.3693 108.721 95.4366 108.734 95.5018C109.453 99.17 114.101 109.146 128.544 107.249C128.719 107.225 142.765 105.379 142.479 92.7626C142.479 92.5522 142.162 90.206 142.106 89.0151C141.086 85.208 142.904 74.533 129.25 71.5358Z" fill="#C07A9E"/>
<path d="M109.171 94.9172H109.131C109.066 94.9295 109.003 94.9548 108.948 94.9915C108.892 95.0283 108.844 95.0758 108.807 95.1313C108.77 95.1868 108.745 95.2491 108.732 95.3146C108.72 95.3801 108.72 95.4474 108.734 95.5126C109.453 99.1808 114.1 109.157 128.544 107.259C128.718 107.236 142.765 105.39 142.479 92.7734" fill="#C07A9E"/>
<path d="M125.067 107.874C113.858 107.874 109.246 100.097 108.361 95.5678C108.317 95.3373 108.365 95.0986 108.496 94.9038C108.627 94.709 108.83 94.5738 109.06 94.5277C109.093 94.5236 109.126 94.5236 109.159 94.5277C109.241 94.5474 109.314 94.5925 109.369 94.6567C109.423 94.7208 109.456 94.8006 109.462 94.8845C109.468 94.9685 109.448 95.0522 109.403 95.1237C109.359 95.1951 109.293 95.2505 109.215 95.282H109.175C109.149 95.2904 109.127 95.3072 109.111 95.3296C109.099 95.3602 109.099 95.3943 109.111 95.4249C110.036 100.145 115.275 108.609 128.5 106.87C129.068 106.799 142.392 104.905 142.11 92.7691C142.107 92.7184 142.114 92.6677 142.131 92.6199C142.148 92.5721 142.174 92.5283 142.209 92.4911C142.243 92.4539 142.285 92.4242 142.332 92.4038C142.378 92.3833 142.428 92.3725 142.479 92.3721C142.577 92.3768 142.669 92.4175 142.739 92.4864C142.809 92.5553 142.85 92.6475 142.856 92.7452C142.979 98.0569 140.562 102.309 135.874 105.052C133.621 106.339 131.154 107.209 128.591 107.62C127.423 107.783 126.246 107.868 125.067 107.874Z" fill="#6A1857"/>
<path d="M105.515 95.3334C102.781 93.2373 102.15 91.3318 101.725 88.148C101.189 84.1384 104.769 80.9149 108.607 84.3051L112.116 88.275C116.672 91.7724 112.283 98.8825 107.131 96.3457C106.56 96.0637 106.018 95.7245 105.515 95.3334Z" fill="#C07A9E"/>
<path d="M142.955 90.4517C142.25 90.4539 141.568 90.1973 141.039 89.7305C140.511 89.2638 140.171 88.6192 140.086 87.919C140 87.2189 140.174 86.5116 140.575 85.9313C140.976 85.3509 141.576 84.9378 142.261 84.7701C142.946 84.6024 143.669 84.6919 144.292 85.0215C144.916 85.3511 145.397 85.8979 145.644 86.5585C145.892 87.2191 145.888 87.9475 145.635 88.6057C145.381 89.2639 144.895 89.8063 144.269 90.1301C143.863 90.3415 143.412 90.4518 142.955 90.4517ZM142.955 86.196C142.722 86.1969 142.492 86.2573 142.289 86.3715C142.086 86.4858 141.915 86.6502 141.793 86.849C141.671 87.0478 141.602 87.2745 141.592 87.5076C141.582 87.7407 141.632 87.9725 141.736 88.1809C141.817 88.3409 141.929 88.4833 142.065 88.5998C142.202 88.7163 142.36 88.8047 142.53 88.8598C142.719 88.9214 142.92 88.9411 143.117 88.9177C143.315 88.8942 143.505 88.8282 143.674 88.724C143.844 88.6199 143.988 88.4802 144.099 88.3146C144.209 88.149 144.282 87.9614 144.312 87.7648C144.343 87.5682 144.33 87.3674 144.276 87.1761C144.221 86.9848 144.125 86.8077 143.996 86.657C143.866 86.5063 143.705 86.3856 143.524 86.3033C143.343 86.221 143.146 86.1789 142.947 86.1801L142.955 86.196Z" fill="black"/>
<path d="M21.5271 109.395C20.9423 108.872 20.4868 108.22 20.1967 107.49C19.9065 106.761 19.7895 105.974 19.8549 105.192C19.9203 104.409 20.1663 103.653 20.5736 102.982C20.9808 102.311 21.5382 101.743 22.2018 101.324C22.2018 101.324 23.1981 88.3627 32.0093 89.6252L41.396 94.6471C43.1819 95.6237 45.2548 95.9394 47.2504 95.5386C49.2459 95.1378 51.0363 94.0462 52.3068 92.4557C52.4655 92.2746 52.599 92.073 52.7037 91.8562C52.7037 91.8562 55.1725 86.0444 55.9147 84.7462C59.4868 78.4897 66.123 80.2047 66.3055 82.9756C66.4207 84.778 63.1859 93.6189 60.7489 100.86C59.074 105.83 61.9079 111.225 65.3808 115.151L108.798 172.544L81.7291 177.649C74.9482 178.926 67.9345 177.852 61.8462 174.604C55.758 171.357 50.9593 166.129 48.2426 159.785L36.3752 132.071C35.5807 130.224 34.425 128.554 32.9759 127.159C31.5268 125.765 29.8136 124.675 27.9371 123.953L19.487 120.697C17.8994 120.332 20.646 117.029 19.9752 115.536C19.4968 114.489 19.3898 113.31 19.6719 112.193C19.9541 111.076 20.6085 110.089 21.5271 109.395Z" fill="#C07A9E"/>
<path d="M24.2537 99.5774L36.8514 104.703C37.4542 104.948 38.1061 105.05 38.7552 105C39.4044 104.95 40.0328 104.749 40.5907 104.413C41.1486 104.078 41.6206 103.616 41.9691 103.066C42.3177 102.516 42.5332 101.893 42.5985 101.245L42.6263 100.991C42.7017 100.266 42.5869 99.5339 42.2932 98.8669C41.9994 98.2 41.537 97.6212 40.9514 97.1876L32.0092 89.625C28.3815 86.8461 22.9757 88.0728 21.1738 92.2729C20.8604 92.9446 20.6911 93.6746 20.6768 94.4157C20.6624 95.1569 20.8033 95.8928 21.0904 96.5762C21.7102 97.9531 22.8463 99.0311 24.2537 99.5774Z" fill="#C07A9E"/>
<path d="M21.3405 108.657L34.9185 109.486C35.5671 109.526 36.2161 109.415 36.8141 109.16C37.4122 108.906 37.9428 108.516 38.3641 108.021C38.7853 107.526 39.0857 106.94 39.2413 106.309C39.3969 105.678 39.4035 105.019 39.2606 104.385L39.205 104.135C39.046 103.423 38.7038 102.766 38.2122 102.228C37.7207 101.689 37.0969 101.289 36.4029 101.066L25.504 96.7509C21.1777 95.2821 16.4467 98.1681 16.0815 102.706C15.9987 103.443 16.0714 104.189 16.295 104.896C16.5185 105.603 16.888 106.255 17.3794 106.811C18.4039 107.925 19.8281 108.589 21.3405 108.657Z" fill="#C07A9E"/>
<path d="M23.837 120.351L36.0933 114.448C36.6788 114.166 37.1906 113.751 37.5883 113.237C37.9861 112.723 38.2588 112.124 38.3851 111.486C38.5114 110.848 38.4877 110.19 38.3159 109.563C38.1441 108.936 37.8289 108.358 37.3952 107.874L37.2245 107.683C36.7385 107.141 36.1192 106.734 35.4279 106.505C34.7366 106.275 33.9974 106.23 33.2833 106.373L21.662 107.925C17.1691 108.755 14.4463 113.583 16.3515 117.735C16.6371 118.421 17.0639 119.039 17.6041 119.55C18.1443 120.06 18.7858 120.451 19.487 120.697C20.9261 121.157 22.4884 121.033 23.837 120.351Z" fill="#C07A9E"/>
<path d="M21.1619 121.058C20.5312 121.061 19.9045 120.958 19.3083 120.752C19.2489 120.746 19.1917 120.726 19.1409 120.695C19.0902 120.663 19.0472 120.621 19.0153 120.57C18.9833 120.52 18.9631 120.462 18.9562 120.403C18.9494 120.344 18.956 120.284 18.9756 120.227C18.9953 120.171 19.0274 120.119 19.0696 120.077C19.1118 120.035 19.163 120.003 19.2195 119.983C19.2759 119.963 19.336 119.956 19.3954 119.963C19.4547 119.97 19.5118 119.99 19.5623 120.022C20.9045 120.449 22.3606 120.334 23.6187 119.7L35.875 113.797C36.3516 113.571 36.7748 113.246 37.1169 112.845C37.4589 112.443 37.712 111.973 37.8595 111.467C38.0095 110.958 38.0517 110.424 37.9833 109.898C37.915 109.373 37.7376 108.867 37.4626 108.414C37.4155 108.334 37.3977 108.241 37.4122 108.15C37.4267 108.058 37.4726 107.975 37.542 107.914C38.0159 107.52 38.3865 107.017 38.6217 106.447C38.8569 105.878 38.9495 105.26 38.8915 104.647C38.8888 104.556 38.9173 104.467 38.9722 104.395C39.0271 104.323 39.105 104.271 39.1931 104.25C39.9709 104.077 40.6747 103.664 41.2048 103.069C41.7348 102.474 42.0641 101.727 42.1461 100.935L42.1738 100.681C42.2405 100.023 42.1355 99.3597 41.869 98.755C41.6026 98.1504 41.1838 97.6252 40.6537 97.2308L33.8627 91.3832C33.8091 91.3561 33.7623 91.3172 33.7259 91.2694C33.6895 91.2217 33.6644 91.1662 33.6525 91.1073C33.6406 91.0484 33.6423 90.9876 33.6573 90.9294C33.6724 90.8712 33.7004 90.8172 33.7394 90.7715C33.7783 90.7257 33.8271 90.6894 33.8821 90.6653C33.9371 90.6411 33.9969 90.6298 34.057 90.6321C34.117 90.6345 34.1757 90.6504 34.2287 90.6787C34.2817 90.7071 34.3275 90.747 34.3628 90.7957L41.1617 96.6036C41.7945 97.0791 42.2934 97.7104 42.6099 98.436C42.9263 99.1616 43.0496 99.9568 42.9676 100.744L42.9399 100.998C42.846 101.895 42.4893 102.745 41.9146 103.44C41.3398 104.135 40.5725 104.644 39.7091 104.905C39.7216 105.536 39.6032 106.162 39.3613 106.745C39.1195 107.328 38.7595 107.854 38.304 108.291C38.8386 109.341 38.9495 110.556 38.6136 111.685C38.4375 112.295 38.1343 112.861 37.7238 113.346C37.3134 113.83 36.805 114.222 36.2322 114.496L23.964 120.399C23.091 120.826 22.1334 121.051 21.1619 121.058Z" fill="#632B4B"/>
<path d="M39.2053 104.524C39.1548 104.523 39.1049 104.512 39.0584 104.492L20.9359 96.9493C20.8772 96.9392 20.8215 96.916 20.7729 96.8813C20.7244 96.8467 20.6843 96.8016 20.6555 96.7494C20.6268 96.6971 20.6102 96.6391 20.607 96.5795C20.6038 96.52 20.614 96.4605 20.637 96.4054C20.6599 96.3504 20.6949 96.3012 20.7395 96.2616C20.784 96.2219 20.8369 96.1928 20.8942 96.1764C20.9515 96.16 21.0118 96.1568 21.0706 96.1669C21.1293 96.177 21.185 96.2002 21.2336 96.2348L39.3561 103.778C39.4318 103.818 39.4925 103.881 39.5292 103.958C39.5658 104.036 39.5765 104.123 39.5595 104.207C39.5425 104.291 39.4989 104.367 39.435 104.424C39.3712 104.481 39.2906 104.516 39.2053 104.524Z" fill="#632B4B"/>
<path d="M21.527 109.781C21.4283 109.782 21.3329 109.745 21.2595 109.679C21.1861 109.613 21.14 109.522 21.1301 109.424C21.1297 109.324 21.1666 109.229 21.2335 109.155C21.3004 109.082 21.3924 109.036 21.4913 109.027L37.7643 107.836C37.8215 107.818 37.882 107.813 37.9414 107.822C38.0007 107.83 38.0573 107.852 38.107 107.886C38.1566 107.919 38.198 107.964 38.228 108.016C38.258 108.068 38.2758 108.126 38.2801 108.186C38.2844 108.246 38.2751 108.306 38.2529 108.361C38.2307 108.417 38.1961 108.467 38.1518 108.508C38.1075 108.548 38.0547 108.578 37.9972 108.595C37.9397 108.612 37.879 108.616 37.8198 108.606L21.5469 109.797L21.527 109.781Z" fill="#632B4B"/>
<path d="M131.985 89.1814C131.984 89.1596 131.984 89.1378 131.985 89.116C129.83 86.3621 126.478 85.8733 125.711 88.1383C124.155 85.1022 120.039 88.4826 119.922 88.7442C119.922 88.7442 119.922 88.7649 119.922 88.7752C119.767 93.4877 122.882 95.4636 125.952 95.6599C130.474 95.9903 131.565 91.2674 131.985 89.1814Z" fill="#640011"/>
<path d="M116.573 85.8264C116.454 85.8261 116.338 85.7872 116.243 85.7157C116.148 85.6441 116.079 85.5437 116.045 85.4295C116.021 85.3461 115.434 83.3373 116.442 81.8288C117.01 80.9753 117.942 80.4671 119.22 80.3242H119.328C119.943 80.3691 120.544 80.5361 121.095 80.8155C121.645 81.095 122.135 81.4813 122.534 81.9519C122.623 82.0626 122.666 82.2035 122.653 82.3449C122.639 82.4862 122.572 82.617 122.465 82.7096C122.357 82.8022 122.218 82.8495 122.076 82.8414C121.934 82.8334 121.801 82.7706 121.705 82.6664C121.096 81.9517 120.231 81.5054 119.296 81.4239C118.383 81.535 117.732 81.8725 117.363 82.4322C116.656 83.5001 117.109 85.1 117.113 85.1158C117.134 85.1849 117.14 85.2574 117.133 85.3291C117.126 85.4009 117.104 85.4705 117.07 85.5339C117.036 85.5973 116.989 85.6534 116.933 85.6988C116.877 85.7443 116.813 85.7782 116.744 85.7986C116.689 85.8173 116.631 85.8267 116.573 85.8264Z" fill="#1D1D1B"/>
<path d="M131.985 82.2885C131.985 81.1988 131.102 80.3154 130.012 80.3154C128.923 80.3154 128.04 81.1988 128.04 82.2885C128.04 83.3781 128.923 84.2615 130.012 84.2615C131.102 84.2615 131.985 83.3781 131.985 82.2885Z" fill="#1D1D1B"/>
</svg>
