<svg width="287" height="203" viewBox="0 0 287 203" fill="none" xmlns="http://www.w3.org/2000/svg">
<path d="M153.288 203.001C217.318 203.001 269.225 170.801 269.225 131.081C269.225 91.3608 217.318 59.1611 153.288 59.1611C89.258 59.1611 37.3514 91.3608 37.3514 131.081C37.3514 170.801 89.258 203.001 153.288 203.001Z" fill="#F3DBDB"/>
<path d="M62.5897 94.5238C56.3133 116.803 68.9545 140.363 76.0707 149.337L98.7011 76.2676L62.5897 94.5238Z" fill="#B31212"/>
<path fill-rule="evenodd" clip-rule="evenodd" d="M274.087 66.8963C274.131 55.4917 256.539 57.7461 248.097 59.1164C246.683 59.3817 245.313 59.6469 244.031 60.0889C232.671 63.6694 226.174 73.4385 224.008 82.854C222.771 85.8156 222.019 89.0425 221.533 92.2252C219.809 103.409 211.102 112.205 199.919 113.929L132.647 124.14C123.011 125.599 114.083 118.969 112.624 109.332C109.132 86.1251 94.1485 83.517 94.1485 83.517C91.1429 82.7214 100.778 70.079 97.6403 70.6095C78.8111 73.7037 65.9931 97.2203 67.7611 109.332C67.2749 122.859 63.9157 136.827 82.5681 160.609C96.1375 172.809 112.05 196.635 145.421 186.114C160.979 181.208 186.482 157.426 205.444 143.634C232.45 126.837 250.749 143.944 259.236 133.998C275.722 114.725 274.087 74.0132 274.087 66.8963Z" fill="#C42337"/>
<path fill-rule="evenodd" clip-rule="evenodd" d="M236.782 75.9137C236.782 75.9137 252.959 6.86712 156.692 0.413343C60.4239 -6.04044 72.7557 65.2164 72.7557 65.2164L79.4299 92.8439L129.73 80.3341" fill="#B31212"/>
<path d="M255.169 81.3934C263.7 120.691 220.516 104.424 176.184 139.08C131.365 179.836 93.8391 132.361 113.199 115.077C111.431 98.5888 175.167 70.0772 223.522 64.8611C271.877 59.6893 253.401 64.9053 255.169 81.3934Z" fill="#EFA14D"/>
<path d="M183.217 119.582C217.769 114.614 244.43 101.203 242.766 89.6288C241.102 78.0542 211.743 72.6983 177.192 77.6661C142.64 82.6339 115.979 96.0442 117.643 107.619C119.307 119.194 148.665 124.549 183.217 119.582Z" fill="#F78712"/>
<path fill-rule="evenodd" clip-rule="evenodd" d="M187.013 108.448C202.218 108.448 212.693 106.724 228.517 91.7829C256.495 65.3489 222.329 56.2871 212.649 45.5455C201.687 33.3452 151.83 46.9159 141.752 63.7134C133.663 77.1072 174.769 101.11 187.013 108.448Z" fill="#FF2423"/>
<path fill-rule="evenodd" clip-rule="evenodd" d="M250.13 72.8201C250.13 72.8201 254.727 69.4164 268.297 64.333C271.258 64.2446 281.336 58.5864 285.269 53.0167C293.181 36.7939 263.788 31.2684 242.793 41.1259C219.19 40.728 226.704 44.1317 226.704 44.1317L227.456 58.1886L247.699 59.5147L250.13 72.8201Z" fill="#AF709E"/>
<path fill-rule="evenodd" clip-rule="evenodd" d="M222.108 59.7798C222.108 59.7798 223.699 53.2818 241.114 53.5471C241.114 53.5471 267.855 45.4135 261.667 66.5872C261.667 66.5872 241.865 81.8818 226.572 89.7943L222.108 59.7798Z" fill="#FF2423"/>
<path fill-rule="evenodd" clip-rule="evenodd" d="M227.191 54.8732C227.191 54.8732 246.506 57.216 253.224 43.3802L254.374 37.3242L241.909 40.1533L231.655 47.3585L227.191 54.8732Z" fill="#854671"/>
<path fill-rule="evenodd" clip-rule="evenodd" d="M220.561 36.748L206.991 49.3904C206.24 50.0976 204.472 52.7057 209.732 56.4188C214.196 59.5573 228.517 56.463 230.638 54.4738L234.484 43.2902" fill="#AF709E"/>
<path fill-rule="evenodd" clip-rule="evenodd" d="M218.218 39.3135C218.218 39.3135 219.809 41.7447 229.931 46.2535C229.931 46.2535 214.063 48.5521 211.986 44.9274C214.019 41.7447 218.218 39.3135 218.218 39.3135Z" fill="#854671"/>
<path fill-rule="evenodd" clip-rule="evenodd" d="M224.583 46.0756C236.649 49.2583 241.998 42.1856 245.18 36.3065C247.478 32.0629 243.898 28.7034 240.627 25.7417C231.743 17.7408 215.787 26.1838 212.118 30.9578C205.135 40.108 218.837 44.5284 224.583 46.0756Z" fill="#AF709E"/>
<path fill-rule="evenodd" clip-rule="evenodd" d="M233.025 46.1201C233.025 46.1201 235.986 53.2811 243.545 45.1034C251.103 36.9257 249.291 34.6271 244.075 28.4827C237.887 21.189 231.345 22.2941 228.693 22.5594C226.307 22.8246 235.854 32.5053 241.909 32.3727C242.705 32.3727 241.467 35.1133 239.788 38.1634C238.506 41.5229 236.163 43.8215 233.025 46.1201Z" fill="#F0C0DC"/>
<path fill-rule="evenodd" clip-rule="evenodd" d="M262.727 29.1457C262.727 29.1457 271.17 22.692 265.468 18.4926C255.125 10.8011 243.279 35.3785 243.279 35.3785C243.279 35.3785 251.854 36.4394 262.727 29.1457Z" fill="#F0C0DC"/>
<path d="M215.212 35.4219C218.085 37.6763 221.798 37.19 221.798 37.19" stroke="#462138" stroke-width="2.8581" stroke-miterlimit="10" stroke-linecap="round" stroke-linejoin="round"/>
<path d="M221.135 33.9189C221.887 33.3 222.196 32.4601 221.842 32.0181C221.489 31.5761 220.605 31.7087 219.853 32.3275C219.102 32.9464 218.793 33.7863 219.146 34.2283C219.5 34.6703 220.384 34.5377 221.135 33.9189Z" fill="#462138"/>
<path d="M218.616 31.4892C219.367 30.8703 219.677 30.0305 219.323 29.5884C218.969 29.1464 218.085 29.279 217.334 29.8978C216.583 30.5167 216.273 31.3566 216.627 31.7986C216.98 32.2407 217.864 32.108 218.616 31.4892Z" fill="#462138"/>
<path fill-rule="evenodd" clip-rule="evenodd" d="M234.66 43.7338C237.18 45.281 240.627 44.3085 241.953 42.5845C242.97 41.3468 242.13 39.9765 240.892 39.225C238.152 37.5453 234.793 38.8272 233.6 40.3743C232.583 41.612 233.423 42.9824 234.66 43.7338Z" fill="#AF709E"/>
<path fill-rule="evenodd" clip-rule="evenodd" d="M163.587 38.0322L151.432 54.7413L155.763 55.979L168.449 53.8572L163.587 38.0322Z" fill="#AF709E"/>
<path d="M43.4069 90.8982C44.5119 83.8256 44.6003 76.0457 43.4511 69.3709C40.4455 51.9545 26.5667 42.4507 15.6051 44.8819C4.3341 31.6649 9.1519 60.4417 12.1133 77.858C15.1189 95.2744 22.2351 126.527 30.2795 113.398C32.0475 113 47.6059 92.0033 43.4069 90.8982Z" fill="#E9B2B7"/>
<path d="M42.5672 65.5271C41.7274 72.3787 30.6774 86.9661 23.3401 84.5348C23.5611 93.9503 26.0805 105.885 28.9977 111.101C31.8707 116.317 40.8876 110.217 47.2966 98.1497L87.5628 53.0174L69.2198 45.3701L42.5672 65.5271Z" fill="#854671"/>
<path fill-rule="evenodd" clip-rule="evenodd" d="M158.636 56.0214L154.526 56.1982C148.956 56.4634 136.006 -4.49387 103.917 20.1719C99.4525 23.5757 70.2363 45.324 70.2363 45.324C76.3359 47.8878 74.8331 47.3574 80.4023 52.4408C79.2089 53.4575 78.3691 61.5911 78.3691 61.5911C75.8055 94.2136 92.1153 88.0693 92.1153 88.0693L93.2203 86.92C93.8833 86.3011 96.7121 84.8424 102.325 80.5104C106.038 77.6371 113.199 77.3277 115.585 84.4887C132.602 136.207 191.123 108.757 191.123 108.757C199.963 74.3218 158.636 56.0214 158.636 56.0214Z" fill="#9A1919"/>
<path d="M49.3739 108.801C47.6059 101.905 44.6445 94.8764 40.9759 89.4393C31.4729 75.294 15.2515 73.7911 6.41151 81.3941C-8.88169 75.2056 6.76511 98.5895 16.2681 112.735C25.7711 126.88 44.4677 151.281 46.5009 135.5C47.8711 134.306 53.6171 107.651 49.3739 108.801Z" fill="#FFCED1"/>
<path d="M38.6775 89.5716C40.5781 96.158 36.3349 111.497 28.7767 112.956C32.6221 121.31 39.5173 130.77 44.1583 134.041C48.7551 137.312 54.5453 127.366 55.6061 113.353C55.6061 113.353 72.3137 89.2622 80.977 82.6758C89.6844 76.0894 84.1593 60.2644 80.2697 52.7939C67.5401 58.3194 38.6775 89.5716 38.6775 89.5716Z" fill="#AF709E"/>
<path d="M38.8543 61.6794C38.8543 61.6794 39.2963 31.7975 49.3739 31.046C59.4515 30.2946 42.6113 65.481 42.6113 65.481" fill="#E9B2B7"/>
<path d="M33.02 65.1283C33.02 65.1283 50.6558 42.8053 58.7002 49.7011C66.7446 56.5527 33.6388 70.7864 33.6388 70.7864" fill="#E9B2B7"/>
<path d="M31.2076 91.6051C31.1192 91.0747 30.2794 90.6769 29.2628 90.7653C28.2462 90.8537 27.4948 91.3399 27.5832 91.8704C27.6716 92.4008 28.5114 92.7987 29.528 92.7102C30.5004 92.666 31.2518 92.1356 31.2076 91.6051Z" fill="#6F365B"/>
<path fill-rule="evenodd" clip-rule="evenodd" d="M21.7047 87.4067C21.3953 88.335 21.9257 90.28 22.9423 90.3684C23.9589 90.4568 25.1523 87.4067 24.8429 86.9647C23.6937 85.6828 21.8815 86.8321 21.7047 87.4067Z" fill="#6F365B"/>
<path d="M30.6331 86.3463C30.5447 85.8159 29.7049 85.4181 28.6883 85.5065C27.6717 85.5949 26.9203 86.0811 27.0087 86.6116C27.0971 87.142 27.9369 87.5398 28.9535 87.4514C29.9701 87.4072 30.7215 86.921 30.6331 86.3463Z" fill="#6F365B"/>
<path d="M24.9313 82.5443L25.9479 78.4775" stroke="#521F27" stroke-width="1.9504" stroke-miterlimit="10" stroke-linecap="round" stroke-linejoin="round"/>
<path d="M22.3677 82.5444L21.3511 77.4609" stroke="#521F27" stroke-width="1.9504" stroke-miterlimit="10" stroke-linecap="round" stroke-linejoin="round"/>
<path d="M23.8705 92.7559L25.4175 97.8393" stroke="#521F27" stroke-width="1.9504" stroke-miterlimit="10" stroke-linecap="round" stroke-linejoin="round"/>
<path d="M21.3511 92.7559L18.3013 97.3531" stroke="#521F27" stroke-width="1.9504" stroke-miterlimit="10" stroke-linecap="round" stroke-linejoin="round"/>
<path d="M29.2187 55.8014C29.3071 55.3594 28.7767 54.8731 28.0253 54.6079C27.2739 54.3869 26.5667 54.5195 26.4783 54.9616C26.3899 55.4036 26.9203 55.8898 27.6717 56.1551C28.4231 56.3761 29.1303 56.1993 29.2187 55.8014Z" fill="#6F365B"/>
<path fill-rule="evenodd" clip-rule="evenodd" d="M23.6495 51.0702C23.1633 51.9101 23.2517 53.8992 24.2241 54.2087C25.1965 54.5181 27.0087 51.7775 26.7877 51.2912C25.9921 49.8325 24.0031 50.584 23.6495 51.0702Z" fill="#6F365B"/>
<path d="M31.4287 53.0602C31.5171 52.6182 30.9867 52.1319 30.2353 51.8667C29.4839 51.6457 28.7767 51.7783 28.6883 52.2203C28.5999 52.6624 29.1303 53.1486 29.8817 53.4138C30.6331 53.6349 31.3403 53.5023 31.4287 53.0602Z" fill="#6F365B"/>
<path d="M27.1855 47.9765L30.0144 43.8213" stroke="#521F27" stroke-width="1.9504" stroke-miterlimit="10" stroke-linecap="round" stroke-linejoin="round"/>
<path d="M24.4009 47.8872L25.5059 42.8037" stroke="#521F27" stroke-width="1.9504" stroke-miterlimit="10" stroke-linecap="round" stroke-linejoin="round"/>
<path d="M23.7379 56.8174L22.3677 62.6523" stroke="#521F27" stroke-width="1.9504" stroke-miterlimit="10" stroke-linecap="round" stroke-linejoin="round"/>
<path d="M21.3069 55.3584L18.3013 60.1324" stroke="#521F27" stroke-width="1.9504" stroke-miterlimit="10" stroke-linecap="round" stroke-linejoin="round"/>
<path opacity="0.31" fill-rule="evenodd" clip-rule="evenodd" d="M78.8995 54.3415C78.8995 54.3415 84.1151 50.0095 92.8225 44.3956C104.536 36.9252 126.194 37.3672 135.255 54.3415C149.089 80.3777 174.681 66.586 174.681 66.586C174.681 66.586 163.322 58.1431 158.902 56.9054C157.885 56.6401 154.305 56.9054 154.305 56.9054L144.139 37.544C144.139 37.544 128.846 -3.21204 98.7895 24.2828L68.7335 46.6942C75.6729 51.1588 75.8497 50.2748 78.8995 54.3415Z" fill="#49242B"/>
<path d="M187.057 81.6606C167.211 77.5938 156.957 94.8776 156.957 94.8776L189.665 91.2971" stroke="#B31212" stroke-width="2" stroke-miterlimit="10" stroke-linecap="round" stroke-linejoin="round"/>
<path d="M32.6221 89.3949C32.6221 89.3949 46.6335 64.0218 55.5619 69.2379C64.5345 74.4539 34.0365 94.832 34.0365 94.832" fill="#FFCED1"/>
<path d="M156.824 94.788C139.498 97.8381 127.299 65.9228 127.299 65.9228C117.663 48.6391 96.7122 55.3138 87.0323 62.1655" stroke="#B31212" stroke-width="2" stroke-miterlimit="10" stroke-linecap="round" stroke-linejoin="round"/>
<path d="M29.8375 92.9321C29.8375 92.9321 55.1199 84.0471 58.9211 94.6118C62.6781 105.177 27.8485 98.1481 27.8485 98.1481" fill="#FFCED1"/>
<path d="M115.586 113.884C125.221 99.6065 120.845 85.7706 109.486 78.1234C98.1265 70.4761 84.1151 71.8464 74.4795 86.1243C64.8439 100.402 66.2141 118.172 77.5735 125.864C88.9329 133.511 105.95 128.118 115.586 113.884Z" fill="#C42337"/>
<path d="M269.225 90.5446C277.004 79.0073 273.91 71.9789 269.225 68.8404C264.539 65.7019 258.572 66.586 254.152 73.084C249.777 79.582 249.998 87.4061 254.683 90.5446C259.324 93.7273 264.805 97.0426 269.225 90.5446Z" fill="#C42337"/>
<path d="M241.423 53.0162C241.423 53.0162 257.468 44.3965 268.871 42.2305" stroke="#6F365B" stroke-width="1.9504" stroke-miterlimit="10" stroke-linecap="round" stroke-linejoin="round"/>
<path fill-rule="evenodd" clip-rule="evenodd" d="M177.775 64.8189L187.499 65.8356C192.361 66.366 196.737 62.8297 197.179 57.9673L200.184 29.1905C200.67 24.3722 197.134 19.996 192.317 19.5098L182.593 18.4931C177.731 17.9627 173.355 21.499 172.913 26.3614L169.907 55.1382C169.377 59.9564 172.913 64.3326 177.775 64.8189Z" fill="#78252B"/>
<path fill-rule="evenodd" clip-rule="evenodd" d="M174.946 65.3052L184.67 66.3219C189.532 66.8524 193.908 63.316 194.35 58.4536L197.356 29.6768C197.886 24.8144 194.35 20.4382 189.488 19.9961L179.764 18.9794C174.946 18.449 170.57 21.9853 170.084 26.8477L167.079 55.6245C166.548 60.4428 170.084 64.819 174.946 65.3052Z" fill="#F78712"/>
<path d="M161.112 49.0814C157.752 56.7287 180.604 58.4968 174.283 51.8662C174.195 51.7778 174.283 51.601 174.416 51.6894C176.14 52.6177 179.543 50.3633 176.67 48.0205C176.582 47.9321 176.714 47.7994 176.847 47.8437C181.974 50.0981 182.725 46.9596 179.676 43.2464C177.421 39.0913 171.764 37.5883 169.554 36.439C169.51 36.3948 169.465 36.3506 169.51 36.3064C169.863 32.9027 169.421 34.6267 169.554 33.0795C169.554 28.8359 170.084 28.8359 169.421 28.8359C166.239 30.0294 167.918 33.389 167.123 35.0687C157.178 39.0913 160.979 43.5559 162.305 44.3957C157.178 45.6335 161.642 47.9321 161.112 49.0814Z" fill="#AF709E"/>
<path d="M173.797 51.3801C173.797 51.3801 168.847 46.8713 161.112 49.0815" stroke="#854671" stroke-width="1.9504" stroke-miterlimit="10" stroke-linecap="round" stroke-linejoin="round"/>
<path d="M176.493 47.6675C176.493 47.6675 172.648 41.9209 163.145 42.142" stroke="#854671" stroke-width="1.9504" stroke-miterlimit="10" stroke-linecap="round" stroke-linejoin="round"/>
<path d="M67.1865 46.8716C73.0209 47.0484 83.0543 58.1436 87.3417 63.6691C89.4633 58.6298 93.0877 56.4196 94.6789 55.9334C94.2811 48.5955 86.7671 41.8323 80.7117 37.9424L76.0265 38.6054L67.1865 46.8716Z" fill="#78252B"/>
<path d="M76.0708 52.1315C80.977 55.3142 85.0434 69.3269 85.839 76.3111C90.259 73.1284 94.5464 73.1284 96.1376 73.5262C99.6294 67.0725 94.1928 52.5294 91.0546 46.0314L86.723 44.1748L76.0708 52.1315Z" fill="#C13547"/>
</svg>
