<svg xmlns="http://www.w3.org/2000/svg" xmlns:xlink="http://www.w3.org/1999/xlink" width="203.673" height="310.199" viewBox="0 0 203.673 310.199">
  <defs>
    <clipPath id="clip-path">
      <rect id="Rectangle_4717" data-name="Rectangle 4717" width="85.927" height="99.26" transform="matrix(0.981, -0.192, 0.192, 0.981, 0, 16.524)" fill="none"/>
    </clipPath>
    <clipPath id="clip-path-5">
      <rect id="Rectangle_4721" data-name="Rectangle 4721" width="119.73" height="94.34" transform="translate(0 117.205) rotate(-78.213)" fill="none"/>
    </clipPath>
  </defs>
  <g id="Group_11525" data-name="Group 11525" transform="translate(-516.609 -345.219)">
    <g id="Group_11507" data-name="Group 11507" transform="translate(585.786 501.262)">
      <path id="Path_6863" data-name="Path 6863" d="M573.687,414.629l-.939,4.5a2.175,2.175,0,0,1-.888,4.258l-.942,4.506a2.175,2.175,0,0,1-.888,4.258l-.937,4.5a2.175,2.175,0,0,1-.89,4.258l-.939,4.505a2.175,2.175,0,0,1-.888,4.258l-.94,4.5a2.174,2.174,0,0,1-.888,4.255l-.939,4.508a2.174,2.174,0,0,1-.891,4.256l-.937,4.5a2.174,2.174,0,0,1-.888,4.256l-.942,4.508a2.175,2.175,0,0,1-.888,4.258l-.939,4.5a2.175,2.175,0,0,1-.888,4.258l-.939,4.505a2.175,2.175,0,0,1-.888,4.258l-.94,4.5a2.175,2.175,0,0,1-.888,4.258l-.942,4.505a2.175,2.175,0,0,1-.888,4.258l-.939,4.5a2.174,2.174,0,0,1-.888,4.255l-.939,4.508a2.174,2.174,0,0,1-.888,4.255l-.946,4.531a2.129,2.129,0,0,1,1.687,2.542l3.94.82c.234-2.87,5.174-1.788,4.258.89l3.938.82c.229-2.807,5.195-1.851,4.258.888l3.938.823a2.175,2.175,0,1,1,4.258.888l3.938.823a2.175,2.175,0,1,1,4.258.888l3.94.823c.229-2.814,5.193-1.846,4.258.888l3.938.823a2.175,2.175,0,1,1,4.258.888l3.938.82a2.175,2.175,0,1,1,4.258.89l3.938.82a2.175,2.175,0,0,1,4.258.888l3.94.823a2.174,2.174,0,1,1,4.255.888l3.94.822a2.175,2.175,0,0,1,4.258.888l3.938.823a2.175,2.175,0,0,1,4.258.888l3.938.823c.236-2.877,5.174-1.783,4.258.888l3.938.82a2.155,2.155,0,0,1,2.571-1.673l.942-4.51a2.175,2.175,0,0,1,.888-4.258l.942-4.505a2.175,2.175,0,0,1,.888-4.258l.937-4.5a2.175,2.175,0,0,1,.89-4.258l.94-4.505a2.175,2.175,0,0,1,.888-4.258l.939-4.5a2.174,2.174,0,0,1,.888-4.255l.939-4.508a2.175,2.175,0,0,1,.891-4.258l.937-4.5a2.175,2.175,0,0,1,.888-4.258l.942-4.505a2.175,2.175,0,0,1,.888-4.258l.94-4.5a2.175,2.175,0,0,1,.888-4.258l.939-4.505a2.175,2.175,0,0,1,.888-4.258l.94-4.5a2.175,2.175,0,0,1,.888-4.258l.942-4.505a2.175,2.175,0,0,1,.888-4.258l.939-4.5a2.175,2.175,0,0,1,.888-4.258l.939-4.508a2.175,2.175,0,0,1,.888-4.258l.94-4.5a2.182,2.182,0,0,1-1.685-2.573l-3.938-.82a2.175,2.175,0,0,1-4.258-.89l-3.937-.82a2.175,2.175,0,0,1-4.258-.888l-3.938-.823a2.175,2.175,0,0,1-4.258-.888l-3.94-.823a2.175,2.175,0,0,1-4.258-.888l-3.938-.823a2.175,2.175,0,0,1-4.258-.888l-3.938-.822a2.175,2.175,0,0,1-4.258-.888l-3.938-.82a2.175,2.175,0,0,1-4.258-.89l-3.94-.82a2.175,2.175,0,0,1-4.258-.888l-3.938-.822a2.175,2.175,0,0,1-4.258-.888l-3.938-.823a2.175,2.175,0,0,1-4.258-.888l-3.938-.823a2.175,2.175,0,0,1-4.258-.888l-3.938-.823a2.175,2.175,0,0,1-4.258-.888l-3.933-.82A2.18,2.18,0,0,1,573.687,414.629Z" transform="translate(-545.734 -411.528)" fill="#86817b" opacity="0.5"/>
      <path id="Path_6864" data-name="Path 6864" d="M573.081,414.023l-.94,4.5a2.175,2.175,0,0,1-.888,4.258l-.939,4.505a2.175,2.175,0,0,1-.89,4.258l-.937,4.5a2.175,2.175,0,0,1-.888,4.258l-.942,4.508a2.174,2.174,0,0,1-.888,4.256l-.939,4.5a2.174,2.174,0,0,1-.888,4.255L563,462.326a2.174,2.174,0,0,1-.888,4.255l-.939,4.5a2.175,2.175,0,0,1-.888,4.258l-.942,4.506a2.175,2.175,0,0,1-.888,4.258l-.94,4.5a2.175,2.175,0,0,1-.888,4.258l-.939,4.505a2.175,2.175,0,0,1-.888,4.258l-.939,4.5a2.174,2.174,0,0,1-.888,4.255l-.942,4.508a2.174,2.174,0,0,1-.888,4.255l-.937,4.5a2.174,2.174,0,0,1-.89,4.255l-.94,4.508a2.174,2.174,0,0,1-.888,4.255l-.946,4.531a2.129,2.129,0,0,1,1.687,2.543l3.94.82c.234-2.87,5.174-1.788,4.258.89l3.938.82c.229-2.806,5.195-1.848,4.258.888l3.938.823a2.175,2.175,0,0,1,4.258.888l3.94.823a2.174,2.174,0,1,1,4.255.888l3.94.823c.229-2.814,5.192-1.846,4.258.888l3.938.823a2.175,2.175,0,0,1,4.258.888l3.938.823a2.175,2.175,0,1,1,4.258.888l3.938.82a2.175,2.175,0,1,1,4.258.89l3.94.82a2.175,2.175,0,1,1,4.258.888l3.938.822a2.175,2.175,0,1,1,4.258.888l3.938.823a2.175,2.175,0,0,1,4.258.888l3.938.823c.236-2.877,5.174-1.783,4.258.888l3.94.823a2.151,2.151,0,0,1,2.568-1.676l.942-4.51a2.175,2.175,0,0,1,.888-4.258l.942-4.505a2.175,2.175,0,0,1,.888-4.258l.94-4.5a2.175,2.175,0,0,1,.888-4.258l.939-4.505a2.175,2.175,0,0,1,.888-4.258l.939-4.5a2.175,2.175,0,0,1,.888-4.258l.942-4.508a2.174,2.174,0,0,1,.888-4.255l.937-4.5a2.175,2.175,0,0,1,.89-4.258l.94-4.505a2.175,2.175,0,0,1,.888-4.258l.94-4.5a2.175,2.175,0,0,1,.888-4.258l.939-4.506a2.175,2.175,0,0,1,.89-4.258l.937-4.5a2.175,2.175,0,0,1,.888-4.258l.942-4.506a2.175,2.175,0,0,1,.888-4.258l.939-4.5a2.175,2.175,0,0,1,.888-4.258l.939-4.508a2.174,2.174,0,0,1,.888-4.255l.939-4.5a2.182,2.182,0,0,1-1.685-2.573L674,432.86a2.175,2.175,0,0,1-4.258-.888l-3.938-.822a2.175,2.175,0,0,1-4.258-.888l-3.938-.822a2.175,2.175,0,0,1-4.258-.888l-3.94-.823a2.174,2.174,0,0,1-4.256-.888l-3.94-.823a2.175,2.175,0,0,1-4.258-.888l-3.938-.82a2.175,2.175,0,0,1-4.258-.89l-3.938-.82a2.175,2.175,0,0,1-4.258-.888l-3.938-.823a2.175,2.175,0,0,1-4.258-.888l-3.94-.823a2.175,2.175,0,0,1-4.258-.888l-3.938-.823a2.175,2.175,0,0,1-4.258-.888l-3.938-.823a2.175,2.175,0,0,1-4.258-.888l-3.938-.82a2.175,2.175,0,0,1-4.258-.89l-3.931-.82A2.184,2.184,0,0,1,573.081,414.023Z" transform="translate(-546.544 -412.338)" fill="#f1f0ec" stroke="#020204" stroke-miterlimit="10" stroke-width="1"/>
      <rect id="Rectangle_4715" data-name="Rectangle 4715" width="119.73" height="94.34" transform="translate(9.556 126.753) rotate(-78.213)" fill="#ffd918"/>
      <path id="Path_6887" data-name="Path 6887" d="M0,0H119.73V94.34H0Z" transform="translate(9.556 126.753) rotate(-78.213)" fill="#ffd918" stroke="#020204" stroke-width="1"/>
    </g>
    <path id="Path_6865" data-name="Path 6865" d="M587.823,400.481l3.617,6.969a1.247,1.247,0,0,0,1.2.668l7.828-.6a1.25,1.25,0,0,1,1.327,1.04l1.285,7.744a1.245,1.245,0,0,0,.939,1.01l7.63,1.846a1.249,1.249,0,0,1,.942,1.4l-1.171,7.765a1.249,1.249,0,0,0,.579,1.248l6.688,4.113a1.248,1.248,0,0,1,.463,1.622l-3.512,7.022a1.247,1.247,0,0,0,.166,1.367l5.09,5.978a1.25,1.25,0,0,1-.061,1.685l-5.51,5.594a1.246,1.246,0,0,0-.264,1.351l2.991,7.258a1.246,1.246,0,0,1-.577,1.582l-6.969,3.617a1.253,1.253,0,0,0-.671,1.2l.6,7.828a1.247,1.247,0,0,1-1.04,1.327l-7.745,1.285a1.251,1.251,0,0,0-1.009.939l-1.844,7.63a1.25,1.25,0,0,1-1.4.942l-7.763-1.171a1.252,1.252,0,0,0-1.25.58l-4.113,6.688a1.245,1.245,0,0,1-1.619.463l-7.022-3.512a1.25,1.25,0,0,0-1.367.166l-5.98,5.09a1.25,1.25,0,0,1-1.685-.061l-5.592-5.51a1.247,1.247,0,0,0-1.351-.264L552.4,497.37a1.247,1.247,0,0,1-1.582-.577l-3.617-6.969a1.249,1.249,0,0,0-1.2-.671l-7.828.6a1.242,1.242,0,0,1-1.325-1.04l-1.288-7.744a1.246,1.246,0,0,0-.937-1.007l-7.632-1.846a1.246,1.246,0,0,1-.939-1.4l1.168-7.763a1.247,1.247,0,0,0-.58-1.248l-6.688-4.115a1.248,1.248,0,0,1-.463-1.619L523,454.951a1.246,1.246,0,0,0-.166-1.367l-5.09-5.98a1.245,1.245,0,0,1,.063-1.683l5.508-5.594a1.247,1.247,0,0,0,.266-1.351l-2.994-7.258a1.251,1.251,0,0,1,.58-1.584l6.969-3.617a1.243,1.243,0,0,0,.668-1.2l-.6-7.828a1.246,1.246,0,0,1,1.04-1.325l7.744-1.288a1.246,1.246,0,0,0,1.01-.937l1.846-7.632a1.247,1.247,0,0,1,1.4-.939L549,406.532a1.244,1.244,0,0,0,1.248-.579l4.113-6.688a1.252,1.252,0,0,1,1.622-.463l7.022,3.512a1.247,1.247,0,0,0,1.367-.166l5.978-5.09a1.247,1.247,0,0,1,1.685.063l5.594,5.508a1.246,1.246,0,0,0,1.351.266l7.258-2.993A1.247,1.247,0,0,1,587.823,400.481Z" transform="translate(0.342 68.1)" fill="#86817b" opacity="0.5"/>
    <path id="Path_6866" data-name="Path 6866" d="M587.567,399.528l3.617,6.971a1.251,1.251,0,0,0,1.2.668l7.828-.6a1.25,1.25,0,0,1,1.327,1.04l1.285,7.744a1.251,1.251,0,0,0,.94,1.01l7.63,1.844a1.25,1.25,0,0,1,.942,1.4l-1.171,7.763a1.252,1.252,0,0,0,.579,1.25l6.688,4.113a1.248,1.248,0,0,1,.463,1.622l-3.512,7.022a1.243,1.243,0,0,0,.166,1.365l5.09,5.98a1.25,1.25,0,0,1-.061,1.685l-5.51,5.592a1.25,1.25,0,0,0-.264,1.353l2.991,7.258a1.245,1.245,0,0,1-.577,1.582l-6.968,3.617a1.251,1.251,0,0,0-.671,1.2l.6,7.828a1.248,1.248,0,0,1-1.04,1.327l-7.744,1.285a1.246,1.246,0,0,0-1.007.937l-1.846,7.632a1.246,1.246,0,0,1-1.4.94l-7.763-1.168a1.247,1.247,0,0,0-1.248.579l-4.115,6.688a1.245,1.245,0,0,1-1.619.463l-7.022-3.512a1.246,1.246,0,0,0-1.367.166l-5.98,5.09a1.25,1.25,0,0,1-1.685-.061l-5.592-5.51a1.247,1.247,0,0,0-1.351-.266l-7.261,2.993a1.246,1.246,0,0,1-1.582-.58l-3.618-6.968a1.247,1.247,0,0,0-1.2-.668l-7.829.6a1.246,1.246,0,0,1-1.325-1.04l-1.288-7.744a1.249,1.249,0,0,0-.937-1.009l-7.632-1.844a1.248,1.248,0,0,1-.94-1.4l1.169-7.763a1.246,1.246,0,0,0-.579-1.25l-6.688-4.113a1.252,1.252,0,0,1-.463-1.622L522.743,454a1.248,1.248,0,0,0-.166-1.367l-5.09-5.978a1.247,1.247,0,0,1,.063-1.685l5.508-5.592a1.252,1.252,0,0,0,.266-1.353l-2.994-7.258a1.247,1.247,0,0,1,.58-1.582l6.968-3.617a1.245,1.245,0,0,0,.669-1.2l-.6-7.828a1.25,1.25,0,0,1,1.04-1.327l7.744-1.285a1.246,1.246,0,0,0,1.009-.937l1.846-7.632a1.249,1.249,0,0,1,1.4-.942l7.765,1.171A1.249,1.249,0,0,0,550,405l4.113-6.688a1.248,1.248,0,0,1,1.622-.463l7.022,3.512a1.246,1.246,0,0,0,1.367-.166l5.978-5.09a1.25,1.25,0,0,1,1.685.061l5.594,5.51a1.246,1.246,0,0,0,1.351.264l7.258-2.991A1.246,1.246,0,0,1,587.567,399.528Z" transform="translate(0 66.828)" fill="#fff" stroke="#020204" stroke-miterlimit="10" stroke-width="1"/>
    <g id="Group_11510" data-name="Group 11510" transform="translate(542.377 487.825)">
      <circle id="Ellipse_1004" data-name="Ellipse 1004" cx="26.688" cy="26.688" r="26.688" fill="#ffd918" stroke="#020204" stroke-miterlimit="10" stroke-width="1"/>
      <g id="Group_11509" data-name="Group 11509" transform="translate(4.745 14.732)">
        <g id="Group_11508" data-name="Group 11508">
          <path id="Path_6867" data-name="Path 6867" d="M550.9,418.4c.493-1.482.15-2.666-1.993-2.825a14.476,14.476,0,0,0-3.393.15,1.908,1.908,0,0,1-2.082-.816c-1.267-1.771-3.281-2.687-5.34-1.451a5.7,5.7,0,0,0-2.557,3.234c-1.391,4.26.841,9.347,3.578,12.6.18.215,6.468-4.008,6.9-4.372C547.058,424.053,550.1,420.826,550.9,418.4Z" transform="translate(-523.16 -412.892)" fill="#020203"/>
          <path id="Path_6868" data-name="Path 6868" d="M557.255,422.4l.035-.138c.514-2.075-.668-3.846-2.963-3.566a3.8,3.8,0,0,0-.4.054c-1.332.311-1.79.629-2.816-1.059a4.049,4.049,0,0,0-1.837-1.5,3.576,3.576,0,0,0-4.55,1.3c-1.813,3.4-1.348,9.532.848,12.776,2.075,3.064,6.127-.846,7.81-2.552C554.893,426.177,556.669,424.541,557.255,422.4Z" transform="translate(-511.805 -408.937)" fill="#020203"/>
          <path id="Path_6869" data-name="Path 6869" d="M537.422,419.948c2.762,1,4.826,3.557,2.979,6.679a5.672,5.672,0,0,1-6.957,2.477c-2.914-1.138-3.5-3.012-3.442-4.87C530.142,419.723,534.243,418.8,537.422,419.948Zm.71,5.952a3.451,3.451,0,0,0-1.954-4.461c-1.344-.549-3.157.486-3.807,2.134-.78,1.975.755,3.55,2.187,4.15A3.016,3.016,0,0,0,538.132,425.9Z" transform="translate(-529.998 -404.059)" fill="#020203"/>
          <path id="Path_6870" data-name="Path 6870" d="M547.166,434.74a5.373,5.373,0,0,1-3.4-2.774c-2.087-4.457,3.431-9.207,7.635-7.008a5.143,5.143,0,0,1,2.718,4.008,5.933,5.933,0,0,1-3.318,5.48A4.909,4.909,0,0,1,547.166,434.74Zm.253-2.262a3.577,3.577,0,0,0,3.9-.876c3.6-4.078-5.274-7.293-5.765-2.215A2.847,2.847,0,0,0,547.419,432.477Z" transform="translate(-512.206 -397.504)" fill="#020203"/>
          <path id="Path_6871" data-name="Path 6871" d="M541.484,430.939a13.928,13.928,0,0,1-5.868-5.291,2.727,2.727,0,0,1-.3-1.143.983.983,0,0,1,.57-.974,1.067,1.067,0,0,1,1.287.215c.344.484.584,1.04.9,1.549,1.748,2.863,4.169,4.657,7.653,4.583a14.343,14.343,0,0,0,2.531-.524,6.869,6.869,0,0,1,1.358-.241.73.73,0,0,1,.8.729,1.129,1.129,0,0,1-.4.827A8.819,8.819,0,0,1,541.484,430.939Z" transform="translate(-522.893 -398.831)" fill="#020203"/>
        </g>
      </g>
    </g>
    <g id="Group_11522" data-name="Group 11522" transform="translate(537.535 345.821)">
      <path id="Path_6872" data-name="Path 6872" d="M587.738,347.76l9.614,5.868a1.786,1.786,0,0,0,1.972-.072L608.485,347a1.788,1.788,0,0,1,2.4.292l7.331,8.551a1.791,1.791,0,0,0,1.9.542l10.735-3.4A1.791,1.791,0,0,1,633.045,354l4.328,10.4a1.789,1.789,0,0,0,1.638,1.1l11.264.084a1.787,1.787,0,0,1,1.769,1.647l.9,11.226a1.792,1.792,0,0,0,1.218,1.554l10.686,3.559a1.791,1.791,0,0,1,1.176,2.112l-2.61,10.958a1.787,1.787,0,0,0,.678,1.853l9.062,6.688a1.79,1.79,0,0,1,.465,2.372l-5.868,9.614a1.791,1.791,0,0,0,.072,1.975l6.553,9.161a1.788,1.788,0,0,1-.292,2.4l-8.551,7.328a1.787,1.787,0,0,0-.542,1.9l3.4,10.738a1.787,1.787,0,0,1-1.019,2.192l-10.4,4.328a1.792,1.792,0,0,0-1.1,1.641l-.082,11.261a1.791,1.791,0,0,1-1.647,1.771l-11.226.9a1.79,1.79,0,0,0-1.554,1.22l-3.559,10.684a1.791,1.791,0,0,1-2.115,1.175l-10.955-2.61a1.79,1.79,0,0,0-1.855.68L616.2,492.98a1.8,1.8,0,0,1-2.374.465l-9.612-5.868a1.79,1.79,0,0,0-1.974.07l-9.161,6.553a1.79,1.79,0,0,1-2.4-.29l-7.331-8.553a1.786,1.786,0,0,0-1.9-.54l-10.738,3.4a1.79,1.79,0,0,1-2.192-1.019l-4.328-10.4a1.793,1.793,0,0,0-1.641-1.1l-11.261-.084a1.791,1.791,0,0,1-1.771-1.645l-.9-11.226a1.787,1.787,0,0,0-1.217-1.556l-10.684-3.559a1.788,1.788,0,0,1-1.175-2.112l2.608-10.955a1.788,1.788,0,0,0-.678-1.855l-9.062-6.688a1.79,1.79,0,0,1-.465-2.372l5.868-9.614a1.8,1.8,0,0,0-.07-1.975l-6.553-9.16a1.791,1.791,0,0,1,.29-2.4l8.553-7.328a1.791,1.791,0,0,0,.54-1.9l-3.4-10.736a1.79,1.79,0,0,1,1.019-2.194l10.4-4.328a1.788,1.788,0,0,0,1.1-1.638l.084-11.264a1.789,1.789,0,0,1,1.645-1.771l11.226-.9a1.792,1.792,0,0,0,1.554-1.217l3.562-10.686a1.788,1.788,0,0,1,2.112-1.176l10.955,2.61a1.791,1.791,0,0,0,1.855-.678l6.688-9.062A1.787,1.787,0,0,1,587.738,347.76Z" transform="translate(-524.622 -344.687)" fill="#86817b" opacity="0.5"/>
      <path id="Path_6873" data-name="Path 6873" d="M586.785,346.91l9.614,5.868a1.791,1.791,0,0,0,1.975-.072l9.161-6.55a1.79,1.79,0,0,1,2.4.29L617.262,355a1.787,1.787,0,0,0,1.9.542l10.738-3.4a1.788,1.788,0,0,1,2.192,1.019l4.328,10.4a1.792,1.792,0,0,0,1.64,1.1l11.261.082a1.791,1.791,0,0,1,1.771,1.648l.9,11.226a1.79,1.79,0,0,0,1.22,1.554l10.684,3.559a1.791,1.791,0,0,1,1.176,2.115l-2.61,10.955a1.79,1.79,0,0,0,.68,1.855l9.062,6.686a1.792,1.792,0,0,1,.463,2.374l-5.868,9.614a1.791,1.791,0,0,0,.072,1.972l6.553,9.16a1.79,1.79,0,0,1-.29,2.4l-8.553,7.331a1.79,1.79,0,0,0-.54,1.9l3.4,10.736a1.793,1.793,0,0,1-1.019,2.194l-10.4,4.328a1.789,1.789,0,0,0-1.1,1.638l-.084,11.261a1.791,1.791,0,0,1-1.645,1.771l-11.226.9a1.791,1.791,0,0,0-1.556,1.218l-3.559,10.686A1.79,1.79,0,0,1,634.742,485l-10.955-2.61a1.787,1.787,0,0,0-1.856.678l-6.688,9.062a1.79,1.79,0,0,1-2.372.465l-9.614-5.868a1.79,1.79,0,0,0-1.974.072l-9.161,6.55a1.791,1.791,0,0,1-2.4-.29l-7.328-8.551a1.787,1.787,0,0,0-1.9-.542l-10.735,3.4a1.79,1.79,0,0,1-2.194-1.019l-4.328-10.4a1.791,1.791,0,0,0-1.638-1.1l-11.264-.082a1.791,1.791,0,0,1-1.771-1.647l-.9-11.226a1.792,1.792,0,0,0-1.218-1.554l-10.686-3.559a1.791,1.791,0,0,1-1.176-2.115l2.61-10.955a1.792,1.792,0,0,0-.678-1.855l-9.062-6.686a1.79,1.79,0,0,1-.465-2.374l5.868-9.614a1.787,1.787,0,0,0-.073-1.972l-6.553-9.16a1.788,1.788,0,0,1,.292-2.4l8.551-7.331a1.791,1.791,0,0,0,.542-1.9l-3.4-10.736a1.791,1.791,0,0,1,1.017-2.194l10.4-4.328a1.789,1.789,0,0,0,1.1-1.638l.084-11.261a1.791,1.791,0,0,1,1.647-1.771l11.226-.9a1.788,1.788,0,0,0,1.554-1.217L562.8,355.68a1.792,1.792,0,0,1,2.113-1.175l10.957,2.61a1.785,1.785,0,0,0,1.853-.678l6.688-9.062A1.79,1.79,0,0,1,586.785,346.91Z" transform="translate(-525.896 -345.821)" fill="#ffd918" stroke="#020204" stroke-miterlimit="10" stroke-width="1"/>
      <g id="Arte_1" data-name="Arte 1" transform="translate(21.971 15.658)">
        <g id="Group_11518" data-name="Group 11518" transform="translate(0 0)">
          <g id="Group_11517" data-name="Group 11517" transform="translate(0 0)">
            <g id="Group_11516" data-name="Group 11516" transform="translate(0)" clip-path="url(#clip-path)">
              <g id="Group_11515" data-name="Group 11515">
                <g id="Group_11514" data-name="Group 11514" clip-path="url(#clip-path)">
                  <path id="Path_6874" data-name="Path 6874" d="M613.2,393.879a35.561,35.561,0,1,1-41.736-28.059A35.561,35.561,0,0,1,613.2,393.879" transform="translate(-525.357 -335.639)" fill="#fff"/>
                  <path id="Path_6875" data-name="Path 6875" d="M551.273,363.7c2.141-3.545,5.812-1.972,8.6-2.341s3.79-1.636,6.412-2.865,5.676.675,7.392,2.129,4.47.911,5.267-.5,2.117-4.709,6.008-4.933,5.772,2.087,6.211,4.326.362,4.58,2.253,5.1,5.508-.187,6.256,1.813,1.706,4.136,4.218,4.181,8.887-2.1,11.864,2.145-.065,7.88-1.175,10.422-.512,7.433,2.788,8.754,4.978,3.5,4.2,7.761,1.732,6.1,3.58,8.24,1.661,6.648-1.063,8.256-5.994,1.353-6.728,4-.54,6.366-3.952,7.214-5.707-1.743-8.221-.893-3.391,4.6-7.9,4.41-23.427-2.741-23.427-2.741-2.788,8.593-7.882,9.055-3.674-2.32-6.359-2.332-3.889,2.671-7.555,1.6c-2.636-.769-.8-3.479-3.1-4.281s-4.27.72-5.405-2.636c-1.311-3.879,1.689-6.59,1.042-8.072s-4.468-2.105-5-6.651,2.9-6.321,3.388-9.485c.682-4.426-1.234-4.954-3.33-11.509-1.54-4.823,2.711-10.184,5.873-11.4,3.769-1.454,6-2.844,6.426-6.146s-4.195-6.81-.685-12.624" transform="translate(-529.903 -348.972)"/>
                  <path id="Path_6876" data-name="Path 6876" d="M594.436,393.905c3,15.328-5.854,29.538-16.676,31.372s-25.324-8.086-28.33-23.413,2.475-26.977,18.017-29.734c16.746-2.973,23.983,6.445,26.988,21.775" transform="translate(-517.459 -327.037)" fill="#fff"/>
                  <path id="Path_6877" data-name="Path 6877" d="M558.017,397.706a16.806,16.806,0,0,1,7.1-3.662,11.767,11.767,0,0,1,7.613.9s-2.04,6.954-5.634,7.91-9.079-5.153-9.079-5.153" transform="translate(-504.926 -297.376)"/>
                  <path id="Path_6878" data-name="Path 6878" d="M558.47,392.8c5.492,2.914,9.27-1.4,9.287-4.893" transform="translate(-504.32 -305.219)" fill="none" stroke="#000" stroke-linecap="round" stroke-linejoin="round" stroke-width="0.591"/>
                  <path id="Path_6879" data-name="Path 6879" d="M564.865,384.72l.131-.026a2.366,2.366,0,0,0,1.909-1.909,1.868,1.868,0,0,0,.026-.97c-.07-.206-.14-.414-.213-.622a2.468,2.468,0,0,0-.825-.942q-.284-.14-.561-.28a2.46,2.46,0,0,0-1.281-.091l-.128.026a1.863,1.863,0,0,0-.888.39,2.519,2.519,0,0,0-1.047,2.489l.21.622a2.5,2.5,0,0,0,.827.942l.561.28a2.427,2.427,0,0,0,1.278.091" transform="translate(-499.687 -316.008)" fill="#231f20"/>
                  <path id="Path_6880" data-name="Path 6880" d="M557.229,382.987q-2.243-.045-4.487-.093a.63.63,0,0,0-.657.565.618.618,0,0,0,.566.659c.6.012,1.208.023,1.811.037q-1.122.526-2.229,1.087a.613.613,0,0,0,.549,1.1q2.3-1.164,4.674-2.192a.617.617,0,0,0-.227-1.159" transform="translate(-513.097 -311.918)" fill="#231f20"/>
                  <path id="Path_6881" data-name="Path 6881" d="M556.681,387.912a22.11,22.11,0,0,0,3.225,8.424,4.359,4.359,0,0,0,3,2.169,2.508,2.508,0,0,0,2.743-1.673,5.516,5.516,0,0,0-.348-3.311,24.176,24.176,0,0,1-1.091-4.419,10.714,10.714,0,0,1,1.57-7.677,6.119,6.119,0,0,1,7.3-2.323c.722.32,1.119-.841.4-1.159a7.065,7.065,0,0,0-6.87.914,9.52,9.52,0,0,0-3.554,6.078,17.3,17.3,0,0,0,.921,8.462c.3.93.872,2.176.472,3.152-.5,1.222-2.066.729-2.786.033a12.1,12.1,0,0,1-2.334-3.952,22.019,22.019,0,0,1-1.447-4.954.614.614,0,0,0-1.2.236" transform="translate(-506.726 -319.233)" fill="#231f20"/>
                  <path id="Path_6882" data-name="Path 6882" d="M558.789,380.771a13.888,13.888,0,0,0-7.618,1.066c-.722.32-.175,1.418.547,1.1a12.68,12.68,0,0,1,6.98-.939c.781.114.869-1.11.091-1.222" transform="translate(-514.531 -314.945)" fill="#231f20"/>
                </g>
              </g>
            </g>
          </g>
        </g>
      </g>
    </g>
    <g id="Group_11524" data-name="Group 11524" transform="translate(595.342 510.81)">
      <g id="Group_11523" data-name="Group 11523" transform="translate(0 0)" clip-path="url(#clip-path-5)">
        <text id="olá_olá_olá_olá_olá_" data-name="olá,
olá,
olá,
olá,
olá_" transform="matrix(0.979, 0.204, -0.204, 0.979, 46.699, 16.294)" font-size="26" font-family="IBMPlexSerif-MediumItalic, IBM Plex Serif" font-weight="500" font-style="italic"><tspan x="0" y="0">olá,</tspan><tspan x="0" y="26">olá,</tspan><tspan x="0" y="52">olá,</tspan><tspan x="0" y="78">olá,</tspan><tspan x="0" y="104">olá_</tspan></text>
      </g>
    </g>
  </g>
</svg>
