<svg width="723" height="582" viewBox="0 0 723 582" fill="none" xmlns="http://www.w3.org/2000/svg">
<path fill-rule="evenodd" clip-rule="evenodd" d="M654.705 573C697.676 513.533 723 440.474 723 361.5C723 161.849 561.151 0 361.5 0C161.849 0 0 161.849 0 361.5C0 440.474 25.3242 513.533 68.295 573H654.705Z" fill="white"/>
<path d="M553.98 301.087C553.573 318.985 564.51 337.271 581.414 343.169C590.614 346.387 600.701 345.924 610.123 348.383C619.545 350.843 629.152 357.943 629.226 367.705C629.263 374.176 625.586 388.876 644.966 397.473C660.946 404.573 657.14 442.976 607.629 459.136C592.462 464.092 602.235 451.63 586.476 449.207C570.902 446.804 556.788 438.003 546.036 426.465C535.302 414.928 527.691 400.802 521.779 386.195C514.962 369.369 510.196 350.787 514.408 333.129C518.62 315.472 534.175 299.515 553.98 301.087V301.087Z" fill="black"/>
<path d="M601.939 461.281C598.669 461.281 597.468 459.506 596.194 456.973C594.845 454.292 593.33 451.26 586.328 450.187C571.623 447.913 557.065 439.741 545.334 427.149C535.801 416.906 527.802 403.63 520.874 386.564C512.191 365.135 509.826 348.088 513.447 332.908C515.646 323.681 520.708 315.25 527.691 309.167C535.358 302.492 544.484 299.349 554.035 300.107C554.553 300.144 554.941 300.588 554.941 301.105C554.516 319.373 565.785 336.679 581.71 342.245C586.735 344.001 592.185 344.648 597.431 345.296C601.699 345.813 606.096 346.35 610.345 347.44C619.841 349.918 630.113 357.332 630.168 367.705C630.168 368.556 630.113 369.517 630.057 370.552C629.669 377.579 629.004 389.338 645.335 396.586C651.303 399.23 654.739 406.034 654.314 414.317C653.575 428.684 640.975 449.281 607.906 460.079C605.338 460.911 603.417 461.281 601.921 461.281H601.939ZM551.283 301.956C532.79 301.956 519.063 317.728 515.35 333.351C511.821 348.125 514.149 364.784 522.684 385.825C529.501 402.669 537.39 415.741 546.756 425.8C558.192 438.077 572.343 446.046 586.624 448.246C594.623 449.485 596.545 453.294 597.949 456.086C599.39 458.951 600.184 460.542 607.334 458.212C639.461 447.728 651.691 427.963 652.393 414.225C652.781 406.755 649.788 400.691 644.578 398.379C627.009 390.577 627.711 377.967 628.136 370.442C628.191 369.388 628.247 368.5 628.247 367.705C628.191 358.368 618.677 351.638 609.883 349.326C605.763 348.254 601.44 347.736 597.228 347.219C591.871 346.571 586.31 345.906 581.082 344.075C564.64 338.344 552.945 320.741 552.982 301.993C552.41 301.956 551.855 301.956 551.301 301.956H551.283Z" fill="black"/>
<path d="M457.211 260.188C462.421 285.63 467.465 313.013 457.064 336.79C453.683 344.519 448.769 351.564 445.979 359.533C442.672 368.999 442.58 379.298 443.466 389.301C445.166 408.197 450.838 427.575 464.121 441.109C477.404 454.643 499.591 460.542 515.978 451.001C530.351 442.625 536.91 424.616 536.004 407.994C535.099 391.372 528.023 375.785 520.541 360.919C502.584 325.197 481.634 290.992 457.23 260.188H457.211Z" fill="black"/>
<path d="M493.957 384.272C494.419 370.719 492.756 363.12 492.202 352.969C497.67 350.232 503.582 348.328 509.623 347.348C512.339 346.904 515.387 346.738 517.475 348.383C518.786 349.419 524.975 343.946 525.622 345.444C530.037 355.798 530.407 370.552 534.822 380.907C535.155 381.702 550.618 380.26 550.969 381.073C552.41 384.438 551.209 412.505 550.137 413.227C493.588 450.853 466.338 397.03 466.338 397.03C466.338 397.03 476.591 390.743 493.957 384.272Z" fill="white"/>
<path d="M512.062 427.575C507.979 427.575 503.97 427.057 500.072 426.04C477.071 419.975 465.58 397.714 465.47 397.492C465.248 397.03 465.396 396.475 465.839 396.216C465.95 396.161 476.129 389.948 493.015 383.606C493.273 375.008 492.645 368.777 492.054 362.768C491.74 359.681 491.426 356.482 491.241 353.061C491.223 352.673 491.426 352.303 491.777 352.137C497.356 349.345 503.305 347.422 509.475 346.423C512.173 345.998 515.553 345.739 517.992 347.57C518.583 347.533 520.246 346.553 521.262 345.961C523.423 344.685 524.698 343.983 525.696 344.316C526.084 344.445 526.379 344.722 526.546 345.092C528.799 350.362 530.019 356.796 531.201 363.027C532.347 368.999 533.51 375.156 535.58 380.167C536.707 380.297 540.217 380.167 542.858 380.056C550.969 379.723 551.504 379.834 551.892 380.74C552.908 383.144 552.613 394.737 552.484 398.231C551.966 413.245 551.08 413.837 550.692 414.096C537.168 423.1 524.218 427.63 512.08 427.63L512.062 427.575ZM467.649 397.399C469.922 401.375 480.896 418.958 500.589 424.135C515.461 428.055 531.866 424.135 549.398 412.542C550.341 409.677 551.246 386.121 550.193 381.85C549.01 381.72 545.537 381.85 542.914 381.979C534.841 382.312 534.305 382.201 533.917 381.295C531.663 376.025 530.444 369.591 529.261 363.36C528.116 357.388 526.952 351.231 524.883 346.22C524.255 346.423 523.072 347.126 522.223 347.625C519.876 348.994 518.029 350.084 516.865 349.16C515.018 347.699 512.099 347.958 509.771 348.328C504.007 349.252 498.446 351.027 493.218 353.579C493.403 356.704 493.68 359.551 493.975 362.565C494.604 368.796 495.232 375.249 494.918 384.327C494.918 384.716 494.659 385.067 494.271 385.215C479.916 390.558 470.347 395.846 467.613 397.418L467.649 397.399Z" fill="black"/>
<path d="M451.355 266.437C453.018 278.992 455.549 292.175 452.316 304.674C450.542 311.497 450.708 346.165 478.512 356.038C493.126 361.234 509.9 360.161 524.975 351.009C535.192 344.796 547.606 325.53 545.131 306.393C553.592 308.742 561.961 303.028 562.053 295.411C562.109 291.029 557.268 285.519 552.169 285.777C548.216 285.962 547.736 286.018 544.743 288.311C542.692 279.343 541.436 270.191 541.602 259.873C531.996 249.279 516.569 243.861 501.162 241.55C496.063 240.792 490.835 240.311 485.662 240.959C470.864 242.808 449.674 253.55 451.374 266.437H451.355Z" fill="white"/>
<path d="M496.506 360.161C490.373 360.161 484.202 359.107 478.161 356.963C450.394 347.089 449.193 312.772 451.355 304.434C454.163 293.636 452.556 282.209 451.004 271.171C450.782 269.636 450.579 268.101 450.376 266.567C449.896 262.961 451.022 259.356 453.72 255.861C460.315 247.301 475.021 241.291 485.514 239.979C491.223 239.258 496.95 239.923 501.291 240.57C514.02 242.475 531.478 247.264 542.323 259.208C542.489 259.393 542.581 259.633 542.581 259.892C542.433 268.749 543.32 277.291 545.371 286.628C547.569 285.093 548.548 284.982 552.132 284.798C554.645 284.668 557.324 285.796 559.467 287.885C561.702 290.049 563.069 292.933 563.032 295.429C562.977 299.108 561.148 302.585 557.97 304.97C554.682 307.447 550.396 308.409 546.258 307.669C548.087 327.176 535.542 345.758 525.474 351.859C516.385 357.369 506.482 360.18 496.506 360.18V360.161ZM452.316 266.308C452.519 267.824 452.741 269.359 452.944 270.893C454.514 282.135 456.14 293.746 453.239 304.914C452.02 309.611 450.487 345.037 478.808 355.095C494.049 360.513 510.27 358.756 524.439 350.158C534.046 344.334 546.59 325.438 544.133 306.504C544.096 306.172 544.207 305.857 544.466 305.635C544.706 305.413 545.057 305.34 545.371 305.432C549.324 306.541 553.592 305.765 556.769 303.38C559.448 301.364 561 298.461 561.056 295.392C561.074 293.414 559.947 291.084 558.081 289.29C556.308 287.571 554.165 286.665 552.188 286.757C548.327 286.942 548.087 286.961 545.297 289.087C545.038 289.29 544.687 289.346 544.373 289.235C544.059 289.124 543.819 288.865 543.745 288.532C541.473 278.585 540.457 269.581 540.586 260.243C530.129 248.928 513.299 244.361 500.977 242.512C496.765 241.883 491.223 241.236 485.736 241.92C475.649 243.177 461.534 248.909 455.253 257.045C452.888 260.114 451.891 263.22 452.297 266.289L452.316 266.308Z" fill="black"/>
<path d="M512.043 317.191C507.997 317.191 504.062 315.694 500.774 312.883C496.95 309.611 494.474 304.914 493.79 299.682C492.386 288.828 499.259 278.973 509.087 277.716C513.872 277.106 518.62 278.567 522.481 281.876C526.305 285.149 528.781 289.845 529.464 295.078C530.148 300.31 528.929 305.469 526.065 309.611C523.183 313.789 518.952 316.415 514.168 317.043C513.447 317.136 512.745 317.173 512.043 317.173V317.191ZM511.23 279.546C510.602 279.546 509.992 279.583 509.364 279.676C500.607 280.804 494.511 289.679 495.767 299.441C496.377 304.193 498.612 308.446 502.067 311.404C505.503 314.344 509.715 315.657 513.927 315.121C518.158 314.566 521.89 312.236 524.458 308.52C527.044 304.785 528.134 300.107 527.524 295.355C526.915 290.603 524.68 286.351 521.225 283.392C518.306 280.896 514.814 279.565 511.23 279.565V279.546Z" fill="black"/>
<path d="M461.83 319.503C452.833 319.503 444.871 312.07 443.559 302.011C442.155 291.158 449.027 281.303 458.856 280.046C468.684 278.77 477.829 286.573 479.233 297.407C480.637 308.261 473.764 318.116 463.936 319.373C463.234 319.466 462.532 319.503 461.83 319.503V319.503ZM460.962 281.858C460.352 281.858 459.724 281.895 459.114 281.969C450.358 283.096 444.243 291.971 445.517 301.753C446.774 311.515 454.939 318.56 463.696 317.413C472.453 316.285 478.549 307.41 477.293 297.629C476.129 288.551 468.998 281.839 460.98 281.839L460.962 281.858Z" fill="black"/>
<path d="M525.64 231.011C543.302 231.011 557.619 216.682 557.619 199.006C557.619 181.329 543.302 167 525.64 167C507.979 167 493.661 181.329 493.661 199.006C493.661 216.682 507.979 231.011 525.64 231.011Z" fill="black"/>
<path d="M543.616 289.623C535.506 277.032 530.536 267.953 527.876 252.626C497.929 270.376 469.479 273.131 440.806 272.04C440.197 267.158 441.231 256.36 443.245 251.72C448.215 240.367 454.422 230.549 471.732 222.802C483.87 217.366 500.201 213.76 513.337 215.665C526.379 217.551 537.612 224.614 546.738 233.082C553.999 239.831 560.15 250.888 562.312 261.833C564.159 271.208 561.869 278.104 557.675 287.645C555.329 286.369 553.112 285.093 550.378 285.611C547.643 286.129 545.888 287.534 543.616 289.605V289.623Z" fill="black"/>
<path d="M477.533 294.449C476.997 294.449 476.554 294.024 476.554 293.488C476.499 290.733 479.196 288.81 481.893 288.126C486.29 286.998 491.297 288.163 494.622 291.065C495.028 291.417 495.065 292.045 494.714 292.452C494.363 292.859 493.735 292.896 493.329 292.545C490.465 290.049 486.161 289.069 482.373 290.03C480.434 290.529 478.494 291.861 478.512 293.469C478.512 294.005 478.087 294.449 477.552 294.468L477.533 294.449Z" fill="black"/>
<path d="M527.432 289.697C526.896 289.697 526.453 289.254 526.453 288.717C526.453 288.181 526.896 287.737 527.432 287.737L542.23 287.7C542.766 287.7 543.209 288.144 543.209 288.68C543.209 289.217 542.766 289.66 542.23 289.66L527.432 289.697Z" fill="black"/>
<path d="M544.946 299.941C544.41 299.941 543.967 299.497 543.985 298.942C544.022 295.318 543.302 291.639 541.879 288.292C541.676 287.793 541.898 287.22 542.397 286.998C542.895 286.794 543.468 287.016 543.69 287.515C545.205 291.102 545.981 295.059 545.944 298.942C545.944 299.478 545.5 299.922 544.964 299.922L544.946 299.941Z" fill="black"/>
<path d="M653.39 500.072C640.31 464.258 633.068 428.924 602.198 403.131C587.381 390.743 569.498 381.961 548.899 380.648C547.643 400.617 524.476 413.763 512.043 415.242C505.281 416.055 480.175 419.402 480.175 389.763C471.991 393.036 444.723 396.383 433.804 429.997C429.334 443.734 421.334 496.356 394.934 526.845C388.709 534.038 382.945 486.131 373.966 489.311C365.172 492.436 355.03 497.687 354.365 507.006C353.847 514.272 359.833 520.596 366.521 523.48C380.894 529.656 386.27 559.609 401.77 561.791C417.879 564.065 443.577 570 463.049 509.095C472.988 519.043 479.417 529.748 490.576 535.757C522.74 553.101 629.743 572.589 647.164 575.677C648.605 575.935 651.894 574.752 652.485 573.402C656.143 564.823 665.731 533.798 653.409 500.054L653.39 500.072Z" fill="#FFD42E"/>
<path d="M647.589 576.712C647.367 576.712 647.183 576.712 646.998 576.656C626.418 572.996 522.112 553.896 490.114 536.626C482.392 532.466 476.905 526.106 471.104 519.394C468.702 516.621 466.227 513.736 463.493 510.926C455.198 536.257 445.129 552.102 432.733 559.35C421.907 565.692 411.561 564.176 403.266 562.974C402.712 562.9 402.176 562.808 401.641 562.734C392.884 561.495 387.267 551.991 381.836 542.802C377.273 535.073 372.543 527.104 366.151 524.349C359.39 521.446 352.831 514.92 353.404 506.914C353.958 499.074 360.591 493.009 373.652 488.368C374.594 488.036 375.555 488.091 376.497 488.572C380.617 490.624 383.776 500.757 386.824 510.556C388.875 517.157 391.701 526.18 393.586 526.568C393.77 526.605 394.029 526.383 394.195 526.18C415.219 501.884 424.623 462.908 429.685 441.959C430.978 436.634 431.994 432.419 432.881 429.664C442.45 400.228 464.767 393.498 475.482 390.244C477.219 389.726 478.734 389.264 479.824 388.82C480.119 388.691 480.47 388.746 480.729 388.913C481.006 389.098 481.154 389.393 481.154 389.726C481.154 398.712 483.519 405.368 488.193 409.51C495.693 416.166 507.314 414.78 511.692 414.244H511.914C523.811 412.801 546.664 399.969 547.902 380.537C547.902 380.278 548.031 380.038 548.234 379.871C548.437 379.705 548.678 379.612 548.936 379.631C568.113 380.87 586.236 388.506 602.807 402.355C628.505 423.821 637.872 451.611 647.811 481.028C649.88 487.13 652.005 493.453 654.295 499.703C665.472 530.284 658.969 560.644 653.353 573.772C652.633 575.455 649.474 576.675 647.552 576.675L647.589 576.712ZM463.068 508.115C463.326 508.115 463.566 508.208 463.77 508.411C467.003 511.647 469.848 514.938 472.6 518.118C478.29 524.701 483.648 530.913 491.056 534.907C522.795 552.028 626.824 571.091 647.349 574.734C648.513 574.937 651.247 573.846 651.58 573.033C652.189 571.627 666.211 537.976 652.466 500.405C650.176 494.119 648.033 487.795 645.963 481.675C636.117 452.517 626.824 424.986 601.551 403.871C585.589 390.54 568.168 383.07 549.768 381.665C548.678 392.74 541.325 400.783 535.247 405.609C528.227 411.193 519.156 415.353 512.154 416.185H511.932C507.314 416.758 495.065 418.237 486.9 410.989C482.041 406.681 479.454 399.988 479.214 391.131C478.291 391.446 477.219 391.779 476.037 392.13C464.841 395.513 443.984 401.818 434.728 430.274C433.86 432.955 432.844 437.134 431.569 442.422C426.47 463.518 416.993 502.809 395.655 527.456C394.713 528.546 393.77 528.62 393.161 528.491C390.297 527.899 388.265 521.816 384.94 511.148C382.279 502.624 378.973 492.011 375.592 490.328C375.13 490.106 374.723 490.07 374.28 490.217C362.032 494.581 355.824 500.091 355.325 507.061C354.827 514.088 360.979 520.023 366.89 522.556C373.874 525.551 378.751 533.816 383.48 541.804C388.93 550.993 394.066 559.683 401.881 560.792C402.416 560.866 402.971 560.94 403.525 561.033C419.45 563.362 443.522 566.857 462.088 508.781C462.199 508.448 462.458 508.208 462.791 508.134C462.864 508.115 462.938 508.115 463.012 508.115H463.068Z" fill="black"/>
<path d="M615 534.611C585.626 532.966 556.086 530.95 526.527 528.916C523.885 528.473 510.731 526.605 507.498 526.124C504.746 525.718 502.122 524.701 499.61 523.536C490.816 519.468 471.954 511.499 467.76 513.866C458.061 516.713 449.286 523.721 442.413 532.596C438.552 537.569 435.393 545.816 437 547.239C438.016 548.145 439.55 548.515 440.677 547.572C445.24 537.773 453.387 529.693 463.234 525.2C458.652 527.788 454.403 530.932 450.579 534.519C446.699 538.161 443.134 542.562 442.265 547.831C442.192 548.238 442.155 548.682 442.376 549.051C442.912 549.92 444.242 549.421 445.055 548.793C446.625 547.572 466.836 531.135 470.605 531.579C465.58 533.483 447.678 548.016 447.604 549.551C447.568 550.29 447.715 551.067 448.177 551.64C448.805 552.435 449.932 552.675 450.93 552.509C451.927 552.343 452.833 551.825 453.683 551.307C459.465 547.794 464.749 543.394 470.993 540.787C474.115 539.492 477.921 538.734 480.692 540.676C475.131 542.783 469.921 545.853 465.543 549.884C464.841 550.531 464.268 551.289 463.806 552.102C463.123 553.341 462.347 555.116 463.308 556.133C464.859 557.797 466.19 556.965 467.52 556.17C472.877 552.638 478.346 549.717 484.073 547.443C485.846 546.74 487.971 546.112 489.578 547.147C490.964 548.035 497.707 552.232 511.563 552.953C516.292 553.193 520.855 554.432 526.767 556.059C604.636 577.544 627.895 586.105 646.776 577.988C650.471 576.398 651.709 574.456 650.489 568.114C647.201 551.178 643.986 541.545 615.056 534.63L615 534.611Z" fill="white"/>
<path d="M630.907 582C615.998 582 594.753 576.046 554.793 564.879C546.368 562.53 536.836 559.849 526.453 556.984C520.948 555.467 516.2 554.155 511.47 553.914C498.52 553.249 491.444 549.532 489.006 547.961C487.768 547.165 485.883 547.739 484.387 548.349C478.808 550.568 473.45 553.397 468.019 556.984L467.871 557.076C466.578 557.834 464.601 558.999 462.55 556.799C460.962 555.116 462.439 552.491 462.92 551.622C463.437 550.679 464.102 549.847 464.86 549.162C468.665 545.668 473.118 542.82 478.143 540.639C475.907 540.158 473.321 540.879 471.344 541.693C467.28 543.394 463.511 545.945 459.872 548.404C458.024 549.662 456.103 550.956 454.163 552.139C453.221 552.712 452.223 553.286 451.059 553.47C449.6 553.711 448.177 553.249 447.383 552.25C446.81 551.548 446.552 550.586 446.589 549.495C446.589 549.218 446.829 548.793 447.272 548.219C446.958 548.478 446.625 548.737 446.293 548.996C445.96 549.255 445.72 549.44 445.609 549.551C444.907 550.105 443.799 550.623 442.801 550.457C442.247 550.346 441.785 550.05 441.49 549.551C441.249 549.162 441.194 548.756 441.194 548.386C439.827 549.458 437.832 549.292 436.335 547.961C433.767 545.686 438.367 536.183 441.637 531.985C449.138 522.315 458.024 515.733 467.391 512.941C472.416 510.408 491.851 518.858 500.016 522.63C502.067 523.573 504.783 524.719 507.646 525.126C508.496 525.255 510.048 525.477 511.932 525.754C516.994 526.494 524.624 527.585 526.656 527.918C555.532 529.896 585.386 531.949 615.074 533.613C615.13 533.613 615.185 533.613 615.241 533.631C644.763 540.676 648.069 550.734 651.395 567.874C652.633 574.253 651.598 576.915 647.109 578.838C642.213 580.946 637.114 581.982 630.925 581.982L630.907 582ZM487.509 545.594C488.377 545.594 489.246 545.779 490.04 546.296C492.349 547.776 499.074 551.289 511.563 551.936C516.514 552.195 521.354 553.526 526.97 555.079C537.353 557.945 546.904 560.607 555.328 562.974C611.416 578.672 630.297 583.96 646.333 577.063C649.363 575.75 650.674 574.456 649.473 568.281C646.203 551.474 643.192 542.377 614.871 535.591C585.183 533.927 555.347 531.875 526.472 529.896C526.435 529.896 526.416 529.896 526.379 529.896C524.439 529.582 516.735 528.454 511.637 527.733C509.771 527.456 508.219 527.234 507.351 527.104C504.228 526.642 501.346 525.44 499.185 524.442C486.013 518.359 471.326 512.997 468.222 514.735C468.166 514.772 468.093 514.79 468.019 514.827C459.151 517.434 450.32 523.961 443.171 533.206C439.106 538.457 436.908 545.538 437.647 546.518C438.238 547.036 439.162 547.369 439.882 546.925C444.556 537.07 452.888 528.824 462.809 524.312C463.289 524.09 463.844 524.294 464.084 524.756C464.324 525.218 464.158 525.791 463.696 526.05C459.188 528.602 454.994 531.69 451.226 535.24C446.459 539.733 443.91 543.782 443.208 547.998C443.134 548.404 443.171 548.515 443.189 548.534C443.3 548.571 443.873 548.441 444.427 547.998C444.538 547.905 444.778 547.72 445.092 547.461C466.799 530.137 469.718 530.469 470.679 530.58C471.122 530.636 471.492 530.987 471.547 531.431C471.603 531.875 471.344 532.318 470.919 532.466C466.171 534.26 449.858 547.498 448.565 549.717C448.565 550.253 448.695 550.716 448.916 551.011C449.323 551.511 450.136 551.64 450.745 551.529C451.558 551.4 452.352 550.937 453.165 550.457C455.068 549.292 456.953 548.016 458.782 546.777C462.495 544.263 466.338 541.637 470.605 539.881C473.653 538.605 477.958 537.588 481.228 539.881C481.523 540.084 481.69 540.454 481.634 540.805C481.597 541.175 481.357 541.471 481.006 541.6C475.316 543.763 470.328 546.796 466.171 550.605C465.562 551.159 465.044 551.825 464.619 552.583C463.825 554.007 463.585 555.042 463.973 555.467C464.915 556.484 465.506 556.188 466.873 555.393L466.966 555.338C472.471 551.714 477.939 548.811 483.648 546.537C484.812 546.075 486.179 545.631 487.509 545.631V545.594Z" fill="black"/>
<path d="M420.595 572.57C444.963 573.088 469.349 573.624 493.717 574.142L493.809 561.717L412.411 559.72L420.577 572.57H420.595Z" fill="black"/>
<path d="M212.796 459.062L371.767 459.931L426.562 572.57L269.087 572.164L212.796 459.062Z" fill="white"/>
<path d="M426.562 573.55L269.087 573.162C268.718 573.162 268.385 572.959 268.219 572.626L211.928 459.525C211.78 459.21 211.799 458.859 211.965 458.563C212.15 458.267 212.464 458.101 212.796 458.101L371.768 458.97C372.137 458.97 372.488 459.192 372.636 459.525L427.431 572.145C427.579 572.441 427.56 572.811 427.375 573.088C427.191 573.365 426.877 573.55 426.544 573.55H426.562ZM269.697 571.184L424.992 571.572L371.158 460.911L214.385 460.042L269.697 571.184V571.184Z" fill="black"/>
<path d="M313.352 504.954C308.844 504.51 303.911 505.712 302.064 509.872C300.216 514.032 301.639 519.228 304.983 522.278C308.327 525.329 313.278 526.328 317.712 525.329C320.095 524.793 322.459 523.628 323.845 521.594C324.806 520.189 325.212 518.451 325.212 516.75C325.249 511.166 322.7 505.86 313.352 504.954V504.954Z" fill="white"/>
<path d="M314.331 526.679C310.562 526.679 306.941 525.385 304.336 523C300.567 519.56 299.237 513.866 301.177 509.465C302.951 505.453 307.551 503.401 313.444 503.974C324.048 505.009 326.228 511.499 326.191 516.769C326.191 518.821 325.637 520.688 324.658 522.149C322.921 524.701 320.039 525.81 317.933 526.291C316.732 526.568 315.532 526.697 314.331 526.697V526.679ZM311.652 505.86C309.01 505.86 304.65 506.47 302.969 510.279C301.362 513.921 302.489 518.673 305.648 521.557C308.622 524.275 313.167 525.348 317.49 524.368C319.984 523.813 321.961 522.63 323.032 521.04C324.011 519.597 324.233 517.915 324.233 516.75C324.27 510.205 320.686 506.655 313.259 505.934C312.871 505.897 312.317 505.86 311.652 505.86Z" fill="black"/>
<path d="M597.469 534.574C597.062 534.574 596.674 534.315 596.545 533.908C585.479 500.387 579.234 479.179 579.234 433.232C579.234 432.696 579.678 432.252 580.213 432.252C580.749 432.252 581.193 432.696 581.193 433.232C581.193 478.902 587.419 499.98 598.411 533.298C598.577 533.816 598.3 534.371 597.783 534.537C597.672 534.574 597.579 534.593 597.469 534.593V534.574Z" fill="black"/>
<path d="M463.049 510.075C462.735 510.075 462.44 509.927 462.236 509.65C447.993 489.127 451.835 474.094 455.567 459.562C457.433 452.277 459.373 444.751 459.059 436.524C459.04 435.987 459.465 435.525 460.001 435.507C460.555 435.47 460.999 435.913 461.017 436.45C461.331 444.973 459.373 452.628 457.47 460.042C453.683 474.797 450.117 488.738 463.844 508.522C464.158 508.966 464.047 509.576 463.604 509.89C463.437 510.001 463.234 510.075 463.049 510.075V510.075Z" fill="black"/>
<path d="M509.531 459.617C495.102 459.617 480.656 458.304 466.634 454.791C466.467 454.754 466.356 454.569 466.393 454.403C466.43 454.237 466.615 454.126 466.781 454.163C502.363 463.093 540.771 457.713 574.634 452.961C574.801 452.942 574.985 453.053 575.004 453.238C575.022 453.423 574.912 453.589 574.727 453.608C554.128 456.492 531.848 459.617 509.531 459.617V459.617Z" fill="black"/>
<path d="M522.536 487.388C501.328 487.388 480.119 484.874 459.594 479.845C459.428 479.808 459.317 479.623 459.354 479.456C459.391 479.29 459.576 479.179 459.742 479.216C497.411 488.424 537.427 489.2 575.41 481.416C575.595 481.379 575.761 481.49 575.798 481.675C575.835 481.86 575.724 482.026 575.539 482.063C558.155 485.632 540.346 487.407 522.536 487.407V487.388Z" fill="black"/>
<path d="M655.829 543.763C655.829 543.763 655.644 543.726 655.589 543.652C642.269 527.955 620.561 520.06 600.277 523.517C600.11 523.554 599.926 523.425 599.907 523.258C599.87 523.073 600 522.907 600.166 522.889C620.672 519.394 642.62 527.382 656.069 543.246C656.18 543.375 656.162 543.597 656.032 543.708C655.977 543.763 655.903 543.782 655.829 543.782V543.763Z" fill="black"/>
<path d="M653.409 529.286C653.409 529.286 653.335 529.286 653.279 529.268C651.118 528.399 649.363 526.827 647.682 525.311C647.09 524.775 646.481 524.238 645.853 523.721C642.065 520.614 637.521 518.599 632.681 517.896C632.496 517.878 632.385 517.712 632.403 517.527C632.422 517.342 632.607 517.231 632.773 517.249C637.724 517.989 642.379 520.041 646.259 523.221C646.887 523.739 647.497 524.294 648.107 524.83C649.769 526.309 651.469 527.844 653.52 528.657C653.686 528.731 653.76 528.916 653.704 529.083C653.649 529.212 653.538 529.286 653.409 529.286Z" fill="black"/>
<path d="M345.139 459.706C344.661 459.706 344.271 459.315 344.271 458.838V365.726H256.489V458.848C256.489 459.326 256.099 459.717 255.621 459.717C255.143 459.717 254.752 459.326 254.752 458.848V364.868C254.752 364.391 255.143 364 255.621 364H345.139C345.617 364 346.007 364.391 346.007 364.868V458.848C346.007 459.326 345.617 459.717 345.139 459.717V459.706Z" fill="black"/>
<path d="M336.139 459.706H264.62C264.143 459.706 263.752 459.316 263.752 458.838V373.26C263.752 372.783 264.143 372.392 264.62 372.392H336.139C336.617 372.392 337.008 372.783 337.008 373.26V458.849C337.008 459.326 336.617 459.717 336.139 459.717V459.706ZM265.478 457.98H335.282V374.129H265.489V457.98H265.478Z" fill="black"/>
<path d="M352.282 451.357C351.804 451.357 351.414 450.966 351.414 450.488V428.635C351.414 428.158 351.804 427.767 352.282 427.767C352.76 427.767 353.151 428.158 353.151 428.635V450.488C353.151 450.966 352.76 451.357 352.282 451.357Z" fill="black"/>
<path d="M248.868 451.357C248.391 451.357 248 450.966 248 450.488V428.635C248 428.158 248.391 427.767 248.868 427.767C249.346 427.767 249.737 428.158 249.737 428.635V450.488C249.737 450.966 249.346 451.357 248.868 451.357Z" fill="black"/>
<path d="M319.139 430.068H281.621C281.143 430.068 280.752 429.677 280.752 429.2V384.332C280.752 383.854 281.143 383.464 281.621 383.464H319.139C319.617 383.464 320.008 383.854 320.008 384.332V429.2C320.008 429.677 319.617 430.068 319.139 430.068ZM282.489 428.342H318.271V385.2H282.489V428.342Z" fill="black"/>
<path d="M316.414 459.706H284.356C283.879 459.706 283.488 459.315 283.488 458.837V444.953C283.488 444.475 283.879 444.084 284.356 444.084H316.414C316.892 444.084 317.282 444.475 317.282 444.953V458.837C317.282 459.315 316.892 459.706 316.414 459.706ZM285.214 457.98H315.545V445.821H285.214V457.98Z" fill="black"/>
<path d="M319.139 430.287H281.708C281.23 430.287 280.839 429.896 280.839 429.418C280.839 421.298 285.735 414.155 293.172 411.213C291.478 409.4 290.534 407.022 290.534 404.493C290.534 399.054 294.963 394.625 300.402 394.625C305.841 394.625 310.27 399.054 310.27 404.493C310.27 407.022 309.325 409.4 307.621 411.213C315.046 414.155 319.953 421.298 319.997 429.418C319.997 429.646 319.91 429.874 319.747 430.037C319.584 430.2 319.367 430.287 319.128 430.287H319.139ZM282.598 428.561H318.249C317.858 421.081 312.919 414.643 305.721 412.385C305.417 412.287 305.189 412.027 305.135 411.712C305.081 411.397 305.2 411.072 305.45 410.876C307.415 409.324 308.544 407.001 308.544 404.504C308.544 400.02 304.896 396.373 300.413 396.373C295.929 396.373 292.282 400.02 292.282 404.504C292.282 407.001 293.411 409.324 295.375 410.876C295.625 411.072 295.745 411.397 295.69 411.712C295.636 412.027 295.408 412.287 295.093 412.385C287.896 414.632 282.967 421.07 282.609 428.561H282.598Z" fill="black"/>
</svg>
