<svg xmlns="http://www.w3.org/2000/svg" width="1080" height="1400" viewBox="0 0 1080 1400">
<defs>
<linearGradient id="bg" x1="0" y1="0" x2="1" y2="1">
  <stop offset="0" stop-color="#061c32"/><stop offset="0.5" stop-color="#04223b"/><stop offset="1" stop-color="#061626"/></linearGradient>
<radialGradient id="glow" cx="50%" cy="0%" r="70%">
  <stop offset="0" stop-color="#0a6fb0" stop-opacity="0.55"/><stop offset="0.5" stop-color="#0560a9" stop-opacity="0.12"/><stop offset="1" stop-color="#061c32" stop-opacity="0"/></radialGradient>
</defs>
<rect width="1080" height="1400" fill="url(#bg)"/>
<rect width="1080" height="1400" fill="url(#glow)"/>
<text x="540" y="74" font-family="'JetBrains Mono',ui-monospace,Menlo,monospace" font-size="16" font-weight="700" fill="#00c8ff" text-anchor="middle" letter-spacing="3">// COMO FUNCIONA · 41 VERSÕES NO AR</text><text x="540" y="128" font-family="Inter,-apple-system,'Helvetica Neue',Arial" font-size="52" font-weight="800" fill="#eaf4ff" text-anchor="middle" letter-spacing="-1.2">O currículo camaleão</text><text x="540" y="166" font-family="Inter,-apple-system,'Helvetica Neue',Arial" font-size="22" font-weight="500" fill="#8fb2cf" text-anchor="middle">um site que veste a identidade visual de cada empresa que o abre</text><rect x="290" y="200" width="500" height="94" rx="18" fill="rgba(255,255,255,0.045)" stroke="rgba(120,190,255,0.16)" stroke-width="1.4"/><rect x="314" y="223" width="48" height="48" rx="11" fill="#0A66C2"/><text x="338" y="255" font-family="Inter,-apple-system,'Helvetica Neue',Arial" font-size="24" font-weight="800" fill="#fff" text-anchor="middle">in</text><text x="382" y="240" font-family="Inter,-apple-system,'Helvetica Neue',Arial" font-size="22" font-weight="700" fill="#eaf4ff" text-anchor="start">Recrutador vê o post no LinkedIn</text><text x="382" y="269" font-family="Inter,-apple-system,'Helvetica Neue',Arial" font-size="17" font-weight="500" fill="#8fb2cf" text-anchor="start">e clica no link do projeto</text><line x1="540" y1="294" x2="540" y2="319" stroke="#00c8ff" stroke-width="2.4" opacity="0.8"/><path d="M534 317 L540 326 L546 317 Z" fill="#00c8ff"/><rect x="274" y="328" width="532" height="116" rx="18" fill="rgba(255,255,255,0.045)" stroke="rgba(120,190,255,0.16)" stroke-width="1.4"/><text x="300" y="366" font-family="Inter,-apple-system,'Helvetica Neue',Arial" font-size="20" font-weight="700" fill="#eaf4ff" text-anchor="start">Abre o site (41 versões) e busca a empresa dele</text><rect x="300" y="384" width="480" height="40" rx="12" fill="rgba(0,0,0,0.28)" stroke="rgba(120,190,255,0.16)" stroke-width="1"/><g stroke="#00c8ff" stroke-width="2.6" fill="none" stroke-linecap="round"><circle cx="325" cy="401" r="8"/><line x1="331" y1="407" x2="338" y2="414"/></g><text x="352" y="410" font-family="Inter,-apple-system,'Helvetica Neue',Arial" font-size="18" font-weight="600" fill="#cfe8ff" text-anchor="start">nubank · ifood · itaú · google · magalu …</text><path d="M540 444 C 540 492, 156 482, 156 532" fill="none" stroke="#00c8ff" stroke-width="2" opacity="0.55"/><circle cx="156" cy="534" r="4.5" fill="#9b3fe4"/><path d="M540 444 C 540 492, 412 482, 412 532" fill="none" stroke="#00c8ff" stroke-width="2" opacity="0.55"/><circle cx="412" cy="534" r="4.5" fill="#ff3b46"/><path d="M540 444 C 540 492, 668 482, 668 532" fill="none" stroke="#00c8ff" stroke-width="2" opacity="0.55"/><circle cx="668" cy="534" r="4.5" fill="#ff7a1a"/><path d="M540 444 C 540 492, 924 482, 924 532" fill="none" stroke="#00c8ff" stroke-width="2" opacity="0.55"/><circle cx="924" cy="534" r="4.5" fill="#5a97ff"/><rect x="38" y="540" width="236" height="150" rx="16" fill="rgba(255,255,255,0.045)" stroke="rgba(120,190,255,0.16)" stroke-width="1.4"/><path d="M38 556 a16 16 0 0 1 16 -16 h204 a16 16 0 0 1 16 16 v38 h-236 Z" fill="#9b3fe4"/><text x="56" y="575" font-family="Inter,-apple-system,'Helvetica Neue',Arial" font-size="23" font-weight="800" fill="#fff" text-anchor="start">Nubank</text><text x="56" y="624" font-family="Inter,-apple-system,'Helvetica Neue',Arial" font-size="17" font-weight="700" fill="#eaf4ff" text-anchor="start">Pedro Marconato</text><text x="56" y="646" font-family="Inter,-apple-system,'Helvetica Neue',Arial" font-size="14" font-weight="500" fill="#8fb2cf" text-anchor="start">CV com a marca dele</text><text x="56" y="672" font-family="'JetBrains Mono',ui-monospace,Menlo,monospace" font-size="13" font-weight="700" fill="#9b3fe4" text-anchor="start">cores · gradiente · tagline</text><line x1="156" y1="690" x2="156" y2="719" stroke="#00c8ff" stroke-width="2.4" opacity="0.8"/><path d="M150 717 L156 726 L162 717 Z" fill="#00c8ff"/><rect x="294" y="540" width="236" height="150" rx="16" fill="rgba(255,255,255,0.045)" stroke="rgba(120,190,255,0.16)" stroke-width="1.4"/><path d="M294 556 a16 16 0 0 1 16 -16 h204 a16 16 0 0 1 16 16 v38 h-236 Z" fill="#ff3b46"/><text x="312" y="575" font-family="Inter,-apple-system,'Helvetica Neue',Arial" font-size="23" font-weight="800" fill="#fff" text-anchor="start">iFood</text><text x="312" y="624" font-family="Inter,-apple-system,'Helvetica Neue',Arial" font-size="17" font-weight="700" fill="#eaf4ff" text-anchor="start">Pedro Marconato</text><text x="312" y="646" font-family="Inter,-apple-system,'Helvetica Neue',Arial" font-size="14" font-weight="500" fill="#8fb2cf" text-anchor="start">CV com a marca dele</text><text x="312" y="672" font-family="'JetBrains Mono',ui-monospace,Menlo,monospace" font-size="13" font-weight="700" fill="#ff3b46" text-anchor="start">cores · gradiente · tagline</text><line x1="412" y1="690" x2="412" y2="719" stroke="#00c8ff" stroke-width="2.4" opacity="0.8"/><path d="M406 717 L412 726 L418 717 Z" fill="#00c8ff"/><rect x="550" y="540" width="236" height="150" rx="16" fill="rgba(255,255,255,0.045)" stroke="rgba(120,190,255,0.16)" stroke-width="1.4"/><path d="M550 556 a16 16 0 0 1 16 -16 h204 a16 16 0 0 1 16 16 v38 h-236 Z" fill="#ff7a1a"/><text x="568" y="575" font-family="Inter,-apple-system,'Helvetica Neue',Arial" font-size="23" font-weight="800" fill="#fff" text-anchor="start">Itaú</text><text x="568" y="624" font-family="Inter,-apple-system,'Helvetica Neue',Arial" font-size="17" font-weight="700" fill="#eaf4ff" text-anchor="start">Pedro Marconato</text><text x="568" y="646" font-family="Inter,-apple-system,'Helvetica Neue',Arial" font-size="14" font-weight="500" fill="#8fb2cf" text-anchor="start">CV com a marca dele</text><text x="568" y="672" font-family="'JetBrains Mono',ui-monospace,Menlo,monospace" font-size="13" font-weight="700" fill="#ff7a1a" text-anchor="start">cores · gradiente · tagline</text><line x1="668" y1="690" x2="668" y2="719" stroke="#00c8ff" stroke-width="2.4" opacity="0.8"/><path d="M662 717 L668 726 L674 717 Z" fill="#00c8ff"/><rect x="806" y="540" width="236" height="150" rx="16" fill="rgba(255,255,255,0.045)" stroke="rgba(120,190,255,0.16)" stroke-width="1.4"/><path d="M806 556 a16 16 0 0 1 16 -16 h204 a16 16 0 0 1 16 16 v38 h-236 Z" fill="#5a97ff"/><text x="824" y="575" font-family="Inter,-apple-system,'Helvetica Neue',Arial" font-size="23" font-weight="800" fill="#fff" text-anchor="start">Google</text><text x="824" y="624" font-family="Inter,-apple-system,'Helvetica Neue',Arial" font-size="17" font-weight="700" fill="#eaf4ff" text-anchor="start">Pedro Marconato</text><text x="824" y="646" font-family="Inter,-apple-system,'Helvetica Neue',Arial" font-size="14" font-weight="500" fill="#8fb2cf" text-anchor="start">CV com a marca dele</text><text x="824" y="672" font-family="'JetBrains Mono',ui-monospace,Menlo,monospace" font-size="13" font-weight="700" fill="#5a97ff" text-anchor="start">cores · gradiente · tagline</text><line x1="924" y1="690" x2="924" y2="719" stroke="#00c8ff" stroke-width="2.4" opacity="0.8"/><path d="M918 717 L924 726 L930 717 Z" fill="#00c8ff"/><rect x="38" y="730" width="236" height="100" rx="14" fill="rgba(255,255,255,0.045)" stroke="rgba(120,190,255,0.16)" stroke-width="1.4"/><g><path d="M60 760 a4 4 0 0 1 4 -4 h20 l10 10 v30 a4 4 0 0 1 -4 4 h-26 a4 4 0 0 1 -4 -4 Z" fill="none" stroke="#9b3fe4" stroke-width="2.2"/><path d="M84 756 v8 a2 2 0 0 0 2 2 h8" fill="none" stroke="#9b3fe4" stroke-width="2.2"/><rect x="66" y="782" width="26" height="12" rx="2" fill="#9b3fe4"/><text x="79" y="791" font-family="Inter,-apple-system,'Helvetica Neue',Arial" font-size="8.5" font-weight="800" fill="#061c32" text-anchor="middle">PDF</text></g><text x="116" y="772" font-family="Inter,-apple-system,'Helvetica Neue',Arial" font-size="17" font-weight="800" fill="#eaf4ff" text-anchor="start">Imprime</text><text x="116" y="794" font-family="Inter,-apple-system,'Helvetica Neue',Arial" font-size="13.5" font-weight="500" fill="#8fb2cf" text-anchor="start">PDF com a marca</text><text x="116" y="812" font-family="Inter,-apple-system,'Helvetica Neue',Arial" font-size="13.5" font-weight="500" fill="#8fb2cf" text-anchor="start">da empresa</text><rect x="294" y="730" width="236" height="100" rx="14" fill="rgba(255,255,255,0.045)" stroke="rgba(120,190,255,0.16)" stroke-width="1.4"/><g><path d="M316 760 a4 4 0 0 1 4 -4 h20 l10 10 v30 a4 4 0 0 1 -4 4 h-26 a4 4 0 0 1 -4 -4 Z" fill="none" stroke="#ff3b46" stroke-width="2.2"/><path d="M340 756 v8 a2 2 0 0 0 2 2 h8" fill="none" stroke="#ff3b46" stroke-width="2.2"/><rect x="322" y="782" width="26" height="12" rx="2" fill="#ff3b46"/><text x="335" y="791" font-family="Inter,-apple-system,'Helvetica Neue',Arial" font-size="8.5" font-weight="800" fill="#061c32" text-anchor="middle">PDF</text></g><text x="372" y="772" font-family="Inter,-apple-system,'Helvetica Neue',Arial" font-size="17" font-weight="800" fill="#eaf4ff" text-anchor="start">Imprime</text><text x="372" y="794" font-family="Inter,-apple-system,'Helvetica Neue',Arial" font-size="13.5" font-weight="500" fill="#8fb2cf" text-anchor="start">PDF com a marca</text><text x="372" y="812" font-family="Inter,-apple-system,'Helvetica Neue',Arial" font-size="13.5" font-weight="500" fill="#8fb2cf" text-anchor="start">da empresa</text><rect x="550" y="730" width="236" height="100" rx="14" fill="rgba(255,255,255,0.045)" stroke="rgba(120,190,255,0.16)" stroke-width="1.4"/><g><path d="M572 760 a4 4 0 0 1 4 -4 h20 l10 10 v30 a4 4 0 0 1 -4 4 h-26 a4 4 0 0 1 -4 -4 Z" fill="none" stroke="#ff7a1a" stroke-width="2.2"/><path d="M596 756 v8 a2 2 0 0 0 2 2 h8" fill="none" stroke="#ff7a1a" stroke-width="2.2"/><rect x="578" y="782" width="26" height="12" rx="2" fill="#ff7a1a"/><text x="591" y="791" font-family="Inter,-apple-system,'Helvetica Neue',Arial" font-size="8.5" font-weight="800" fill="#061c32" text-anchor="middle">PDF</text></g><text x="628" y="772" font-family="Inter,-apple-system,'Helvetica Neue',Arial" font-size="17" font-weight="800" fill="#eaf4ff" text-anchor="start">Imprime</text><text x="628" y="794" font-family="Inter,-apple-system,'Helvetica Neue',Arial" font-size="13.5" font-weight="500" fill="#8fb2cf" text-anchor="start">PDF com a marca</text><text x="628" y="812" font-family="Inter,-apple-system,'Helvetica Neue',Arial" font-size="13.5" font-weight="500" fill="#8fb2cf" text-anchor="start">da empresa</text><rect x="806" y="730" width="236" height="100" rx="14" fill="rgba(255,255,255,0.045)" stroke="rgba(120,190,255,0.16)" stroke-width="1.4"/><g><path d="M828 760 a4 4 0 0 1 4 -4 h20 l10 10 v30 a4 4 0 0 1 -4 4 h-26 a4 4 0 0 1 -4 -4 Z" fill="none" stroke="#5a97ff" stroke-width="2.2"/><path d="M852 756 v8 a2 2 0 0 0 2 2 h8" fill="none" stroke="#5a97ff" stroke-width="2.2"/><rect x="834" y="782" width="26" height="12" rx="2" fill="#5a97ff"/><text x="847" y="791" font-family="Inter,-apple-system,'Helvetica Neue',Arial" font-size="8.5" font-weight="800" fill="#061c32" text-anchor="middle">PDF</text></g><text x="884" y="772" font-family="Inter,-apple-system,'Helvetica Neue',Arial" font-size="17" font-weight="800" fill="#eaf4ff" text-anchor="start">Imprime</text><text x="884" y="794" font-family="Inter,-apple-system,'Helvetica Neue',Arial" font-size="13.5" font-weight="500" fill="#8fb2cf" text-anchor="start">PDF com a marca</text><text x="884" y="812" font-family="Inter,-apple-system,'Helvetica Neue',Arial" font-size="13.5" font-weight="500" fill="#8fb2cf" text-anchor="start">da empresa</text><rect x="38" y="880" width="1004" height="296" rx="24" fill="rgba(0,200,255,0.05)" stroke="#00c8ff" stroke-width="1.5" stroke-opacity="0.5"/><text x="76" y="930" font-family="'JetBrains Mono',ui-monospace,Menlo,monospace" font-size="15" font-weight="700" fill="#00c8ff" text-anchor="start" letter-spacing="3">// AUTOMAÇÃO</text><text x="76" y="970" font-family="Inter,-apple-system,'Helvetica Neue',Arial" font-size="31" font-weight="800" fill="#eaf4ff" text-anchor="start">Empresa nova? 1 comando.</text><text x="76" y="1000" font-family="Inter,-apple-system,'Helvetica Neue',Arial" font-size="18" font-weight="500" fill="#8fb2cf" text-anchor="start">sem designer, sem copiar template — um script gera tudo e publica</text><rect x="76" y="1026" width="282.6666666666667" height="116" rx="14" fill="rgba(255,255,255,0.04)" stroke="rgba(120,190,255,0.16)" stroke-width="1.2"/><text x="96" y="1058" font-family="'JetBrains Mono',ui-monospace,Menlo,monospace" font-size="13" font-weight="700" fill="#00c8ff" text-anchor="start" letter-spacing="1.5">$ 1 COMANDO</text><text x="96" y="1086" font-family="Inter,-apple-system,'Helvetica Neue',Arial" font-size="15" font-weight="600" fill="#dceaf6" text-anchor="start">python create-new-</text><text x="96" y="1109" font-family="Inter,-apple-system,'Helvetica Neue',Arial" font-size="15" font-weight="600" fill="#dceaf6" text-anchor="start">template.py Empresa</text><rect x="398.6666666666667" y="1026" width="282.6666666666667" height="116" rx="14" fill="rgba(255,255,255,0.04)" stroke="rgba(120,190,255,0.16)" stroke-width="1.2"/><text x="418.6666666666667" y="1058" font-family="'JetBrains Mono',ui-monospace,Menlo,monospace" font-size="13" font-weight="700" fill="#00c8ff" text-anchor="start" letter-spacing="1.5">GERA 4 ARQUIVOS</text><text x="418.6666666666667" y="1086" font-family="Inter,-apple-system,'Helvetica Neue',Arial" font-size="15" font-weight="600" fill="#dceaf6" text-anchor="start">página web PT + EN</text><text x="418.6666666666667" y="1109" font-family="Inter,-apple-system,'Helvetica Neue',Arial" font-size="15" font-weight="600" fill="#dceaf6" text-anchor="start">PDF impressão PT + EN</text><rect x="721.3333333333334" y="1026" width="282.6666666666667" height="116" rx="14" fill="rgba(255,255,255,0.04)" stroke="rgba(120,190,255,0.16)" stroke-width="1.2"/><text x="741.3333333333334" y="1058" font-family="'JetBrains Mono',ui-monospace,Menlo,monospace" font-size="13" font-weight="700" fill="#00c8ff" text-anchor="start" letter-spacing="1.5">PUBLICA</text><text x="741.3333333333334" y="1086" font-family="Inter,-apple-system,'Helvetica Neue',Arial" font-size="15" font-weight="600" fill="#dceaf6" text-anchor="start">paleta oficial da marca</text><text x="741.3333333333334" y="1109" font-family="Inter,-apple-system,'Helvetica Neue',Arial" font-size="15" font-weight="600" fill="#dceaf6" text-anchor="start">41 → 42 → …</text><line x1="366.6666666666667" y1="1084" x2="389.6666666666667" y2="1084" stroke="#00c8ff" stroke-width="2" opacity="0.6"/><path d="M385.6666666666667 1079 L395.6666666666667 1084 L385.6666666666667 1089 Z" fill="#00c8ff"/><line x1="689.3333333333334" y1="1084" x2="712.3333333333334" y2="1084" stroke="#00c8ff" stroke-width="2" opacity="0.6"/><path d="M708.3333333333334 1079 L718.3333333333334 1084 L708.3333333333334 1089 Z" fill="#00c8ff"/><text x="540" y="1234" font-family="'JetBrains Mono',ui-monospace,Menlo,monospace" font-size="26" font-weight="800" fill="#00c8ff" text-anchor="middle">pedrohmarconato.github.io/Pedro-Marconato-CV</text><text x="540" y="1266" font-family="Inter,-apple-system,'Helvetica Neue',Arial" font-size="17" font-weight="600" fill="#8fb2cf" text-anchor="middle">Pedro Marconato · CRM & Inteligência de Dados</text>
</svg>