<svg xmlns="http://www.w3.org/2000/svg" viewBox="0 0 2000 262.2" style="enable-background:new 0 0 2000 262.2" xml:space="preserve"><path d="M0 0v262.2h118.8v-39.1H38.9V38.9h184.2v167.9L157.5 141l-27.7 27.7 93.3 93.5h39.1V0H0z" style="fill:#3957bd"/><path d="M549.4 131c0-61.4-47-109.8-108.7-109.8-62 0-108.7 48.2-108.7 109.8 0 61.8 46.8 109.8 108.7 109.8 21.3 0 40.7-5.6 57.2-15.7l31.7 31.7.2-.2.2.2 26.1-26.1-30.5-30.5c14.9-18.6 23.8-42.5 23.8-69.2zm-78.7 67.2c-8.6 4.4-18.9 6.8-30.3 6.8-41.1 0-67.8-32.7-67.8-74 0-41.1 26.7-74 67.8-74 41.1 0 67.8 32.9 67.8 74 0 15.4-3.8 29.5-10.6 41.3l-31.1-31.1-26.1 26.1 1.4 1.4-.2.2 29.1 29.3zM666.1 166.7c0 24.3-13.8 42.5-34.5 42.5-18.3 0-27.5-12.2-27.5-37.5v-85H567v89.7c0 41.7 15.9 64.8 51.6 64.8 23.7 0 41.3-17.7 48.2-32.7l-.6 28.1h37.1V86.7h-37.1v80zM765.9 86.7h-37.1v149.9h37.1V86.7zM765.9 26.3h-37.1v37.1h37.1V26.3zM875.8 82.3c-23.3 0-41.1 17.7-48 32.7l.6-28.1h-37.1v149.9h37.1v-80.3c0-24.5 13.4-42.5 34.1-42.5 18.3 0 30.3 12.2 30.3 37.5v85.1h37.5v-89.5c.1-41.8-18.8-64.8-54.5-64.8zM989.6 42.9h-36.9l-.4 156.5c0 23.9 12.8 37.1 37.1 37.1h41.1v-32.3H1000c-6.8 0-10.4-3.6-10.4-10.2v-76.4h41.1V86.7h-41.1V42.9zM1115.2 81.9c-46.3 0-77.2 35.3-77.2 79.7 0 44.1 30.9 79.7 77.2 79.7 46.7 0 77.6-35.7 77.6-79.7-.2-44.2-30.9-79.7-77.6-79.7zm0 126c-21.9 0-39.5-16.3-39.5-46.1 0-29.7 17.7-46.3 39.5-46.3 22.3 0 39.9 16.5 39.9 46.3-.2 29.8-17.9 46.1-39.9 46.1zM1271.9 26.9l-81.3 209.7h41.7l19.3-53.6h87.3l19.5 53.6h41.7l-81.9-209.7h-46.3zm-9.3 125.2 32.3-89.9 32.7 89.9h-65zM1494.2 82.3c-23.3 0-41.1 17.7-48 32.7l.6-28.1h-37.1v149.9h37.1v-80.3c0-24.5 13.4-42.5 34.1-42.5 18.3 0 30.3 12.2 30.3 37.5v85.1h37.5v-89.5c.1-41.8-18.8-64.8-54.5-64.8zM1684.4 112.2c-5.6-12.8-23.1-29.9-49-29.9-41.7 0-69.8 36.9-69.8 79.7 0 43.5 28.1 79.1 69.8 79.1 25.7 0 43.5-17.7 49.8-30.3l-.6 25.7h37.1V26.9h-37.1v85.3h-.2zm-39.7 96.5c-22.3 0-40.7-19.5-40.7-46.7 0-27.3 18.7-47.4 40.7-47.4 21.9 0 41.1 20.1 41.1 47.4 0 27.2-19.3 47.1-41.1 46.7zM1812.8 81.9c-41.1 0-65.6 24.3-70.4 46.3l37.1 6.6c3.6-12.2 15.7-22.5 32.3-22.5 18.3 0 29.3 12.2 29.3 30.9v19.5c-7.2-6-19.9-15.7-44.7-15.7-31.5 0-56 17.7-56 46.3 0 29.1 20.7 47.6 52.8 47.6 25.7 0 41.7-12.6 48.8-23.9l-.8 19.3h37.1v-95.7c.1-37.1-24.8-58.7-65.5-58.7zm-4.2 131.4c-20.5 0-29.9-10.2-29.9-21.1 0-11 9.2-21.9 29.9-21.9 18.7 0 33.3 8 33.3 19.5 0 12.2-14.5 23.5-33.3 23.5zM1985.8 84.3c-21.1 0-40.1 15-47.6 39.3h-.8l2-36.9h-37.3v149.9h37.1V174c0-42.3 22.3-54.2 43.7-54.2 6.6 0 15 .6 17.1.6V85.5c-3.2-.6-7.4-1.2-14.2-1.2z"/></svg>