<?xml version="1.0" standalone="no"?>
<!DOCTYPE svg PUBLIC "-//W3C//DTD SVG 20010904//EN"
 "http://www.w3.org/TR/2001/REC-SVG-20010904/DTD/svg10.dtd">
<svg version="1.0" xmlns="http://www.w3.org/2000/svg"
 width="1280.000000pt" height="720.000000pt" viewBox="0 0 1280.000000 720.000000"
 preserveAspectRatio="xMidYMid meet">
<metadata>
Created by potrace 1.16, written by Peter Selinger 2001-2019
</metadata>
<g transform="translate(0.000000,720.000000) scale(0.100000,-0.100000)"
fill="#000000" stroke="none">
<path d="M2910 4694 c-90 -14 -153 -28 -207 -45 l-63 -21 99 -106 c127 -137
241 -273 241 -290 0 -7 35 -63 78 -125 43 -62 96 -139 118 -172 33 -51 44 -60
69 -60 45 0 59 50 51 185 -10 188 -70 429 -142 572 -13 26 -21 49 -17 49 5 1
-12 5 -37 10 -46 8 -145 9 -190 3z"/>
<path d="M3516 4423 c-3 -65 -13 -163 -21 -218 -18 -123 -18 -117 -2 -110 6 4
5 0 -4 -7 -9 -7 -22 -40 -29 -73 -6 -33 -25 -113 -41 -177 -33 -132 -35 -160
-14 -178 67 -56 299 203 410 458 19 42 30 78 25 80 -16 6 -180 -39 -254 -69
-82 -34 -95 -36 -46 -9 46 26 203 76 263 85 26 4 47 10 47 12 0 16 -110 150
-165 201 -56 53 -146 122 -158 122 -2 0 -7 -53 -11 -117z"/>
<path d="M4913 4349 c-187 -31 -297 -141 -334 -333 -14 -73 -11 -186 6 -244
20 -66 95 -148 172 -189 32 -17 132 -61 223 -98 91 -37 173 -74 183 -83 12
-11 17 -30 17 -66 0 -60 -23 -111 -63 -140 -27 -20 -45 -21 -330 -26 l-302 -5
-16 -110 c-10 -60 -17 -125 -18 -144 l-1 -33 348 5 c366 5 416 11 516 58 130
61 199 207 200 424 1 96 -2 117 -23 163 -27 59 -91 122 -161 157 -25 12 -123
52 -217 89 -201 78 -219 93 -208 166 4 25 13 59 21 75 27 59 32 60 351 63 292
3 293 3 298 25 4 20 35 241 35 252 0 9 -644 3 -697 -6z"/>
<path d="M5816 4328 c-3 -18 -10 -69 -16 -113 -6 -44 -13 -92 -16 -107 l-6
-28 164 0 164 0 17 128 c9 70 17 133 17 140 0 9 -42 12 -160 12 l-159 0 -5
-32z"/>
<path d="M9945 4348 c-2 -7 -16 -101 -30 -208 -14 -106 -28 -197 -30 -200 -2
-4 -33 -3 -67 2 -35 5 -126 10 -203 11 -155 1 -215 -12 -291 -64 -103 -70
-173 -231 -205 -474 -15 -118 -7 -314 17 -380 23 -64 103 -146 160 -163 63
-18 173 -15 248 8 64 20 193 98 230 139 11 12 23 21 28 21 4 0 8 -36 8 -80 l0
-80 128 0 129 0 12 88 c6 48 52 376 101 729 50 353 90 647 90 653 0 16 -319
14 -325 -2z m-95 -645 c0 -5 -12 -98 -26 -208 -18 -137 -32 -206 -43 -218 -8
-10 -48 -40 -88 -67 -110 -73 -216 -90 -244 -38 -29 53 7 364 52 456 36 71 66
82 222 82 70 0 127 -3 127 -7z"/>
<path d="M10457 4233 c-10 -71 -17 -134 -17 -140 0 -10 39 -13 160 -13 88 0
160 2 160 5 0 7 29 203 35 243 l6 32 -164 0 -163 0 -17 -127z"/>
<path d="M2200 4283 c-84 -114 -148 -251 -195 -420 -4 -13 -2 -23 3 -23 5 0
74 7 153 16 79 9 200 17 269 18 116 1 418 -17 500 -30 50 -8 86 21 76 61 -18
70 -225 231 -416 322 -75 36 -313 123 -335 123 -3 0 -28 -30 -55 -67z"/>
<path d="M6622 3950 c-247 -34 -364 -156 -421 -437 -77 -380 3 -577 261 -638
116 -27 352 -17 484 20 l51 15 15 117 c8 65 15 119 14 120 -1 1 -42 -1 -92 -6
-49 -5 -146 -8 -216 -7 -111 1 -130 3 -155 22 -47 35 -57 81 -44 213 19 189
64 274 158 300 21 6 124 11 230 11 l191 0 11 68 c6 37 12 89 14 117 l2 49 -90
17 c-109 21 -326 31 -413 19z"/>
<path d="M8447 3949 c-145 -15 -264 -70 -327 -149 -42 -53 -84 -150 -106 -245
-27 -114 -27 -377 -1 -453 41 -116 143 -197 284 -227 147 -31 403 -13 573 41
66 20 80 29 75 42 -3 8 -13 56 -23 105 l-17 89 -40 -6 c-22 -4 -130 -9 -240
-12 -189 -5 -202 -4 -232 15 -36 23 -59 53 -68 93 -8 33 -9 32 220 49 330 24
427 78 476 266 39 152 -8 285 -123 344 -86 44 -284 65 -451 48z m251 -261 c16
-16 15 -86 -1 -117 -23 -46 -56 -60 -172 -71 -60 -6 -125 -13 -144 -16 l-34
-5 7 47 c8 61 43 123 85 151 30 20 46 23 140 23 70 0 111 -4 119 -12z"/>
<path d="M5760 3927 c0 -6 -80 -590 -110 -802 -17 -115 -30 -218 -30 -227 0
-16 14 -18 160 -18 l159 0 6 33 c12 70 135 976 135 996 0 20 -4 21 -160 21
-88 0 -160 -1 -160 -3z"/>
<path d="M7315 3918 c-2 -7 -25 -166 -50 -353 -25 -187 -56 -414 -69 -505 -13
-91 -21 -168 -19 -172 2 -5 76 -8 164 -8 120 0 159 3 159 13 0 6 18 142 39
300 44 329 38 315 150 370 48 23 82 33 132 35 l68 4 27 82 c15 44 44 116 65
158 22 43 39 80 39 83 0 8 -63 6 -121 -5 -74 -14 -163 -61 -250 -132 l-74 -60
-3 101 -3 101 -125 0 c-91 0 -126 -3 -129 -12z"/>
<path d="M10415 3918 c-2 -7 -25 -159 -49 -338 -25 -179 -57 -407 -71 -507
-14 -100 -25 -185 -25 -188 0 -3 73 -4 162 -3 l163 3 12 90 c7 50 37 272 68
495 31 223 58 417 61 433 l6 27 -162 0 c-119 0 -162 -3 -165 -12z"/>
<path d="M3935 3798 c-33 -27 -100 -77 -149 -110 -78 -54 -87 -63 -72 -72 79
-46 171 -112 226 -159 l65 -57 8 42 c10 52 2 355 -9 384 -9 19 -12 18 -69 -28z"/>
<path d="M2652 3670 c-206 -54 -445 -180 -611 -322 l-32 -28 27 -77 c47 -137
128 -279 228 -397 l24 -29 15 24 c8 13 40 69 72 124 123 211 247 388 385 545
99 113 109 144 54 168 -35 16 -77 14 -162 -8z"/>
<path d="M3663 3599 c-5 -5 -74 -43 -153 -82 -157 -79 -174 -96 -139 -141 58
-74 346 -86 557 -24 l73 21 -38 40 c-54 56 -139 120 -215 161 -73 41 -70 40
-85 25z"/>
<path d="M2849 3359 c-93 -99 -179 -423 -179 -673 l0 -122 118 -24 c119 -25
306 -34 364 -17 l27 7 -26 63 c-44 107 -134 378 -153 462 -11 44 -27 127 -36
185 -9 58 -23 115 -31 128 -19 31 -50 28 -84 -9z"/>
<path d="M3128 3266 c-32 -73 102 -315 259 -467 75 -73 154 -133 162 -122 3 5
29 25 57 46 66 47 171 158 224 237 23 34 40 63 38 64 -1 1 -34 11 -73 21 -38
10 -117 35 -174 56 -57 22 -105 38 -107 37 -1 -2 4 -30 12 -63 13 -58 19 -113
10 -104 -3 3 -8 26 -11 51 -14 101 -10 97 -151 168 -71 36 -140 73 -154 83
-36 25 -78 22 -92 -7z m422 -346 c0 -11 -2 -20 -4 -20 -2 0 -6 9 -9 20 -3 11
-1 20 4 20 5 0 9 -9 9 -20z m10 -110 c0 -5 -2 -10 -4 -10 -3 0 -8 5 -11 10 -3
6 -1 10 4 10 6 0 11 -4 11 -10z"/>
</g>
</svg>
