<svg xmlns="http://www.w3.org/2000/svg" width="1706.667" height="960" version="1.0" viewBox="0 0 1280 720">
  <g id="logo_sicredi">
    <!-- Símbolo/catavento -->
    <g id="simbolo">
      <path id="pa_1" fill="#1b7139" d="M291 250.6c-9 1.4-15.3 2.8-20.7 4.5l-6.3 2.1 9.9 10.6c12.7 13.7 24.1 27.3 24.1 29 0 .7 3.5 6.3 7.8 12.5s9.6 13.9 11.8 17.2c3.3 5.1 4.4 6 6.9 6 4.5 0 5.9-5 5.1-18.5-1-18.8-7-42.9-14.2-57.2-1.3-2.6-2.1-4.9-1.7-4.9.5-.1-1.2-.5-3.7-1-4.6-.8-14.5-.9-19-.3" />
      <path id="pa_2" fill="#63c834" d="M351.6 277.7c-.3 6.5-1.3 16.3-2.1 21.8-1.8 12.3-1.8 11.7-.2 11 .6-.4.5 0-.4.7s-2.2 4-2.9 7.3c-.6 3.3-2.5 11.3-4.1 17.7-3.3 13.2-3.5 16-1.4 17.8 6.7 5.6 29.9-20.3 41-45.8 1.9-4.2 3-7.8 2.5-8-1.6-.6-18 3.9-25.4 6.9-8.2 3.4-9.5 3.6-4.6.9 4.6-2.6 20.3-7.6 26.3-8.5 2.6-.4 4.7-1 4.7-1.2 0-1.6-11-15-16.5-20.1-5.6-5.3-14.6-12.2-15.8-12.2-.2 0-.7 5.3-1.1 11.7" />
      <path id="pa_3" fill="#75c053" d="M393.5 340.2c-3.3 2.7-10 7.7-14.9 11-7.8 5.4-8.7 6.3-7.2 7.2 7.9 4.6 17.1 11.2 22.6 15.9l6.5 5.7.8-4.2c1-5.2.2-35.5-.9-38.4-.9-1.9-1.2-1.8-6.9 2.8" />
      <path id="pa_4" fill="#9ec9af" d="M366.3 360.1c-.5.5-7.4 4.3-15.3 8.2-15.7 7.9-17.4 9.6-13.9 14.1 5.8 7.4 34.6 8.6 55.7 2.4l7.3-2.1-3.8-4c-5.4-5.6-13.9-12-21.5-16.1-7.3-4.1-7-4-8.5-2.5" />
      <path id="pa_5" fill="#f1faef" d="M312.8 393.4c-3.2 7.3 10.2 31.5 25.9 46.7 7.5 7.3 15.4 13.3 16.2 12.2.3-.5 2.9-2.5 5.7-4.6 6.6-4.7 17.1-15.8 22.4-23.7 2.3-3.4 4-6.3 3.8-6.4-.1-.1-3.4-1.1-7.3-2.1-3.8-1-11.7-3.5-17.4-5.6-5.7-2.2-10.5-3.8-10.7-3.7-.1.2.4 3 1.2 6.3 1.3 5.8 1.9 11.3 1 10.4-.3-.3-.8-2.6-1.1-5.1-1.4-10.1-1-9.7-15.1-16.8-7.1-3.6-14-7.3-15.4-8.3-3.6-2.5-7.8-2.2-9.2.7" />
      <path id="pa_6" fill="#1b7139" d="M284.9 384.1c-9.3 9.9-17.9 42.3-17.9 67.3v12.2l11.8 2.4c11.9 2.5 30.6 3.4 36.4 1.7l2.7-.7-2.6-6.3c-4.4-10.7-13.4-37.8-15.3-46.2-1.1-4.4-2.7-12.7-3.6-18.5s-2.3-11.5-3.1-12.8c-1.9-3.1-5-2.8-8.4.9" />
      <path id="pa_7" fill="#63c834" d="M265.2 353c-20.6 5.4-44.5 18-61.1 32.2l-3.2 2.8 2.7 7.7c4.7 13.7 12.8 27.9 22.8 39.7l2.4 2.9 1.5-2.4c.8-1.3 4-6.9 7.2-12.4 12.3-21.1 24.7-38.8 38.5-54.5 9.9-11.3 10.9-14.4 5.4-16.8-3.5-1.6-7.7-1.4-16.2.8" />
      <path id="pa_8" fill="#75c053" d="M220 291.7c-8.4 11.4-14.8 25.1-19.5 42-.4 1.3-.2 2.3.3 2.3s7.4-.7 15.3-1.6 20-1.7 26.9-1.8c11.6-.1 41.8 1.7 50 3 5 .8 8.6-2.1 7.6-6.1-1.8-7-22.5-23.1-41.6-32.2-7.5-3.6-31.3-12.3-33.5-12.3-.3 0-2.8 3-5.5 6.7" />
      <path id="pa_extra_1" fill="#f1faef" d="M355 428c0 1.1-.2 2-.4 2s-.6-.9-.9-2-.1-2 .4-2 .9.9.9 2" />
      <path id="pa_extra_2" fill="#f1faef" d="M356 439c0 .5-.2 1-.4 1-.3 0-.8-.5-1.1-1-.3-.6-.1-1 .4-1 .6 0 1.1.4 1.1 1" />
    </g>
    
    <!-- Texto "Sicredi" -->
    <g id="texto" fill="#1b7139">
      <path id="letra_S" d="M491.3 285.1c-18.7 3.1-29.7 14.1-33.4 33.3-1.4 7.3-1.1 18.6.6 24.4 2 6.6 9.5 14.8 17.2 18.9 3.2 1.7 13.2 6.1 22.3 9.8s17.3 7.4 18.3 8.3c1.2 1.1 1.7 3 1.7 6.6 0 6-2.3 11.1-6.3 14-2.7 2-4.5 2.1-33 2.6l-30.2.5-1.6 11c-1 6-1.7 12.5-1.8 14.4l-.1 3.3 34.8-.5c36.6-.5 41.6-1.1 51.6-5.8 13-6.1 19.9-20.7 20-42.4.1-9.6-.2-11.7-2.3-16.3-2.7-5.9-9.1-12.2-16.1-15.7-2.5-1.2-12.3-5.2-21.7-8.9-20.1-7.8-21.9-9.3-20.8-16.6.4-2.5 1.3-5.9 2.1-7.5 2.7-5.9 3.2-6 35.1-6.3 29.2-.3 29.3-.3 29.8-2.5.4-2 3.5-24.1 3.5-25.2 0-.9-64.4-.3-69.7.6" />
      <path id="letra_i_1" d="M581.6 287.2c-.3 1.8-1 6.9-1.6 11.3s-1.3 9.2-1.6 10.7l-.6 2.8h32.8l1.7-12.8c.9-7 1.7-13.3 1.7-14 0-.9-4.2-1.2-16-1.2h-15.9z" />
      <path id="letra_c" d="M662.2 325c-24.7 3.4-36.4 15.6-42.1 43.7-7.7 38 .3 57.7 26.1 63.8 11.6 2.7 35.2 1.7 48.4-2l5.1-1.5 1.5-11.7c.8-6.5 1.5-11.9 1.4-12s-4.2.1-9.2.6c-4.9.5-14.6.8-21.6.7-11.1-.1-13-.3-15.5-2.2-4.7-3.5-5.7-8.1-4.4-21.3 1.9-18.9 6.4-27.4 15.8-30 2.1-.6 12.4-1.1 23-1.1h19.1l1.1-6.8c.6-3.7 1.2-8.9 1.4-11.7l.2-4.9-9-1.7c-10.9-2.1-32.6-3.1-41.3-1.9" />
      <path id="letra_r" d="M731.5 328.2c-.2.7-2.5 16.6-5 35.3s-5.6 41.4-6.9 50.5-2.1 16.8-1.9 17.2c.2.5 7.6.8 16.4.8 12 0 15.9-.3 15.9-1.3 0-.6 1.8-14.2 3.9-30 4.4-32.9 3.8-31.5 15-37 4.8-2.3 8.2-3.3 13.2-3.5l6.8-.4 2.7-8.2c1.5-4.4 4.4-11.6 6.5-15.8 2.2-4.3 3.9-8 3.9-8.3 0-.8-6.3-.6-12.1.5-7.4 1.4-16.3 6.1-25 13.2l-7.4 6-.3-10.1-.3-10.1h-12.5c-9.1 0-12.6.3-12.9 1.2" />
      <path id="letra_e" d="M844.7 325.1c-14.5 1.5-26.4 7-32.7 14.9-4.2 5.3-8.4 15-10.6 24.5-2.7 11.4-2.7 37.7-.1 45.3 4.1 11.6 14.3 19.7 28.4 22.7 14.7 3.1 40.3 1.3 57.3-4.1 6.6-2 8-2.9 7.5-4.2-.3-.8-1.3-5.6-2.3-10.5l-1.7-8.9-4 .6c-2.2.4-13 .9-24 1.2-18.9.5-20.2.4-23.2-1.5-3.6-2.3-5.9-5.3-6.8-9.3-.8-3.3-.9-3.2 22-4.9 33-2.4 42.7-7.8 47.6-26.6 3.9-15.2-.8-28.5-12.3-34.4-8.6-4.4-28.4-6.5-45.1-4.8m25.1 26.1c1.6 1.6 1.5 8.6-.1 11.7-2.3 4.6-5.6 6-17.2 7.1-6 .6-12.5 1.3-14.4 1.6l-3.4.5.7-4.7c.8-6.1 4.3-12.3 8.5-15.1 3-2 4.6-2.3 14-2.3 7 0 11.1.4 11.9 1.2" />
      <path id="letra_d" d="M994.5 285.2c-.2.7-1.6 10.1-3 20.8-1.4 10.6-2.8 19.7-3 20-.2.4-3.3.3-6.7-.2-3.5-.5-12.6-1-20.3-1.1-15.5-.1-21.5 1.2-29.1 6.4-10.3 7-17.3 23.1-20.5 47.4-1.5 11.8-.7 31.4 1.7 38 2.3 6.4 10.3 14.6 16 16.3 6.3 1.8 17.3 1.5 24.8-.8 6.4-2 19.3-9.8 23-13.9 1.1-1.2 2.3-2.1 2.8-2.1.4 0 .8 3.6.8 8v8h25.700000000000003l1.2-8.8c.6-4.8 5.2-37.6 10.1-72.9 5-35.3 9-64.7 9-65.3 0-1.6-31.9-1.4-32.5.2m-9.5 64.5c0 .5-1.2 9.8-2.6 20.8-1.8 13.7-3.2 20.6-4.3 21.8-.8 1-4.8 4-8.8 6.7-11 7.3-21.6 9-24.4 3.8-2.9-5.3.7-36.4 5.2-45.6 3.6-7.1 6.6-8.2 22.2-8.2 7 0 12.7.3 12.7.7" />
      <path id="letra_i_2" d="M1045.7 296.7c-1 7.1-1.7 13.4-1.7 14 0 1 3.9 1.3 16 1.3 8.8 0 16-.2 16-.5 0-.7 2.9-20.3 3.5-24.3l.6-3.2h-32.7z" />
      <path id="letra_i_corpo_1" d="M576 327.3c0 .6-8 59-11 80.2-1.7 11.5-3 21.8-3 22.7 0 1.6 1.4 1.8 16 1.8h15.9l.6-3.3c1.2-7 13.5-97.6 13.5-99.6s-.4-2.1-16-2.1c-8.8 0-16 .1-16 .3" />
      <path id="letra_i_corpo_2" d="M1041.5 328.2c-.2.7-2.5 15.9-4.9 33.8-2.5 17.9-5.7 40.7-7.1 50.7s-2.5 18.5-2.5 18.8 7.3.4 16.2.3l16.3-.3 1.2-9c.7-5 3.7-27.2 6.8-49.5s5.8-41.7 6.1-43.3l.6-2.7H1058c-11.9 0-16.2.3-16.5 1.2" />
    </g>
  </g>
</svg>